<ttFont>
<head>
    <!-- Most of this table will be recalculated by the compiler -->
    <tableVersion value="1.0"/>
    <fontRevision value="2.0"/>
    <checkSumAdjustment value="0xf412fb1a"/>
    <magicNumber value="0x5f0f3cf5"/>
    <flags value="00000000 00000011"/>
    <unitsPerEm value="1000"/>
    <created value="Thu Sep 15 21:18:00 2011"/>
    <modified value="Wed Oct 26 15:54:19 2011"/>
    <xMin value="-281"/>
    <yMin value="-300"/>
    <xMax value="1159"/>
    <yMax value="1023"/>
    <macStyle value="00000000 00000000"/>
    <lowestRecPPEM value="3"/>
    <fontDirectionHint value="2"/>
    <indexToLocFormat value="0"/>
    <glyphDataFormat value="0"/>
  </head>
        <CharString name=".notdef">
          -123 endchar
        </CharString>
        <CharString name="A">
          241 21 -21 191 96 -54 54 492 -20 hstemhm
          hintmask 11010000
          618 276 rmoveto
          -46 8 -41 4 0 vvcurveto
          -34 126 -33 190 -29 150 rrcurveto
          15 -3 -12 10 -16 hhcurveto
          -13 -12 -9 -12 -4 hvcurveto
          -29 -89 -102 -224 -85 -158 rrcurveto
          -102 -8 -57 -3 -51 vvcurveto
          -19 16 -15 18 16 26 16 9 11 vhcurveto
          10 1 12 2 14 1 -30 -55 -27 -46 -20 -30 rrcurveto
          -17 -8 -27 -20 -26 vvcurveto
          -21 19 -14 18 11 11 5 8 7 vhcurveto
          23 24 51 86 57 105 rrcurveto
          hintmask 10110000
          3 44 51 2 56 hhcurveto
          42 44 -1 -3 46 hvcurveto
          -225 66 37 -1 18 hhcurveto
          16 11 14 18 14 -13 13 -4 1 hvcurveto
          -16 12 -22 61 -26 87 32 -3 -14 1 33 -5 rrcurveto
          2 3 -1 10 hhcurveto
          17 12 13 18 14 -11 13 -15 3 hvcurveto
          -385 16 rmoveto
          58 110 64 143 39 90 28 -134 20 -127 22 -81 rrcurveto
          2 -38 -36 1 -34 hhcurveto
          -45 -41 -2 -2 -37 hvcurveto
          endchar
        </CharString>
        <CharString name="AE">
          646 9 60 -48 -21 191 96 -54 54 -7 63 325 92 -67 67 19 -20 hstemhm
          513 63 hintmask 1000101010000000
          771 9 rmoveto
          62 3 66 7 77 24 rrcurveto
          41 4 55 28 42 vvcurveto
          15 -9 23 -30 -25 -45 -50 0 vhcurveto
          -18 -29 -124 -18 -101 hhcurveto
          -35 -50 2 5 -18 hvcurveto
          -17 34 -11 48 61 vvcurveto
          6 2 14 0 vhcurveto
          0 27 16 31 8 vhcurveto
          38 10 42 5 45 2 rrcurveto
          0 8 -5 10 20 18 11 22 27 -24 8 -24 -68 -64 -13 -22 -63 vhcurveto
          1 121 9 127 11 89 rrcurveto
          37 112 99 11 64 hhcurveto
          39 37 -2 -2 8 hvcurveto
          hintmask 1010010010000000
          0 26 -21 27 31 14 19 26 36 -61 11 -54 -71 -126 -1 -40 -135 vhcurveto
          1 1 4 15 vvcurveto
          15 -12 14 -17 -27 -5 -36 -26 -4 vhcurveto
          -1 -11 rlineto
          0 -51 -20 -37 -22 vhcurveto
          -7 35 -6 34 -6 32 rrcurveto
          hintmask 0110000110000000
          15 -3 -12 10 -16 hhcurveto
          -13 -12 -9 -12 -4 hvcurveto
          -29 -89 -102 -224 -85 -158 rrcurveto
          -102 -8 -57 -3 -51 vvcurveto
          -19 16 -15 18 16 26 16 9 11 vhcurveto
          10 1 12 2 14 1 -30 -55 -27 -46 -20 -30 rrcurveto
          -17 -8 -27 -20 -26 vvcurveto
          -21 19 -14 18 11 11 5 8 7 vhcurveto
          23 24 51 86 57 105 rrcurveto
          hintmask 1001010010000000
          3 44 51 2 56 hhcurveto
          42 44 -1 -3 46 hvcurveto
          45 -130 7 -55 34 -28 rrcurveto
          -6 45 55 -2 46 hhcurveto
          19 19 0 1 19 hvcurveto
          -538 283 rmoveto
          58 110 64 143 39 90 28 -134 20 -127 22 -81 rrcurveto
          2 -38 -36 1 -34 hhcurveto
          -45 -41 -2 -2 -37 hvcurveto
          232 300 rmoveto
          16 8 15 11 37 15 -12 -102 -6 -89 -2 -75 -16 71 -17 81 -15 80 rrcurveto
          endchar
        </CharString>
        <CharString name="Aacute">
          241 21 -21 191 96 -54 54 492 -20 76 -21 172 -20 hstemhm
          hintmask 11010000
          618 276 rmoveto
          -46 8 -41 4 0 vvcurveto
          -34 126 -33 190 -29 150 rrcurveto
          15 -3 -12 10 -16 hhcurveto
          -13 -12 -9 -12 -4 hvcurveto
          -29 -89 -102 -224 -85 -158 rrcurveto
          -102 -8 -57 -3 -51 vvcurveto
          -19 16 -15 18 16 26 16 9 11 vhcurveto
          10 1 12 2 14 1 -30 -55 -27 -46 -20 -30 rrcurveto
          -17 -8 -27 -20 -26 vvcurveto
          -21 19 -14 18 11 11 5 8 7 vhcurveto
          23 24 51 86 57 105 rrcurveto
          hintmask 10110000
          3 44 51 2 56 hhcurveto
          42 44 -1 -3 46 hvcurveto
          -225 66 37 -1 18 hhcurveto
          16 11 14 18 14 -13 13 -4 1 hvcurveto
          -16 12 -22 61 -26 87 32 -3 -14 1 33 -5 rrcurveto
          2 3 -1 10 hhcurveto
          17 12 13 18 14 -11 13 -15 3 hvcurveto
          -385 16 rmoveto
          58 110 64 143 39 90 28 -134 20 -127 22 -81 rrcurveto
          2 -38 -36 1 -34 hhcurveto
          -45 -41 -2 -2 -37 hvcurveto
          hintmask 00001100
          250 675 rmoveto
          -29 -58 -36 -29 -36 -13 rrcurveto
          -11 -4 -8 -11 -13 vvcurveto
          -18 14 -7 13 3 4 0 1 5 vhcurveto
          71 18 43 51 29 51 rrcurveto
          3 5 1 6 5 vvcurveto
          20 -18 15 -15 -12 -11 -5 -14 -10 vhcurveto
          endchar
        </CharString>
        <CharString name="Acircumflex">
          241 21 -21 191 96 -54 54 492 -20 59 -21 148 -20 hstemhm
          hintmask 11010000
          618 276 rmoveto
          -46 8 -41 4 0 vvcurveto
          -34 126 -33 190 -29 150 rrcurveto
          15 -3 -12 10 -16 hhcurveto
          -13 -12 -9 -12 -4 hvcurveto
          -29 -89 -102 -224 -85 -158 rrcurveto
          -102 -8 -57 -3 -51 vvcurveto
          -19 16 -15 18 16 26 16 9 11 vhcurveto
          10 1 12 2 14 1 -30 -55 -27 -46 -20 -30 rrcurveto
          -17 -8 -27 -20 -26 vvcurveto
          -21 19 -14 18 11 11 5 8 7 vhcurveto
          23 24 51 86 57 105 rrcurveto
          hintmask 10110000
          3 44 51 2 56 hhcurveto
          42 44 -1 -3 46 hvcurveto
          -225 66 37 -1 18 hhcurveto
          16 11 14 18 14 -13 13 -4 1 hvcurveto
          -16 12 -22 61 -26 87 32 -3 -14 1 33 -5 rrcurveto
          2 3 -1 10 hhcurveto
          17 12 13 18 14 -11 13 -15 3 hvcurveto
          -385 16 rmoveto
          58 110 64 143 39 90 28 -134 20 -127 22 -81 rrcurveto
          2 -38 -36 1 -34 hhcurveto
          -45 -41 -2 -2 -37 hvcurveto
          hintmask 00001100
          68 509 rmoveto
          35 26 35 27 33 27 rrcurveto
          -25 24 47 -57 25 hhcurveto
          17 11 10 14 6 -3 7 -4 4 hvcurveto
          -29 31 -32 34 -30 30 rrcurveto
          6 -7 -8 4 -8 hhcurveto
          -5 -8 -2 -5 -7 hvcurveto
          -40 -32 -42 -32 -39 -33 rrcurveto
          -7 -6 -2 -8 -6 vvcurveto
          -13 12 -11 16 4 6 1 3 6 vhcurveto
          endchar
        </CharString>
        <CharString name="Adieresis">
          241 21 -21 191 96 -54 54 492 -20 46 111 hstemhm
          287 91 46 91 hintmask 11010000
          618 276 rmoveto
          -46 8 -41 4 0 vvcurveto
          -34 126 -33 190 -29 150 rrcurveto
          15 -3 -12 10 -16 hhcurveto
          -13 -12 -9 -12 -4 hvcurveto
          -29 -89 -102 -224 -85 -158 rrcurveto
          -102 -8 -57 -3 -51 vvcurveto
          -19 16 -15 18 16 26 16 9 11 vhcurveto
          10 1 12 2 14 1 -30 -55 -27 -46 -20 -30 rrcurveto
          -17 -8 -27 -20 -26 vvcurveto
          -21 19 -14 18 11 11 5 8 7 vhcurveto
          23 24 51 86 57 105 rrcurveto
          hintmask 10110000
          3 44 51 2 56 hhcurveto
          42 44 -1 -3 46 hvcurveto
          -225 66 37 -1 18 hhcurveto
          16 11 14 18 14 -13 13 -4 1 hvcurveto
          -16 12 -22 61 -26 87 32 -3 -14 1 33 -5 rrcurveto
          2 3 -1 10 hhcurveto
          17 12 13 18 14 -11 13 -15 3 hvcurveto
          -385 16 rmoveto
          58 110 64 143 39 90 28 -134 20 -127 22 -81 rrcurveto
          2 -38 -36 1 -34 hhcurveto
          -45 -41 -2 -2 -37 hvcurveto
          hintmask 00001110
          54 568 rmoveto
          -31 20 -24 25 25 21 24 31 31 -21 25 -25 -25 -20 -25 -31 vhcurveto
          137 hmoveto
          -31 20 -24 25 25 21 24 31 31 -21 25 -25 -25 -20 -25 -31 vhcurveto
          endchar
        </CharString>
        <CharString name="Agrave">
          241 21 -21 191 96 -54 54 492 -20 76 -21 172 -20 hstemhm
          hintmask 11010000
          618 276 rmoveto
          -46 8 -41 4 0 vvcurveto
          -34 126 -33 190 -29 150 rrcurveto
          15 -3 -12 10 -16 hhcurveto
          -13 -12 -9 -12 -4 hvcurveto
          -29 -89 -102 -224 -85 -158 rrcurveto
          -102 -8 -57 -3 -51 vvcurveto
          -19 16 -15 18 16 26 16 9 11 vhcurveto
          10 1 12 2 14 1 -30 -55 -27 -46 -20 -30 rrcurveto
          -17 -8 -27 -20 -26 vvcurveto
          -21 19 -14 18 11 11 5 8 7 vhcurveto
          23 24 51 86 57 105 rrcurveto
          hintmask 10110000
          3 44 51 2 56 hhcurveto
          42 44 -1 -3 46 hvcurveto
          -225 66 37 -1 18 hhcurveto
          16 11 14 18 14 -13 13 -4 1 hvcurveto
          -16 12 -22 61 -26 87 32 -3 -14 1 33 -5 rrcurveto
          2 3 -1 10 hhcurveto
          17 12 13 18 14 -11 13 -15 3 hvcurveto
          -385 16 rmoveto
          58 110 64 143 39 90 28 -134 20 -127 22 -81 rrcurveto
          2 -38 -36 1 -34 hhcurveto
          -45 -41 -2 -2 -37 hvcurveto
          hintmask 00001100
          91 675 rmoveto
          14 -10 -11 5 -12 hhcurveto
          -15 -18 -15 -20 -5 1 -6 3 -5 hvcurveto
          29 -51 43 -51 71 -18 rrcurveto
          -1 5 4 0 3 hhcurveto
          13 14 7 18 13 -8 11 -11 4 hvcurveto
          -36 13 -36 29 -29 58 rrcurveto
          endchar
        </CharString>
        <CharString name="Aring">
          241 21 -21 191 96 -54 54 492 -20 54 46 164 -20 hstemhm
          341 191 -52 52 hintmask 11010000
          618 276 rmoveto
          -46 8 -41 4 0 vvcurveto
          -34 126 -33 190 -29 150 rrcurveto
          15 -3 -12 10 -16 hhcurveto
          -13 -12 -9 -12 -4 hvcurveto
          -29 -89 -102 -224 -85 -158 rrcurveto
          -102 -8 -57 -3 -51 vvcurveto
          -19 16 -15 18 16 26 16 9 11 vhcurveto
          10 1 12 2 14 1 -30 -55 -27 -46 -20 -30 rrcurveto
          -17 -8 -27 -20 -26 vvcurveto
          -21 19 -14 18 11 11 5 8 7 vhcurveto
          23 24 51 86 57 105 rrcurveto
          hintmask 10110000
          3 44 51 2 56 hhcurveto
          42 44 -1 -3 46 hvcurveto
          -225 66 37 -1 18 hhcurveto
          16 11 14 18 14 -13 13 -4 1 hvcurveto
          -16 12 -22 61 -26 87 32 -3 -14 1 33 -5 rrcurveto
          2 3 -1 10 hhcurveto
          17 12 13 18 14 -11 13 -15 3 hvcurveto
          -385 16 rmoveto
          58 110 64 143 39 90 28 -134 20 -127 22 -81 rrcurveto
          2 -38 -36 1 -34 hhcurveto
          -45 -41 -2 -2 -37 hvcurveto
          hintmask 00001110
          166 725 rmoveto
          -33 -21 -25 -50 -46 vvcurveto
          -58 34 -29 43 61 53 66 66 52 -31 21 -31 -8 -12 -2 -4 -10 vhcurveto
          6 -6 -7 5 -9 hhcurveto
          -6 -6 -2 -4 -7 hvcurveto
          13 -80 rmoveto
          22 17 34 23 hhcurveto
          hintmask 00001101
          4 2 -9 -11 -31 -17 -61 -48 -18 -6 26 14 14 3 14 5 12 hvcurveto
          -1 4 5 -1 4 hhcurveto
          endchar
        </CharString>
        <CharString name="Atilde">
          241 21 -21 191 96 -54 54 492 -20 49 124 -105 -21 128 -20 hstemhm
          hintmask 11010000
          618 276 rmoveto
          -46 8 -41 4 0 vvcurveto
          -34 126 -33 190 -29 150 rrcurveto
          15 -3 -12 10 -16 hhcurveto
          -13 -12 -9 -12 -4 hvcurveto
          -29 -89 -102 -224 -85 -158 rrcurveto
          -102 -8 -57 -3 -51 vvcurveto
          -19 16 -15 18 16 26 16 9 11 vhcurveto
          10 1 12 2 14 1 -30 -55 -27 -46 -20 -30 rrcurveto
          -17 -8 -27 -20 -26 vvcurveto
          -21 19 -14 18 11 11 5 8 7 vhcurveto
          23 24 51 86 57 105 rrcurveto
          hintmask 10110000
          3 44 51 2 56 hhcurveto
          42 44 -1 -3 46 hvcurveto
          -225 66 37 -1 18 hhcurveto
          16 11 14 18 14 -13 13 -4 1 hvcurveto
          -16 12 -22 61 -26 87 32 -3 -14 1 33 -5 rrcurveto
          2 3 -1 10 hhcurveto
          17 12 13 18 14 -11 13 -15 3 hvcurveto
          -385 16 rmoveto
          58 110 64 143 39 90 28 -134 20 -127 22 -81 rrcurveto
          2 -38 -36 1 -34 hhcurveto
          -45 -41 -2 -2 -37 hvcurveto
          hintmask 00001000
          80 538 rmoveto
          31 12 11 9 9 hhcurveto
          -1 28 40 -61 50 hhcurveto
          34 40 21 72 18 hvcurveto
          5 vlineto
          hintmask 00000110
          17 -14 11 -17 -11 -12 -8 -16 -6 vhcurveto
          -31 -12 -11 -9 -9 hhcurveto
          hintmask 00001000
          1 -27 -40 61 -51 hhcurveto
          -31 -46 -21 -72 -15 hvcurveto
          -1 -6 rlineto
          hintmask 00000110
          -18 17 -9 15 11 12 8 16 6 vhcurveto
          endchar
        </CharString>
        <CharString name="B">
          130 5 82 -62 -21 700 63 -63 101 hstemhm
          1 110 -63 94 312 63 3 63 hintmask 10101011
          335 363 rmoveto
          132 58 116 95 105 vvcurveto
          108 -119 38 -102 -61 -56 -10 -12 -49 vhcurveto
          1 5 0 5 4 vvcurveto
          hintmask 10011011
          25 -15 21 -22 -21 -26 -28 -60 -7 vhcurveto
          -71 -28 -34 -14 -32 vvcurveto
          -17 15 -15 17 12 17 7 20 26 vhcurveto
          hintmask 01100111
          -20 -99 -20 -150 -129 vvcurveto
          -240 28 -16 29 20 17 16 24 20 -8 17 -15 29 vhcurveto
          hintmask 10101011
          -4 30 -4 58 61 vvcurveto
          155 29 165 20 90 vhcurveto
          18 54 70 17 78 hhcurveto
          16 142 -2 -81 -88 -165 -123 -182 -33 hvcurveto
          -15 -3 -10 -13 -14 vvcurveto
          -24 20 -8 19 82 185 -16 -88 -87 -121 -45 -72 -9 vhcurveto
          11 -5 -14 6 -15 hhcurveto
          -23 -19 -18 -22 -26 24 -16 28 82 198 57 150 94 -91 39 -91 18 hvcurveto
          endchar
        </CharString>
        <CharString name="C">
          204 -17 63 334 80 236 63 hstem
          20 63 426 63 vstem
          380 460 rmoveto
          -27 -15 -14 -24 -12 0 -30 70 40 124 39 134 133 -73 73 -124 -205 -150 -221 -225 -228 147 -102 139 143 112 80 82 48 hvcurveto
          6 10 2 12 8 vvcurveto
          23 -17 19 -25 -49 -7 -79 -4 vhcurveto
          -45 -47 -77 -43 -89 hhcurveto
          -110 -113 83 186 191 126 190 166 88 46 -46 -97 -72 -65 -35 -25 -2 hvcurveto
          -4 hlineto
          8 -7 -7 8 -21 hhcurveto
          endchar
        </CharString>
        <CharString name="Ccedilla">
          204 -132 -21 136 63 334 80 236 63 hstem
          20 63 244 63 119 63 vstem
          294 -17 rmoveto
          24 -4 9 -8 -9 vvcurveto
          -21 -42 -26 -26 -6 vhcurveto
          -19 -4 -9 -15 -13 vvcurveto
          -16 12 -14 20 vhcurveto
          6 hlineto
          69 13 52 58 51 vvcurveto
          8 -1 7 -3 8 vhcurveto
          104 22 80 65 39 66 rrcurveto
          6 10 2 12 8 vvcurveto
          23 -17 19 -25 -49 -7 -79 -4 vhcurveto
          -45 -47 -77 -43 -89 hhcurveto
          -2 hlineto
          -110 1 -111 83 185 vvcurveto
          191 126 190 166 88 46 -46 -97 -72 -65 -35 -25 -2 vhcurveto
          -4 hlineto
          8 -7 -7 8 -21 hhcurveto
          -27 -15 -14 -24 -12 0 -30 70 40 124 39 134 133 -73 73 -124 -205 -150 -221 -225 -222 138 -102 136 -6 hvcurveto
          endchar
        </CharString>
        <CharString name="D">
          244 12 -21 698 62 -62 106 hstemhm
          102 63 440 62 hintmask 11011000
          175 782 rmoveto
          -5 -5 -7 -14 -7 -21 -51 -6 -57 -14 -34 -24 rrcurveto
          -10 -7 -4 -16 -9 vvcurveto
          -21 17 -15 20 22 16 16 14 2 vhcurveto
          20 7 21 6 22 4 rrcurveto
          -20 -92 -18 -143 -171 vvcurveto
          -60 2 -63 6 -64 vhcurveto
          -8 1 -7 1 -7 1 -1 14 -12 13 -21 2 rrcurveto
          -34 -1 -5 -25 -15 vvcurveto
          -48 63 -6 41 -1 vhcurveto
          -17 6 11 -12 20 hhcurveto
          19 16 13 19 4 hvcurveto
          34 4 23 6 27 8 rrcurveto
          185 57 203 162 195 vvcurveto
          216 -193 80 -182 -18 -18 -1 -1 -18 vhcurveto
          1 4 0 4 4 vvcurveto
          hintmask 10111000
          24 -20 10 -16 -15 -7 -7 -6 -6 vhcurveto
          124 -93 rmoveto
          151 155 -72 -162 -170 -225 -182 -206 -20 hvcurveto
          -7 66 -2 67 62 vvcurveto
          184 25 145 19 79 vhcurveto
          2 32 31 1 27 hhcurveto
          endchar
        </CharString>
        <CharString name="Delta">
          215 -5 64 576 -20 hstem
          323 618 rmoveto
          -96 -191 -92 -194 -94 -192 rrcurveto
          -2 -5 -1 -5 -5 vvcurveto
          -15 10 -12 18 -4 vhcurveto
          171 171 1 1 170 hvcurveto
          22 2 12 11 19 vvcurveto
          3 0 3 -1 3 vhcurveto
          -77 192 -77 192 -76 191 rrcurveto
          11 -6 -2 11 -22 hhcurveto
          -14 -8 -5 -12 -6 hvcurveto
          212 -559 rmoveto
          -416 hlineto
          76 154 78 157 76 156 rrcurveto
          endchar
        </CharString>
        <CharString name="E">
          231 9 60 -40 -21 272 63 325 92 -67 67 8 -20 hstemhm
          97 64 hintmask 10101010
          356 9 rmoveto
          62 3 66 7 77 24 rrcurveto
          41 4 55 28 42 vvcurveto
          15 -9 23 -30 -25 -45 -50 0 vhcurveto
          -18 -29 -124 -18 -101 hhcurveto
          -35 -50 2 5 -18 hvcurveto
          -19 39 -7 56 -3 72 54 23 63 12 69 2 rrcurveto
          0 8 -5 10 20 18 11 22 27 -24 8 -24 -68 -64 -13 -22 -63 vhcurveto
          1 121 9 127 11 89 rrcurveto
          37 112 99 11 64 hhcurveto
          39 37 -2 -2 8 hvcurveto
          hintmask 10110010
          0 26 -21 27 31 14 19 26 36 -61 11 -54 -71 -126 -1 -40 -135 vhcurveto
          1 1 4 15 vvcurveto
          hintmask 01100110
          15 -12 14 -17 -27 -5 -36 -26 -4 vhcurveto
          -1 -11 rlineto
          0 -127 -49 -31 vvcurveto
          -15 13 -18 13 2 1 0 1 2 vhcurveto
          25 10 11 12 51 21 rrcurveto
          -15 -135 -6 -114 -85 vvcurveto
          -136 24 -123 43 -17 vhcurveto
          -6 45 44 -2 46 hhcurveto
          hintmask 10110010
          19 19 0 1 19 hvcurveto
          endchar
        </CharString>
        <CharString name="Eacute">
          231 9 60 -40 -21 272 63 325 92 -67 67 8 -20 80 -21 172 -20 hstemhm
          97 64 hintmask 1010100010000000
          356 9 rmoveto
          62 3 66 7 77 24 rrcurveto
          41 4 55 28 42 vvcurveto
          15 -9 23 -30 -25 -45 -50 0 vhcurveto
          -18 -29 -124 -18 -101 hhcurveto
          -35 -50 2 5 -18 hvcurveto
          -19 39 -7 56 -3 72 54 23 63 12 69 2 rrcurveto
          0 8 -5 10 20 18 11 22 27 -24 8 -24 -68 -64 -13 -22 -63 vhcurveto
          1 121 9 127 11 89 rrcurveto
          37 112 99 11 64 hhcurveto
          39 37 -2 -2 8 hvcurveto
          hintmask 1011000010000000
          0 26 -21 27 31 14 19 26 36 -61 11 -54 -71 -126 -1 -40 -135 vhcurveto
          1 1 4 15 vvcurveto
          hintmask 0110010010000000
          15 -12 14 -17 -27 -5 -36 -26 -4 vhcurveto
          -1 -11 rlineto
          0 -127 -49 -31 vvcurveto
          -15 13 -18 13 2 1 0 1 2 vhcurveto
          25 10 11 12 51 21 rrcurveto
          -15 -135 -6 -114 -85 vvcurveto
          -136 24 -123 43 -17 vhcurveto
          -6 45 44 -2 46 hhcurveto
          hintmask 1011000010000000
          19 19 0 1 19 hvcurveto
          hintmask 0000001100000000
          80 951 rmoveto
          -29 -58 -36 -29 -36 -13 rrcurveto
          -11 -4 -8 -11 -13 vvcurveto
          -18 14 -7 13 3 4 0 1 5 vhcurveto
          71 18 43 51 29 51 rrcurveto
          3 5 1 6 5 vvcurveto
          20 -18 15 -15 -12 -11 -5 -14 -10 vhcurveto
          endchar
        </CharString>
        <CharString name="Ecircumflex">
          231 9 60 -40 -21 272 63 325 92 -67 67 8 -20 60 -21 148 -20 hstemhm
          97 64 hintmask 1010100010000000
          356 9 rmoveto
          62 3 66 7 77 24 rrcurveto
          41 4 55 28 42 vvcurveto
          15 -9 23 -30 -25 -45 -50 0 vhcurveto
          -18 -29 -124 -18 -101 hhcurveto
          -35 -50 2 5 -18 hvcurveto
          -19 39 -7 56 -3 72 54 23 63 12 69 2 rrcurveto
          0 8 -5 10 20 18 11 22 27 -24 8 -24 -68 -64 -13 -22 -63 vhcurveto
          1 121 9 127 11 89 rrcurveto
          37 112 99 11 64 hhcurveto
          39 37 -2 -2 8 hvcurveto
          hintmask 1011000010000000
          0 26 -21 27 31 14 19 26 36 -61 11 -54 -71 -126 -1 -40 -135 vhcurveto
          1 1 4 15 vvcurveto
          hintmask 0110010010000000
          15 -12 14 -17 -27 -5 -36 -26 -4 vhcurveto
          -1 -11 rlineto
          0 -127 -49 -31 vvcurveto
          -15 13 -18 13 2 1 0 1 2 vhcurveto
          25 10 11 12 51 21 rrcurveto
          -15 -135 -6 -114 -85 vvcurveto
          -136 24 -123 43 -17 vhcurveto
          -6 45 44 -2 46 hhcurveto
          hintmask 1011000010000000
          19 19 0 1 19 hvcurveto
          hintmask 0000001100000000
          -76 782 rmoveto
          35 26 35 27 33 27 rrcurveto
          -25 24 47 -57 25 hhcurveto
          17 11 10 14 6 -3 7 -4 4 hvcurveto
          -29 31 -32 34 -30 30 rrcurveto
          6 -7 -8 4 -8 hhcurveto
          -5 -8 -2 -5 -7 hvcurveto
          -40 -32 -42 -32 -39 -33 rrcurveto
          -7 -6 -2 -8 -6 vvcurveto
          -13 12 -11 16 4 6 1 3 6 vhcurveto
          endchar
        </CharString>
        <CharString name="Edieresis">
          231 9 60 -40 -21 272 63 325 92 -67 67 8 -20 53 111 hstemhm
          97 64 93 91 46 91 hintmask 1010100100000000
          356 9 rmoveto
          62 3 66 7 77 24 rrcurveto
          41 4 55 28 42 vvcurveto
          15 -9 23 -30 -25 -45 -50 0 vhcurveto
          -18 -29 -124 -18 -101 hhcurveto
          -35 -50 2 5 -18 hvcurveto
          -19 39 -7 56 -3 72 54 23 63 12 69 2 rrcurveto
          0 8 -5 10 20 18 11 22 27 -24 8 -24 -68 -64 -13 -22 -63 vhcurveto
          1 121 9 127 11 89 rrcurveto
          37 112 99 11 64 hhcurveto
          39 37 -2 -2 8 hvcurveto
          hintmask 1011000100000000
          0 26 -21 27 31 14 19 26 36 -61 11 -54 -71 -126 -1 -40 -135 vhcurveto
          1 1 4 15 vvcurveto
          hintmask 0110010100000000
          15 -12 14 -17 -27 -5 -36 -26 -4 vhcurveto
          -1 -11 rlineto
          0 -127 -49 -31 vvcurveto
          -15 13 -18 13 2 1 0 1 2 vhcurveto
          25 10 11 12 51 21 rrcurveto
          -15 -135 -6 -114 -85 vvcurveto
          -136 24 -123 43 -17 vhcurveto
          -6 45 44 -2 46 hhcurveto
          hintmask 1011000100000000
          19 19 0 1 19 hvcurveto
          hintmask 0000001011000000
          -102 847 rmoveto
          -31 20 -24 25 25 21 24 31 31 -21 25 -25 -25 -20 -25 -31 vhcurveto
          137 hmoveto
          -31 20 -24 25 25 21 24 31 31 -21 25 -25 -25 -20 -25 -31 vhcurveto
          endchar
        </CharString>
        <CharString name="Egrave">
          231 9 60 -40 -21 272 63 325 92 -67 67 8 -20 73 -21 172 -20 hstemhm
          97 64 hintmask 1010100010000000
          356 9 rmoveto
          62 3 66 7 77 24 rrcurveto
          41 4 55 28 42 vvcurveto
          15 -9 23 -30 -25 -45 -50 0 vhcurveto
          -18 -29 -124 -18 -101 hhcurveto
          -35 -50 2 5 -18 hvcurveto
          -19 39 -7 56 -3 72 54 23 63 12 69 2 rrcurveto
          0 8 -5 10 20 18 11 22 27 -24 8 -24 -68 -64 -13 -22 -63 vhcurveto
          1 121 9 127 11 89 rrcurveto
          37 112 99 11 64 hhcurveto
          39 37 -2 -2 8 hvcurveto
          hintmask 1011000010000000
          0 26 -21 27 31 14 19 26 36 -61 11 -54 -71 -126 -1 -40 -135 vhcurveto
          1 1 4 15 vvcurveto
          hintmask 0110010010000000
          15 -12 14 -17 -27 -5 -36 -26 -4 vhcurveto
          -1 -11 rlineto
          0 -127 -49 -31 vvcurveto
          -15 13 -18 13 2 1 0 1 2 vhcurveto
          25 10 11 12 51 21 rrcurveto
          -15 -135 -6 -114 -85 vvcurveto
          -136 24 -123 43 -17 vhcurveto
          -6 45 44 -2 46 hhcurveto
          hintmask 1011000010000000
          19 19 0 1 19 hvcurveto
          hintmask 0000001100000000
          -42 944 rmoveto
          14 -10 -11 5 -12 hhcurveto
          -15 -18 -15 -20 -5 1 -6 3 -5 hvcurveto
          29 -51 43 -51 71 -18 rrcurveto
          -1 5 4 0 3 hhcurveto
          13 14 7 18 13 -8 11 -11 4 hvcurveto
          -36 13 -36 29 -29 58 rrcurveto
          endchar
        </CharString>
        <CharString name="Eth">
          244 12 -21 342 91 265 62 -62 106 hstemhm
          15 155 -63 63 435 62 hintmask 11101010
          43 345 rmoveto
          30 14 9 4 17 hvcurveto
          -60 vlineto
          -60 0 -90 6 -64 vhcurveto
          -8 1 -7 1 -7 1 -1 14 -12 13 -21 2 rrcurveto
          -34 -1 -5 -25 -15 vvcurveto
          -48 63 -6 41 -1 vhcurveto
          -17 6 11 -12 20 hhcurveto
          19 16 13 19 4 hvcurveto
          34 4 23 6 27 8 rrcurveto
          185 57 203 162 195 vvcurveto
          216 -193 80 -182 -18 -18 -1 -1 -18 vhcurveto
          1 4 0 4 4 vvcurveto
          hintmask 11010110
          24 -20 10 -16 -15 -7 -7 -6 -6 vhcurveto
          -5 -5 -7 -14 -7 -21 -51 -6 -57 -14 -34 -24 rrcurveto
          -10 -7 -4 -16 -9 vvcurveto
          -21 17 -15 20 22 16 16 14 2 vhcurveto
          20 7 21 6 22 4 -15 -69 -12 -70 -6 -115 rrcurveto
          -60 -2 -43 -11 -33 vvcurveto
          -15 16 -15 23 -2 vhcurveto
          256 344 rmoveto
          151 155 -72 -162 -170 -225 -182 -206 -20 hvcurveto
          -7 66 0 94 62 vvcurveto
          56 vlineto
          52 -1 45 -1 16 -6 rrcurveto
          0 24 -20 42 41 2 23 8 27 -17 33 -168 vhcurveto
          -34 hlineto
          8 128 16 72 15 62 rrcurveto
          2 32 31 1 27 hhcurveto
          endchar
        </CharString>
        <CharString name="Euro">
          209 -17 64 178 63 51 63 205 63 hstemhm
          491 77 -65 65 hintmask 11110100
          39 319 rmoveto
          11 3 12 3 13 3 rrcurveto
          -2 -17 -1 -17 -17 vvcurveto
          -21 -1 -51 -6 -34 vvcurveto
          -16 14 -15 21 vhcurveto
          4 hlineto
          12 4 12 3 13 2 rrcurveto
          -160 24 117 -71 109 hhcurveto
          127 101 71 73 40 hvcurveto
          6 11 2 11 7 vvcurveto
          21 -17 18 -23 -43 -9 -60 -13 -1 vhcurveto
          -37 -42 -69 -38 -72 hhcurveto
          -83 -84 54 120 -20 hvcurveto
          -1 92 4 19 hhcurveto
          41 63 -4 -6 41 hvcurveto
          22 2 12 14 15 vvcurveto
          12 -7 12 -16 7 vhcurveto
          7 -45 -66 4 -46 hhcurveto
          -21 -72 -3 -2 -20 hvcurveto
          18 2 17 2 17 vhcurveto
          1 1 90 3 19 hhcurveto
          41 63 -4 -6 41 hvcurveto
          22 2 12 14 15 vvcurveto
          12 -7 12 -16 7 vhcurveto
          7 -45 -66 4 -46 hhcurveto
          -15 -65 -2 -1 -14 hvcurveto
          115 37 87 93 108 hhcurveto
          73 42 -36 -77 2 hvcurveto
          -5 -6 rlineto
          hintmask 11111000
          -3 -4 -4 -9 -13 vvcurveto
          -31 13 -15 27 9 28 4 51 128 -61 71 -121 -146 -114 -124 -153 -39 vhcurveto
          -26 -1 -61 -8 -34 vvcurveto
          -16 14 -15 21 vhcurveto
          endchar
        </CharString>
        <CharString name="F">
          66 11 -21 290 63 325 92 -67 67 hstemhm
          88 63 -37 79 hintmask 11101000
          118 626 rmoveto
          -8 -50 -22 -152 -107 vvcurveto
          -100 9 -227 61 vhcurveto
          hintmask 11100100
          20 15 13 22 15 -7 15 -11 11 hvcurveto
          -1 1 -11 32 -7 74 -3 66 rlinecurve
          62 28 61 11 72 2 rrcurveto
          0 8 -5 10 20 18 11 22 27 -24 8 -24 vhcurveto
          hintmask 11011000
          -72 -67 -14 -25 -66 hvcurveto
          122 21 172 10 47 vhcurveto
          37 112 99 11 64 hhcurveto
          39 37 -2 -2 8 hvcurveto
          hintmask 11100100
          0 26 -21 27 31 14 19 26 36 -61 11 -54 -71 -126 -1 -40 -135 vhcurveto
          26 -2 -15 11 -21 hhcurveto
          -23 -17 -32 -32 hvcurveto
          0 -114 -46 -31 vvcurveto
          -15 13 -18 13 2 1 0 1 2 vhcurveto
          25 10 11 12 51 21 rrcurveto
          endchar
        </CharString>
        <CharString name="G">
          276 -12 63 149 82 -63 63 103 80 236 63 hstemhm
          18 63 433 63 hintmask 11011110
          299 -12 rmoveto
          80 100 29 110 53 hvcurveto
          -21 7 36 -97 49 hhcurveto
          18 17 15 20 22 -17 23 -23 hvcurveto
          -2 1 -22 30 -11 57 -4 39 rlinecurve
          7 hlineto
          -8 6 9 -8 12 hhcurveto
          32 6 27 12 42 -60 1 -48 hvcurveto
          -17 hlineto
          -105 -99 -22 -8 -28 hvcurveto
          1 hlineto
          -24 -8 -12 -14 -16 vvcurveto
          -19 13 -19 22 -1 vhcurveto
          16 11 12 10 5 hvcurveto
          hintmask 10111110
          32 9 78 12 76 1 rrcurveto
          -134 -53 -79 -34 -77 hhcurveto
          -110 -113 83 186 191 126 190 166 88 53 -47 -87 -72 -72 -44 -25 -2 hvcurveto
          -4 hlineto
          8 -7 -7 8 -21 hhcurveto
          -27 -15 -14 -24 -12 0 -30 70 40 131 48 134 125 -80 72 -124 -205 -150 -221 -225 -228 147 -102 139 hvcurveto
          endchar
        </CharString>
        <CharString name="H">
          493 17 -21 213 62 428 63 hstemhm
          0 82 279 63 296 65 -65 196 hintmask 11111100
          888 258 rmoveto
          -35 4 -36 3 -32 2 1 136 24 160 17 48 rrcurveto
          24 25 10 34 20 vvcurveto
          26 -16 19 -22 -69 -29 -310 -154 -5 vhcurveto
          5 -78 -65 2 -60 hhcurveto
          -35 -31 -1 -1 -29 hvcurveto
          2 31 0 26 30 vvcurveto
          127 -7 272 -202 -165 -50 -229 -68 -56 40 1 1 25 16 22 27 11 -2 19 -11 12 vhcurveto
          70 12 41 128 93 hhcurveto
          145 1 -259 -70 -39 0 -29 -2 -29 hvcurveto
          -75 -7 -30 -1 -42 -10 rrcurveto
          -25 -5 -30 -14 -31 vvcurveto
          -19 17 -14 18 21 24 15 9 9 vhcurveto
          0 61 10 47 3 vhcurveto
          -5 -45 -8 -46 -9 -29 rrcurveto
          -31 -11 -9 -29 -14 vvcurveto
          -24 16 -15 22 52 25 97 119 11 vhcurveto
          2 31 31 1 39 hhcurveto
          58 67 -2 -6 77 hvcurveto
          -191 30 -11 26 19 17 16 24 11 -6 35 -16 17 vhcurveto
          -2 21 -2 22 -2 37 rrcurveto
          16 vlineto
          22 -1 20 -3 19 -2 rrcurveto
          -2 14 16 -1 9 hhcurveto
          hintmask 11111010
          19 12 15 18 16 -12 12 -16 2 hvcurveto
          endchar
        </CharString>
        <CharString name="I">
          -233 21 -21 767 -20 hstemhm
          30 63 -63 87 -52 95 hintmask 11010000
          117 40 rmoveto
          26 -9 15 -10 12 vhcurveto
          hintmask 11100000
          -2 17 -3 90 25 vvcurveto
          126 20 149 19 135 vhcurveto
          hintmask 11001000
          11 20 17 32 37 vvcurveto
          41 -32 2 -10 -17 -33 -7 -99 -3 vhcurveto
          -5 vlineto
          hintmask 11100000
          -15 -127 -20 -173 -130 vvcurveto
          -63 vlineto
          -88 7 -75 43 vhcurveto
          hintmask 11010000
          16 20 16 24 1 hvcurveto
          endchar
        </CharString>
        <CharString name="Iacute">
          -233 21 -21 767 -20 86 -21 172 -20 hstemhm
          30 63 -63 87 -52 95 hintmask 11000100
          117 40 rmoveto
          26 -9 15 -10 12 vhcurveto
          hintmask 11001000
          -2 17 -3 90 25 vvcurveto
          126 20 149 19 135 vhcurveto
          hintmask 11000010
          11 20 17 32 37 vvcurveto
          41 -32 2 -10 -17 -33 -7 -99 -3 vhcurveto
          -5 vlineto
          hintmask 11001000
          -15 -127 -20 -173 -130 vvcurveto
          -63 vlineto
          -88 7 -75 43 vhcurveto
          hintmask 11000100
          16 20 16 24 1 hvcurveto
          hintmask 00110000
          85 925 rmoveto
          -29 -58 -36 -29 -36 -13 rrcurveto
          -11 -4 -8 -11 -13 vvcurveto
          -18 14 -7 13 3 4 0 1 5 vhcurveto
          71 18 43 51 29 51 rrcurveto
          3 5 1 6 5 vvcurveto
          20 -18 15 -15 -12 -11 -5 -14 -10 vhcurveto
          endchar
        </CharString>
        <CharString name="Icircumflex">
          -233 21 -21 767 -20 64 -21 148 -20 hstemhm
          30 63 -63 87 -52 95 hintmask 11000100
          117 40 rmoveto
          26 -9 15 -10 12 vhcurveto
          hintmask 11001000
          -2 17 -3 90 25 vvcurveto
          126 20 149 19 135 vhcurveto
          hintmask 11000010
          11 20 17 32 37 vvcurveto
          41 -32 2 -10 -17 -33 -7 -99 -3 vhcurveto
          -5 vlineto
          hintmask 11001000
          -15 -127 -20 -173 -130 vvcurveto
          -63 vlineto
          -88 7 -75 43 vhcurveto
          hintmask 11000100
          16 20 16 24 1 hvcurveto
          hintmask 00110000
          -94 754 rmoveto
          35 26 35 27 33 27 rrcurveto
          -25 24 47 -57 25 hhcurveto
          17 11 10 14 6 -3 7 -4 4 hvcurveto
          -29 31 -32 34 -30 30 rrcurveto
          6 -7 -8 4 -8 hhcurveto
          -5 -8 -2 -5 -7 hvcurveto
          -40 -32 -42 -32 -39 -33 rrcurveto
          -7 -6 -2 -8 -6 vvcurveto
          -13 12 -11 16 4 6 1 3 6 vhcurveto
          endchar
        </CharString>
        <CharString name="Idieresis">
          -233 21 -21 767 -20 58 111 hstemhm
          10 91 -71 63 -63 87 -52 95 -13 91 hintmask 11000100
          117 40 rmoveto
          26 -9 15 -10 12 vhcurveto
          hintmask 11001000
          -2 17 -3 90 25 vvcurveto
          126 20 149 19 135 vhcurveto
          hintmask 11000010
          11 20 17 32 37 vvcurveto
          41 -32 2 -10 -17 -33 -7 -99 -3 vhcurveto
          -5 vlineto
          hintmask 11001000
          -15 -127 -20 -173 -130 vvcurveto
          -63 vlineto
          -88 7 -75 43 vhcurveto
          hintmask 11000100
          16 20 16 24 1 hvcurveto
          hintmask 00110001
          -107 820 rmoveto
          -31 20 -24 25 25 21 24 31 31 -21 25 -25 -25 -20 -25 -31 vhcurveto
          137 hmoveto
          -31 20 -24 25 25 21 24 31 31 -21 25 -25 -25 -20 -25 -31 vhcurveto
          endchar
        </CharString>
        <CharString name="Igrave">
          -233 21 -21 767 -20 82 -21 172 -20 hstemhm
          30 63 -63 87 -52 95 hintmask 11000100
          117 40 rmoveto
          26 -9 15 -10 12 vhcurveto
          hintmask 11001000
          -2 17 -3 90 25 vvcurveto
          126 20 149 19 135 vhcurveto
          hintmask 11000010
          11 20 17 32 37 vvcurveto
          41 -32 2 -10 -17 -33 -7 -99 -3 vhcurveto
          -5 vlineto
          hintmask 11001000
          -15 -127 -20 -173 -130 vvcurveto
          -63 vlineto
          -88 7 -75 43 vhcurveto
          hintmask 11000100
          16 20 16 24 1 hvcurveto
          hintmask 00110000
          -70 921 rmoveto
          14 -10 -11 5 -12 hhcurveto
          -15 -18 -15 -20 -5 1 -6 3 -5 hvcurveto
          29 -51 43 -51 71 -18 rrcurveto
          -1 5 4 0 3 hhcurveto
          13 14 7 18 13 -8 11 -11 4 hvcurveto
          -36 13 -36 29 -29 58 rrcurveto
          endchar
        </CharString>
        <CharString name="J">
          71 -4 63 636 77 -1 -20 hstemhm
          0 82 279 63 hintmask 11011000
          218 740 rmoveto
          -38 -13 -37 -14 -38 -18 rrcurveto
          -14 -6 -8 -12 -14 vvcurveto
          -20 14 -15 25 15 18 9 15 11 vhcurveto
          53 24 50 15 48 8 22 -32 6 -58 9 -60 rrcurveto
          2 -29 5 -93 -39 vvcurveto
          -70 -1 -259 -145 -93 -41 128 70 -12 vhcurveto
          11 12 2 19 11 vvcurveto
          27 -16 22 -25 -1 -40 1 -56 -68 50 -229 165 202 7 272 127 30 -4 90 -3 31 vhcurveto
          -6 64 -9 58 -16 39 rrcurveto
          0 33 2 17 18 18 0 -1 18 vhcurveto
          -7 9 15 -6 12 hhcurveto
          28 20 19 20 hvcurveto
          hintmask 10111000
          19 -20 18 -27 -4 -3 0 -1 -4 vhcurveto
          hintmask 11011000
          1 -27 -27 1 -26 hhcurveto
          -75 -71 -11 -21 -72 hvcurveto
          endchar
        </CharString>
        <CharString name="K">
          87 -21 62 -29 -21 804 -20 hstemhm
          41 65 hintmask 10110000
          104 284 rmoveto
          -129 115 175 -176 88 hhcurveto
          24 12 14 18 19 -15 13 -16 -7 -4 -2 0 hvcurveto
          -40 -144 128 162 -144 hvcurveto
          146 81 197 188 43 53 rrcurveto
          7 10 4 10 13 vvcurveto
          15 -13 18 -19 -22 -24 -25 -27 -7 vhcurveto
          -95 -94 -144 -132 -115 -62 8 153 24 117 16 59 rrcurveto
          18 14 6 20 19 vvcurveto
          24 -20 10 -16 vhcurveto
          -5 hlineto
          -9 -1 -7 -5 -7 -7 rrcurveto
          -24 -24 -49 -206 -281 vvcurveto
          -69 4 -74 7 -75 vhcurveto
          hintmask 01110000
          -30 3 8 -32 32 hhcurveto
          23 17 18 25 8 -3 35 -20 16 hvcurveto
          -6 64 -2 62 59 vvcurveto
          endchar
        </CharString>
        <CharString name="L">
          46 3 -21 65 63 612 63 hstemhm
          65 63 243 63 -36 71 hintmask 11111000
          306 110 rmoveto
          -59 -58 -9 -12 -48 hvcurveto
          -8 41 -5 76 64 vvcurveto
          289 77 163 97 57 12 -73 -57 -57 -11 -15 -8 -11 vhcurveto
          -8 -10 -4 -10 -12 vvcurveto
          -18 15 -12 20 26 33 25 120 83 -24 110 -108 -149 -88 -206 -309 -72 11 -88 7 -43 vhcurveto
          -36 -14 -47 -25 -25 vvcurveto
          -19 13 -13 15 10 14 7 6 12 vhcurveto
          23 13 6 3 4 2 rrcurveto
          -13 5 8 -7 16 hhcurveto
          19 13 16 17 hvcurveto
          -1 9 rlineto
          hintmask 11110100
          14 45 52 9 52 hhcurveto
          56 25 -13 -11 12 hvcurveto
          -1 -2 0 -4 -4 vvcurveto
          -18 13 -19 22 15 21 11 28 8 -2 10 -5 9 vhcurveto
          hintmask 11111000
          20 -10 -37 48 -109 hhcurveto
          endchar
        </CharString>
        <CharString name="Lslash">
          71 -29 139 -107 -21 65 63 257 79 276 63 hstemhm
          0 153 -63 63 243 63 hintmask 01111011
          52 274 rmoveto
          19 8 9 11 10 9 rrcurveto
          -32 vlineto
          -72 11 -88 7 -43 vhcurveto
          -36 -14 -47 -25 -25 vvcurveto
          hintmask 10011101
          -19 13 -13 15 10 15 7 6 11 vhcurveto
          23 12 6 4 4 2 rrcurveto
          hintmask 01111101
          -13 5 8 -7 16 hhcurveto
          19 13 16 17 hvcurveto
          -1 9 rlineto
          14 45 52 9 52 hhcurveto
          56 25 -13 -11 12 hvcurveto
          -1 -2 0 -4 -4 vvcurveto
          -18 13 -19 22 15 21 11 28 8 -2 10 -5 9 vhcurveto
          20 -10 -37 48 -109 hhcurveto
          -59 -58 -9 -12 -48 hvcurveto
          -8 41 -5 76 64 vvcurveto
          24 1 24 1 23 vhcurveto
          31 15 29 12 17 1 rrcurveto
          0 7 -2 12 32 46 21 24 16 -11 18 -31 -24 -39 -9 -24 -64 vhcurveto
          199 21 66 110 80 hhcurveto
          57 12 -73 -57 -57 -11 -15 -8 -11 hvcurveto
          -8 -10 -4 -10 -12 vvcurveto
          -18 15 -12 20 26 33 25 120 83 -24 110 -108 -130 -83 -156 -244 -20 vhcurveto
          -82 -39 -12 -26 -20 vvcurveto
          -17 11 -12 22 6 6 1 2 7 vhcurveto
          endchar
        </CharString>
        <CharString name="M">
          639 12 -21 364 64 -64 91 259 63 hstemhm
          0 63 262 61 549 78 -64 64 hintmask 10111110
          982 664 rmoveto
          34 12 7 32 10 vvcurveto
          21 -16 15 -21 -30 -17 -38 -61 -40 vhcurveto
          -16 -25 -208 -305 -17 -26 rrcurveto
          389 -148 -169 80 -121 hhcurveto
          -149 -71 -125 -95 -111 74 -82 96 54 24 33 22 22 -19 14 -20 hvcurveto
          hintmask 11011101
          -26 -10 -27 -3 hhcurveto
          -69 -38 65 61 64 43 96 114 33 35 -9 -20 37 hvcurveto
          -7 -189 -10 -268 -6 -124 rrcurveto
          -7 -22 -6 -22 -14 vvcurveto
          -26 13 -20 24 19 14 13 20 3 vhcurveto
          3 15 12 391 9 202 71 -65 83 -130 73 -198 rrcurveto
          -28 10 4 -12 24 hhcurveto
          10 9 3 10 7 hvcurveto
          52 78 101 153 77 113 17 -162 18 -200 7 -95 rrcurveto
          hintmask 10111110
          -10 -13 -4 -17 -10 vvcurveto
          -25 18 -21 21 21 18 4 41 44 -12 152 -37 384 vhcurveto
          endchar
        </CharString>
        <CharString name="N">
          516 20 -21 408 63 -63 98 179 63 8 -20 hstemhm
          0 63 297 60 370 63 hintmask 11001111
          867 41 rmoveto
          -3 25 -11 148 127 vvcurveto
          105 21 167 29 59 vhcurveto
          20 8 9 13 22 vvcurveto
          35 -26 5 -16 -78 -22 -345 -69 -69 3 -97 4 -51 vhcurveto
          hintmask 10110111
          322 -258 -184 301 -181 hhcurveto
          -93 -81 -78 -111 -90 66 -61 67 41 49 26 39 17 -14 16 -19 -14 -24 -8 -24 -6 hvcurveto
          hintmask 11010111
          -2 -3 -6 -1 -4 hhcurveto
          -29 -41 27 60 89 60 38 53 58 62 -51 -61 64 hvcurveto
          -5 vlineto
          -125 -10 -232 -17 -105 vhcurveto
          -14 -20 -18 -18 -27 vvcurveto
          -15 8 -26 25 10 9 3 6 8 vhcurveto
          46 42 10 327 3 132 307 -409 67 -62 22 -29 rrcurveto
          -4 4 7 -3 10 hhcurveto
          17 14 13 17 hvcurveto
          endchar
        </CharString>
        <CharString name="Ntilde">
          516 20 -21 408 63 -63 98 179 63 8 -20 34 124 -105 -21 128 -20 hstemhm
          0 63 297 60 370 63 hintmask 1100100011100000
          867 41 rmoveto
          -3 25 -11 148 127 vvcurveto
          105 21 167 29 59 vhcurveto
          20 8 9 13 22 vvcurveto
          35 -26 5 -16 -78 -22 -345 -69 -69 3 -97 4 -51 vhcurveto
          hintmask 1011000011100000
          322 -258 -184 301 -181 hhcurveto
          -93 -81 -78 -111 -90 66 -61 67 41 49 26 39 17 -14 16 -19 -14 -24 -8 -24 -6 hvcurveto
          hintmask 1101000011100000
          -2 -3 -6 -1 -4 hhcurveto
          -29 -41 27 60 89 60 38 53 58 62 -51 -61 64 hvcurveto
          -5 vlineto
          -125 -10 -232 -17 -105 vhcurveto
          -14 -20 -18 -18 -27 vvcurveto
          -15 8 -26 25 10 9 3 6 8 vhcurveto
          46 42 10 327 3 132 307 -409 67 -62 22 -29 rrcurveto
          -4 4 7 -3 10 hhcurveto
          17 14 13 17 hvcurveto
          hintmask 0000010000000000
          -346 759 rmoveto
          31 12 11 9 9 hhcurveto
          -1 28 40 -61 50 hhcurveto
          34 40 21 72 18 hvcurveto
          5 vlineto
          hintmask 0000001100000000
          17 -14 11 -17 -11 -12 -8 -16 -6 vhcurveto
          -31 -12 -11 -9 -9 hhcurveto
          hintmask 0000010000000000
          1 -27 -40 61 -51 hhcurveto
          -31 -46 -21 -72 -15 hvcurveto
          -1 -6 rlineto
          hintmask 0000001100000000
          -18 17 -9 15 11 12 8 16 6 vhcurveto
          endchar
        </CharString>
        <CharString name="O">
          246 -10 63 628 63 24 -20 hstem
          0 63 543 63 vstem
          229 761 rmoveto
          -140 -117 -89 -163 -182 vvcurveto
          -177 92 -132 158 240 179 273 225 129 -68 127 -140 -103 -85 -59 -87 -54 vhcurveto
          -1 -5 -1 -4 -5 vvcurveto
          -18 13 -13 17 8 9 4 7 8 vhcurveto
          69 34 78 48 78 hhcurveto
          78 66 -57 -138 -199 -156 -234 -201 -122 -64 102 141 164 77 146 127 106 hvcurveto
          9 8 4 10 8 vvcurveto
          16 -13 14 -17 -6 -8 -2 -5 -7 vhcurveto
          endchar
        </CharString>
        <CharString name="OE">
          733 -10 63 -44 60 211 63 325 92 -79 63 -51 67 8 -20 hstemhm
          0 63 543 57 hintmask 0110010110000000
          858 9 rmoveto
          62 3 66 7 77 24 rrcurveto
          41 4 55 28 42 vvcurveto
          15 -9 23 -30 -25 -45 -50 0 vhcurveto
          -18 -29 -124 -18 -101 hhcurveto
          -35 -50 2 5 -18 hvcurveto
          -19 39 -7 56 -3 72 54 23 63 12 69 2 rrcurveto
          0 8 -5 10 20 18 11 22 27 -24 8 -24 -68 -64 -13 -22 -63 vhcurveto
          1 121 9 127 11 89 rrcurveto
          37 112 99 11 64 hhcurveto
          39 37 -2 -2 8 hvcurveto
          hintmask 1011000110000000
          0 26 -21 27 31 14 19 26 36 -61 11 -54 -71 -126 -1 -40 -135 vhcurveto
          1 1 4 15 vvcurveto
          hintmask 1010101110000000
          15 -12 14 -17 -27 -5 -36 -26 -4 vhcurveto
          -1 -11 rlineto
          0 -12 -4 -15 -7 vhcurveto
          37 -34 -47 23 -60 hhcurveto
          -103 -85 -59 -87 -54 hvcurveto
          -1 -5 -1 -4 -5 vvcurveto
          -18 13 -13 17 8 9 4 7 8 vhcurveto
          69 34 78 48 78 hhcurveto
          83 61 -65 -130 -199 -157 -234 -200 -122 -64 102 141 164 77 146 127 106 hvcurveto
          9 8 4 10 8 vvcurveto
          16 -13 14 -17 -6 -8 -2 -5 -7 vhcurveto
          -140 -117 -89 -163 -182 vvcurveto
          -177 92 -132 158 150 127 107 136 73 vhcurveto
          6 -111 23 -92 37 -14 rrcurveto
          -6 45 44 -2 46 hhcurveto
          hintmask 0111000110000000
          19 19 0 1 19 hvcurveto
          endchar
        </CharString>
        <CharString name="Oacute">
          246 -10 63 628 63 24 -20 73 -21 172 -20 hstemhm
          0 63 543 63 hintmask 11100110
          229 761 rmoveto
          -140 -117 -89 -163 -182 vvcurveto
          -177 92 -132 158 240 179 273 225 129 -68 127 -140 -103 -85 -59 -87 -54 vhcurveto
          -1 -5 -1 -4 -5 vvcurveto
          -18 13 -13 17 8 9 4 7 8 vhcurveto
          69 34 78 48 78 hhcurveto
          78 66 -57 -138 -199 -156 -234 -201 -122 -64 102 141 164 77 146 127 106 hvcurveto
          9 8 4 10 8 vvcurveto
          16 -13 14 -17 -6 -8 -2 -5 -7 vhcurveto
          hintmask 00011000
          254 192 rmoveto
          -29 -58 -36 -29 -36 -13 rrcurveto
          -11 -4 -8 -11 -13 vvcurveto
          -18 14 -7 13 3 4 0 1 5 vhcurveto
          71 18 43 51 29 51 rrcurveto
          3 5 1 6 5 vvcurveto
          20 -18 15 -15 -12 -11 -5 -14 -10 vhcurveto
          endchar
        </CharString>
        <CharString name="Ocircumflex">
          246 -10 63 628 63 24 -20 70 -21 148 -20 hstemhm
          0 63 543 63 hintmask 11100110
          229 761 rmoveto
          -140 -117 -89 -163 -182 vvcurveto
          -177 92 -132 158 240 179 273 225 129 -68 127 -140 -103 -85 -59 -87 -54 vhcurveto
          -1 -5 -1 -4 -5 vvcurveto
          -18 13 -13 17 8 9 4 7 8 vhcurveto
          69 34 78 48 78 hhcurveto
          78 66 -57 -138 -199 -156 -234 -201 -122 -64 102 141 164 77 146 127 106 hvcurveto
          9 8 4 10 8 vvcurveto
          16 -13 14 -17 -6 -8 -2 -5 -7 vhcurveto
          hintmask 00011000
          92 40 rmoveto
          35 26 35 27 33 27 rrcurveto
          -25 24 47 -57 25 hhcurveto
          17 11 10 14 6 -3 7 -4 4 hvcurveto
          -29 31 -32 34 -30 30 rrcurveto
          6 -7 -8 4 -8 hhcurveto
          -5 -8 -2 -5 -7 hvcurveto
          -40 -32 -42 -32 -39 -33 rrcurveto
          -7 -6 -2 -8 -6 vvcurveto
          -13 12 -11 16 4 6 1 3 6 vhcurveto
          endchar
        </CharString>
        <CharString name="Odieresis">
          246 -10 63 628 63 24 -20 51 111 hstemhm
          0 63 212 91 46 91 103 63 hintmask 11101001
          229 761 rmoveto
          -140 -117 -89 -163 -182 vvcurveto
          -177 92 -132 158 240 179 273 225 129 -68 127 -140 -103 -85 -59 -87 -54 vhcurveto
          -1 -5 -1 -4 -5 vvcurveto
          -18 13 -13 17 8 9 4 7 8 vhcurveto
          69 34 78 48 78 hhcurveto
          78 66 -57 -138 -199 -156 -234 -201 -122 -64 102 141 164 77 146 127 106 hvcurveto
          9 8 4 10 8 vvcurveto
          16 -13 14 -17 -6 -8 -2 -5 -7 vhcurveto
          hintmask 00010110
          46 93 rmoveto
          -31 20 -24 25 25 21 24 31 31 -21 25 -25 -25 -20 -25 -31 vhcurveto
          137 hmoveto
          -31 20 -24 25 25 21 24 31 31 -21 25 -25 -25 -20 -25 -31 vhcurveto
          endchar
        </CharString>
        <CharString name="Ograve">
          246 -10 63 628 63 24 -20 71 -21 172 -20 hstemhm
          0 63 543 63 hintmask 11100110
          229 761 rmoveto
          -140 -117 -89 -163 -182 vvcurveto
          -177 92 -132 158 240 179 273 225 129 -68 127 -140 -103 -85 -59 -87 -54 vhcurveto
          -1 -5 -1 -4 -5 vvcurveto
          -18 13 -13 17 8 9 4 7 8 vhcurveto
          69 34 78 48 78 hhcurveto
          78 66 -57 -138 -199 -156 -234 -201 -122 -64 102 141 164 77 146 127 106 hvcurveto
          9 8 4 10 8 vvcurveto
          16 -13 14 -17 -6 -8 -2 -5 -7 vhcurveto
          hintmask 00011000
          99 190 rmoveto
          14 -10 -11 5 -12 hhcurveto
          -15 -18 -15 -20 -5 1 -6 3 -5 hvcurveto
          29 -51 43 -51 71 -18 rrcurveto
          -1 5 4 0 3 hhcurveto
          13 14 7 18 13 -8 11 -11 4 hvcurveto
          -36 13 -36 29 -29 58 rrcurveto
          endchar
        </CharString>
        <CharString name="Omega">
          273 -24 62 -62 177 482 65 hstemhm
          24 63 518 63 hintmask 01111000
          292 81 rmoveto
          -100 76 -105 129 115 vvcurveto
          142 102 92 162 154 100 -119 -115 -115 -103 -131 -102 -74 vhcurveto
          -4 -7 -1 -7 -6 vvcurveto
          -31 35 -1 20 17 30 -11 -13 16 vhcurveto
          -13 23 36 -16 32 hhcurveto
          39 26 28 50 hvcurveto
          33 vlineto
          10 2 11 1 10 vhcurveto
          22 -15 13 -16 -18 -14 -12 -35 vhcurveto
          -41 vlineto
          hintmask 10111000
          -16 0 -11 -11 -14 -25 14 2 -3 vhcurveto
          -23 11 -19 10 -20 7 rrcurveto
          85 72 89 132 114 vvcurveto
          204 -171 96 -148 -162 -163 -85 -215 -114 89 -132 85 -72 vhcurveto
          -20 -7 -19 -10 -23 -11 rrcurveto
          -2 -3 -25 -14 -14 hhcurveto
          -11 0 11 16 hvcurveto
          41 vlineto
          hintmask 01111000
          35 -14 12 -18 -16 -15 -13 -22 vhcurveto
          1 -10 2 -11 -10 vvcurveto
          -33 vlineto
          -50 26 -28 39 32 36 16 13 23 vhcurveto
          5 4 25 14 10 3 rrcurveto
          12 4 66 -10 41 vvcurveto
          6 -1 7 -4 7 vhcurveto
          endchar
        </CharString>
        <CharString name="Oslash">
          246 -10 63 -54 -21 703 63 57 -20 hstemhm
          0 63 543 63 hintmask 01111100
          588 801 rmoveto
          -21 -21 -28 -27 -4 0 -4 1 -4 hvcurveto
          -1 -2 -1 -3 -2 -3 rrcurveto
          11 -24 -27 7 -31 hhcurveto
          -103 -85 -59 -87 -54 hvcurveto
          -1 -5 -1 -4 -5 vvcurveto
          -18 13 -13 17 8 9 4 7 8 vhcurveto
          69 34 78 48 78 hhcurveto
          18 17 -3 -6 16 hvcurveto
          -67 -117 -138 -224 -109 -123 -27 -30 -28 -31 -30 -31 rrcurveto
          -34 44 -17 62 74 vvcurveto
          164 77 146 127 106 vhcurveto
          9 8 4 10 8 vvcurveto
          16 -13 14 -17 -6 -8 -2 -5 -7 vhcurveto
          -140 -117 -89 -163 -182 vvcurveto
          -91 24 -79 45 -55 vhcurveto
          -24 -24 -21 -7 -7 hvcurveto
          -8 -9 -4 -11 -10 vvcurveto
          -19 18 -19 19 vhcurveto
          27 51 52 -1 hhcurveto
          hintmask 10111100
          -26 37 45 -14 52 hhcurveto
          240 179 273 225 77 -24 76 -50 49 hvcurveto
          19 40 11 25 10 vvcurveto
          15 -9 21 -28 vhcurveto
          18 -315 rmoveto
          -199 -156 -234 -201 -34 -29 8 14 -25 vhcurveto
          11 11 60 64 10 11 122 138 129 202 72 132 rrcurveto
          25 -32 16 -48 -67 vvcurveto
          endchar
        </CharString>
        <CharString name="Otilde">
          246 -10 63 628 63 24 -20 56 124 -105 -21 128 -20 hstemhm
          0 63 543 63 hintmask 11100011
          229 761 rmoveto
          -140 -117 -89 -163 -182 vvcurveto
          -177 92 -132 158 240 179 273 225 129 -68 127 -140 -103 -85 -59 -87 -54 vhcurveto
          -1 -5 -1 -4 -5 vvcurveto
          -18 13 -13 17 8 9 4 7 8 vhcurveto
          69 34 78 48 78 hhcurveto
          78 66 -57 -138 -199 -156 -234 -201 -122 -64 102 141 164 77 146 127 106 hvcurveto
          9 8 4 10 8 vvcurveto
          16 -13 14 -17 -6 -8 -2 -5 -7 vhcurveto
          hintmask 00010000
          98 65 rmoveto
          31 12 11 9 9 hhcurveto
          -1 28 40 -61 50 hhcurveto
          34 40 21 72 18 hvcurveto
          5 vlineto
          hintmask 00001100
          17 -14 11 -17 -11 -12 -8 -16 -6 vhcurveto
          -31 -12 -11 -9 -9 hhcurveto
          hintmask 00010000
          1 -27 -40 61 -51 hhcurveto
          -31 -46 -21 -72 -15 hvcurveto
          -1 -6 rlineto
          hintmask 00001100
          -18 17 -9 15 11 12 8 16 6 vhcurveto
          endchar
        </CharString>
        <CharString name="P">
          165 20 -21 236 69 -69 81 386 63 hstemhm
          85 63 -63 82 433 63 hintmask 11010110
          310 765 rmoveto
          -137 -85 -29 -24 -56 hvcurveto
          -23 -10 -9 -14 -15 vvcurveto
          -19 16 -19 25 16 13 11 14 6 vhcurveto
          8 3 15 5 10 3 rrcurveto
          -23 -169 -1 -252 -124 vvcurveto
          3 -87 rlineto
          -21 1 14 -19 23 hhcurveto
          23 18 19 26 hvcurveto
          hintmask 10111010
          28 -15 26 -4 6 vhcurveto
          137 vlineto
          -6 35 9 0 8 hhcurveto
          355 108 221 93 163 -205 53 -148 hvcurveto
          -79 -466 rmoveto
          2 2 -28 15 -23 hhcurveto
          -13 -11 -3 -3 -10 hvcurveto
          3 114 5 158 16 96 1 11 rcurveline
          7 38 51 6 48 hhcurveto
          111 179 -28 -124 hvcurveto
          hintmask 11011010
          -73 -93 -159 -202 -14 vhcurveto
          endchar
        </CharString>
        <CharString name="Q">
          296 -121 174 -79 79 -64 64 628 63 24 -20 hstemhm
          29 63 543 63 hintmask 00111110
          334 -36 rmoveto
          19 78 64 6 90 hhcurveto
          16 18 -1 -1 17 hvcurveto
          hintmask 01011110
          -7 9 15 -6 12 hhcurveto
          28 20 19 20 19 -20 18 -27 -4 -3 0 -1 -4 hvcurveto
          1 -27 -27 1 -26 hhcurveto
          -38 -32 -2 -2 -30 hvcurveto
          142 92 93 187 162 vvcurveto
          129 -68 127 -140 -103 -85 -59 -87 -54 vhcurveto
          -1 -5 -1 -4 -5 vvcurveto
          -18 13 -13 17 8 9 4 7 8 vhcurveto
          69 34 78 48 78 hhcurveto
          78 66 -57 -138 -199 -156 -234 -201 -122 -64 102 141 164 77 146 127 106 hvcurveto
          9 8 4 10 8 vvcurveto
          16 -13 14 -17 -6 -8 -2 -5 -7 vhcurveto
          -140 -117 -89 -163 -182 vvcurveto
          -149 65 -116 114 -34 vhcurveto
          -51 -13 -48 -16 -57 -25 rrcurveto
          -14 -6 -8 -12 -14 vvcurveto
          hintmask 10011110
          -20 14 -15 25 15 18 9 15 11 vhcurveto
          83 32 51 9 87 20 rrcurveto
          endchar
        </CharString>
        <CharString name="R">
          279 12 -21 29 -21 636 130 -63 63 hstemhm
          85 64 -64 82 433 63 hintmask 01100110
          685 81 rmoveto
          -9 -25 -8 -20 -6 hvcurveto
          -11 hlineto
          -46 24 -149 162 -49 30 rrcurveto
          194 76 79 111 93 vvcurveto
          163 -205 53 -148 -137 -85 -29 -24 -56 vhcurveto
          -23 -10 -9 -14 -15 vvcurveto
          -19 16 -19 25 16 13 11 14 6 vhcurveto
          8 3 15 5 10 3 rrcurveto
          -23 -169 -1 -252 -124 vvcurveto
          3 -87 rlineto
          -21 1 14 -19 23 hhcurveto
          23 18 19 26 28 -15 26 -4 6 hvcurveto
          137 vlineto
          -6 35 9 0 8 hhcurveto
          39 27 7 5 32 hvcurveto
          hintmask 10011010
          -36 114 134 -220 101 hhcurveto
          54 21 33 20 19 -17 18 -20 hvcurveto
          -380 232 rmoveto
          0 -59 34 -57 -13 -14 -2 -4 -13 vhcurveto
          3 114 4 127 16 96 1 11 rcurveline
          7 38 51 6 48 hhcurveto
          111 179 -28 -124 -73 -94 -126 -199 -38 hvcurveto
          endchar
        </CharString>
        <CharString name="S">
          107 -1 63 -63 178 531 63 hstemhm
          0 63 46 77 206 168 -153 63 27 63 hintmask 10111011
          385 771 rmoveto
          -171 -214 -147 -171 -119 120 -30 115 -28 hvcurveto
          105 -26 67 -19 -50 vvcurveto
          -62 -87 -57 -70 -44 -22 14 29 -9 vhcurveto
          9 7 2 17 8 vvcurveto
          hintmask 01111011
          31 -17 9 -19 -25 -16 -22 -35 -34 20 -87 119 110 112 87 99 95 -113 33 -107 25 vhcurveto
          -101 24 -86 29 61 vvcurveto
          134 182 122 139 59 54 -15 -60 -70 -38 -45 -14 -13 vhcurveto
          3 -5 -6 2 -5 hhcurveto
          hintmask 10111100
          -23 -14 -19 -21 -26 18 -14 22 59 69 108 94 87 -63 52 -112 hvcurveto
          endchar
        </CharString>
        <CharString name="Scaron">
          107 -1 63 -63 178 531 63 49 -21 148 -20 hstemhm
          0 63 46 77 206 168 -153 63 27 63 hintmask 1010011011000000
          385 771 rmoveto
          -171 -214 -147 -171 -119 120 -30 115 -28 hvcurveto
          105 -26 67 -19 -50 vvcurveto
          -62 -87 -57 -70 -44 -22 14 29 -9 vhcurveto
          9 7 2 17 8 vvcurveto
          hintmask 0110011011000000
          31 -17 9 -19 -25 -16 -22 -35 -34 20 -87 119 110 112 87 99 95 -113 33 -107 25 vhcurveto
          -101 24 -86 29 61 vvcurveto
          134 182 122 139 59 54 -15 -60 -70 -38 -45 -14 -13 vhcurveto
          3 -5 -6 2 -5 hhcurveto
          hintmask 1010011100000000
          -23 -14 -19 -21 -26 18 -14 22 59 69 108 94 87 -63 52 -112 hvcurveto
          hintmask 0001100000000000
          53 172 rmoveto
          -35 -26 -35 -27 -33 -27 rrcurveto
          25 -24 -47 57 -25 hhcurveto
          -17 -11 -10 -14 -6 3 -7 4 -4 hvcurveto
          29 -31 32 -34 30 -30 rrcurveto
          -6 7 8 -4 8 hhcurveto
          5 8 2 5 7 hvcurveto
          40 32 42 32 39 33 rrcurveto
          7 6 2 8 6 vvcurveto
          13 -12 11 -16 -4 -6 -1 -3 -6 vhcurveto
          endchar
        </CharString>
        <CharString name="T">
          279 23 -21 691 62 -62 90 hstemhm
          303 63 hintmask 11010000
          389 79 rmoveto
          -16 46 -7 135 69 vvcurveto
          109 27 187 10 47 vhcurveto
          15 86 33 6 90 hhcurveto
          16 18 -1 -1 17 hvcurveto
          -7 9 15 -6 12 hhcurveto
          28 20 19 20 19 -20 18 -27 -4 -3 0 -1 -4 hvcurveto
          1 -27 -27 1 -26 hhcurveto
          -83 -85 -11 -6 -20 hvcurveto
          hintmask 10110000
          26 -2 -14 19 -21 hhcurveto
          -23 -21 -28 -32 hvcurveto
          -110 -22 -106 -33 -102 -44 rrcurveto
          -14 -6 -8 -12 -14 vvcurveto
          -20 14 -15 25 15 18 9 15 11 vhcurveto
          83 32 84 26 87 20 rrcurveto
          -8 -50 -26 -173 -107 vvcurveto
          -100 9 -227 61 20 15 13 22 15 -7 15 -11 11 vhcurveto
          endchar
        </CharString>
        <CharString name="Thorn">
          207 12 -21 620 59 125 -20 hstemhm
          104 111 -63 63 352 63 hintmask 11101100
          248 795 rmoveto
          -20 -2 -16 -10 -25 -119 -72 -6 -114 -18 -1 -68 rrcurveto
          -25 19 -14 20 23 12 18 15 3 0 3 -1 3 vhcurveto
          20 16 42 8 41 4 rrcurveto
          -14 -87 -10 -114 -131 vvcurveto
          -55 vlineto
          hintmask 11110100
          -26 -4 -22 -9 -27 vvcurveto
          -27 22 -10 30 -6 vhcurveto
          -49 4 -5 -93 51 hhcurveto
          23 17 18 25 8 -3 35 -20 16 hvcurveto
          -4 39 rlineto
          152 27 259 102 191 vvcurveto
          174 -201 44 -139 -12 -11 0 -1 -12 vhcurveto
          10 39 rlineto
          18 14 6 20 19 vvcurveto
          24 -20 10 -16 vhcurveto
          -38 -517 rmoveto
          134 13 113 15 82 vhcurveto
          3 20 33 1 29 hhcurveto
          114 128 -53 -105 -147 -243 -97 -108 -15 hvcurveto
          -1 28 0 28 28 vvcurveto
          endchar
        </CharString>
        <CharString name="U">
          257 -4 63 -60 -21 802 -20 hstemhm
          30 63 391 90 hintmask 10111000
          157 700 rmoveto
          28 -18 20 -26 -55 -7 -132 -50 -9 vhcurveto
          -6 -35 -6 -72 -83 vvcurveto
          -170 32 -210 133 178 88 295 103 30 vhcurveto
          2 8 2 7 2 6 4 -92 9 -93 22 -89 rrcurveto
          hintmask 01111000
          -38 9 29 -125 52 hhcurveto
          20 18 16 21 38 -42 42 -9 4 hvcurveto
          -27 72 -8 81 -7 75 rrcurveto
          -7 79 -6 80 80 vvcurveto
          35 vlineto
          9 44 11 44 44 vvcurveto
          40 -24 7 -18 -35 -13 -61 -51 -18 1 -16 3 -13 vhcurveto
          -6 -30 -22 -85 -6 -25 rrcurveto
          hintmask 10111000
          -161 -48 -77 -261 -134 hhcurveto
          -68 -34 172 165 69 6 67 12 53 hvcurveto
          21 21 25 40 54 vvcurveto
          endchar
        </CharString>
        <CharString name="Uacute">
          257 -4 63 -60 -21 802 -20 56 -21 172 -20 hstemhm
          30 63 391 90 hintmask 10100110
          157 700 rmoveto
          28 -18 20 -26 -55 -7 -132 -50 -9 vhcurveto
          -6 -35 -6 -72 -83 vvcurveto
          -170 32 -210 133 178 88 295 103 30 vhcurveto
          2 8 2 7 2 6 4 -92 9 -93 22 -89 rrcurveto
          hintmask 01100110
          -38 9 29 -125 52 hhcurveto
          20 18 16 21 38 -42 42 -9 4 hvcurveto
          -27 72 -8 81 -7 75 rrcurveto
          -7 79 -6 80 80 vvcurveto
          35 vlineto
          9 44 11 44 44 vvcurveto
          40 -24 7 -18 -35 -13 -61 -51 -18 1 -16 3 -13 vhcurveto
          -6 -30 -22 -85 -6 -25 rrcurveto
          hintmask 10100110
          -161 -48 -77 -261 -134 hhcurveto
          -68 -34 172 165 69 6 67 12 53 hvcurveto
          21 21 25 40 54 vvcurveto
          hintmask 00011000
          240 248 rmoveto
          -29 -58 -36 -29 -36 -13 rrcurveto
          -11 -4 -8 -11 -13 vvcurveto
          -18 14 -7 13 3 4 0 1 5 vhcurveto
          71 18 43 51 29 51 rrcurveto
          3 5 1 6 5 vvcurveto
          20 -18 15 -15 -12 -11 -5 -14 -10 vhcurveto
          endchar
        </CharString>
        <CharString name="Ucircumflex">
          257 -4 63 -60 -21 802 -20 63 -21 148 -20 hstemhm
          30 63 391 90 hintmask 10100110
          157 700 rmoveto
          28 -18 20 -26 -55 -7 -132 -50 -9 vhcurveto
          -6 -35 -6 -72 -83 vvcurveto
          -170 32 -210 133 178 88 295 103 30 vhcurveto
          2 8 2 7 2 6 4 -92 9 -93 22 -89 rrcurveto
          hintmask 01100110
          -38 9 29 -125 52 hhcurveto
          20 18 16 21 38 -42 42 -9 4 hvcurveto
          -27 72 -8 81 -7 75 rrcurveto
          -7 79 -6 80 80 vvcurveto
          35 vlineto
          9 44 11 44 44 vvcurveto
          40 -24 7 -18 -35 -13 -61 -51 -18 1 -16 3 -13 vhcurveto
          -6 -30 -22 -85 -6 -25 rrcurveto
          hintmask 10100110
          -161 -48 -77 -261 -134 hhcurveto
          -68 -34 172 165 69 6 67 12 53 hvcurveto
          21 21 25 40 54 vvcurveto
          hintmask 00011000
          67 106 rmoveto
          35 26 35 27 33 27 rrcurveto
          -25 24 47 -57 25 hhcurveto
          17 11 10 14 6 -3 7 -4 4 hvcurveto
          -29 31 -32 34 -30 30 rrcurveto
          6 -7 -8 4 -8 hhcurveto
          -5 -8 -2 -5 -7 hvcurveto
          -40 -32 -42 -32 -39 -33 rrcurveto
          -7 -6 -2 -8 -6 vvcurveto
          -13 12 -11 16 4 6 1 3 6 vhcurveto
          endchar
        </CharString>
        <CharString name="Udieresis">
          257 -4 63 -60 -21 802 -20 43 111 hstemhm
          30 63 113 91 46 91 50 90 hintmask 10101001
          157 700 rmoveto
          28 -18 20 -26 -55 -7 -132 -50 -9 vhcurveto
          -6 -35 -6 -72 -83 vvcurveto
          -170 32 -210 133 178 88 295 103 30 vhcurveto
          2 8 2 7 2 6 4 -92 9 -93 22 -89 rrcurveto
          hintmask 01101001
          -38 9 29 -125 52 hhcurveto
          20 18 16 21 38 -42 42 -9 4 hvcurveto
          -27 72 -8 81 -7 75 rrcurveto
          -7 79 -6 80 80 vvcurveto
          35 vlineto
          9 44 11 44 44 vvcurveto
          40 -24 7 -18 -35 -13 -61 -51 -18 1 -16 3 -13 vhcurveto
          -6 -30 -22 -85 -6 -25 rrcurveto
          hintmask 10101001
          -161 -48 -77 -261 -134 hhcurveto
          -68 -34 172 165 69 6 67 12 53 hvcurveto
          21 21 25 40 54 vvcurveto
          hintmask 00010110
          49 158 rmoveto
          -31 20 -24 25 25 21 24 31 31 -21 25 -25 -25 -20 -25 -31 vhcurveto
          137 hmoveto
          -31 20 -24 25 25 21 24 31 31 -21 25 -25 -25 -20 -25 -31 vhcurveto
          endchar
        </CharString>
        <CharString name="Ugrave">
          257 -4 63 -60 -21 802 -20 57 -21 172 -20 hstemhm
          30 63 391 90 hintmask 10100110
          157 700 rmoveto
          28 -18 20 -26 -55 -7 -132 -50 -9 vhcurveto
          -6 -35 -6 -72 -83 vvcurveto
          -170 32 -210 133 178 88 295 103 30 vhcurveto
          2 8 2 7 2 6 4 -92 9 -93 22 -89 rrcurveto
          hintmask 01100110
          -38 9 29 -125 52 hhcurveto
          20 18 16 21 38 -42 42 -9 4 hvcurveto
          -27 72 -8 81 -7 75 rrcurveto
          -7 79 -6 80 80 vvcurveto
          35 vlineto
          9 44 11 44 44 vvcurveto
          40 -24 7 -18 -35 -13 -61 -51 -18 1 -16 3 -13 vhcurveto
          -6 -30 -22 -85 -6 -25 rrcurveto
          hintmask 10100110
          -161 -48 -77 -261 -134 hhcurveto
          -68 -34 172 165 69 6 67 12 53 hvcurveto
          21 21 25 40 54 vvcurveto
          hintmask 00011000
          101 249 rmoveto
          14 -10 -11 5 -12 hhcurveto
          -15 -18 -15 -20 -5 1 -6 3 -5 hvcurveto
          29 -51 43 -51 71 -18 rrcurveto
          -1 5 4 0 3 hhcurveto
          13 14 7 18 13 -8 11 -11 4 hvcurveto
          -36 13 -36 29 -29 58 rrcurveto
          endchar
        </CharString>
        <CharString name="V">
          172 23 -21 650 79 80 -20 hstem
          667 799 rmoveto
          -59 -45 -194 -415 -93 -213 rrcurveto
          318 -95 -89 287 -94 hhcurveto
          -26 -17 -16 -22 -21 16 -20 33 hvcurveto
          6 hlineto
          54 -57 96 -291 80 -279 rrcurveto
          -12 4 14 -11 12 hhcurveto
          13 12 8 13 5 hvcurveto
          42 114 206 459 89 124 rrcurveto
          23 30 34 21 21 -18 15 -20 -11 -10 -5 -7 -9 hvcurveto
          endchar
        </CharString>
        <CharString name="W">
          560 -53 66 -6 63 749 -20 hstemhm
          60 63 751 109 -62 62 hintmask 10111000
          922 732 rmoveto
          -27 -21 -26 -27 -31 18 -38 27 -8 hvcurveto
          hintmask 01110100
          1 -15 1 -16 -16 vvcurveto
          -288 -85 -197 -138 -142 -64 276 168 vhcurveto
          20 -3 -14 11 -14 hhcurveto
          -10 -10 -5 -11 -9 hvcurveto
          hintmask 10111000
          -124 -37 -158 -392 -75 hhcurveto
          -24 -15 44 112 175 8 163 30 174 hvcurveto
          20 3 33 58 36 vvcurveto
          30 -17 11 -17 -36 -17 -33 -31 -9 vhcurveto
          -49 -178 -9 -206 -190 vvcurveto
          -168 37 -66 56 126 136 368 67 25 vhcurveto
          hintmask 01111000
          -152 23 67 -223 167 hhcurveto
          243 43 384 174 58 -8 109 -53 hvcurveto
          endchar
        </CharString>
        <CharString name="X">
          250 -6 99 702 -20 hstem
          29 755 rmoveto
          -45 110 -177 121 -165 vhcurveto
          -99 -105 -95 -112 -47 -71 rrcurveto
          -9 -15 -10 -18 -15 vvcurveto
          -18 18 -20 21 29 27 38 38 4 0 2 -1 3 vhcurveto
          51 66 75 89 78 85 89 -117 106 -122 63 -59 rrcurveto
          -12 13 20 -15 16 hhcurveto
          20 19 17 22 27 -30 31 -39 2 hvcurveto
          -53 46 -102 125 -78 101 109 114 126 114 66 41 rrcurveto
          30 2 30 24 21 vvcurveto
          22 -11 16 -22 -4 -7 -1 0 vhcurveto
          -45 -5 -159 -144 -149 -153 -89 118 -78 126 -28 67 rrcurveto
          31 -1 -12 37 -29 hhcurveto
          -23 -15 -11 -21 -2 hvcurveto
          endchar
        </CharString>
        <CharString name="Y">
          78 9 -21 793 -20 hstem
          250 245 rmoveto
          -8 -64 -8 -69 -7 -24 rrcurveto
          0 -33 -20 -37 vvcurveto
          -29 19 -14 18 37 18 68 83 13 vhcurveto
          14 90 9 50 4 32 59 113 62 101 88 113 11 14 25 31 21 18 rrcurveto
          8 hlineto
          16 25 23 24 24 -18 9 -19 -33 -65 -79 -28 -22 hvcurveto
          -72 -95 -73 -112 -54 -97 -31 87 -57 112 -49 83 rrcurveto
          38 -22 -32 44 -48 hhcurveto
          -41 -5 -33 -10 -17 9 -23 27 8 9 5 5 7 hvcurveto
          40 -34 150 -288 -94 vvcurveto
          endchar
        </CharString>
        <CharString name="Yacute">
          78 9 -21 793 -20 46 -21 172 -20 hstemhm
          hintmask 11000000
          250 245 rmoveto
          -8 -64 -8 -69 -7 -24 rrcurveto
          0 -33 -20 -37 vvcurveto
          -29 19 -14 18 37 18 68 83 13 vhcurveto
          14 90 9 50 4 32 59 113 62 101 88 113 11 14 25 31 21 18 rrcurveto
          8 hlineto
          16 25 23 24 24 -18 9 -19 -33 -65 -79 -28 -22 hvcurveto
          -72 -95 -73 -112 -54 -97 -31 87 -57 112 -49 83 rrcurveto
          38 -22 -32 44 -48 hhcurveto
          -41 -5 -33 -10 -17 9 -23 27 8 9 5 5 7 hvcurveto
          40 -34 150 -288 -94 vvcurveto
          hintmask 00110000
          126 694 rmoveto
          -29 -58 -36 -29 -36 -13 rrcurveto
          -11 -4 -8 -11 -13 vvcurveto
          -18 14 -7 13 3 4 0 1 5 vhcurveto
          71 18 43 51 29 51 rrcurveto
          3 5 1 6 5 vvcurveto
          20 -18 15 -15 -12 -11 -5 -14 -10 vhcurveto
          endchar
        </CharString>
        <CharString name="Ydieresis">
          78 9 -21 783 111 -101 -20 hstemhm
          200 91 46 91 hintmask 10100000
          250 245 rmoveto
          -8 -64 -8 -69 -7 -24 rrcurveto
          0 -33 -20 -37 vvcurveto
          -29 19 -14 18 37 18 68 83 13 vhcurveto
          14 90 9 50 4 32 59 113 62 101 88 113 11 14 25 31 21 18 rrcurveto
          8 hlineto
          16 25 23 24 24 -18 9 -19 -33 -65 -79 -28 -22 hvcurveto
          -72 -95 -73 -112 -54 -97 -31 87 -57 112 -49 83 rrcurveto
          38 -22 -32 44 -48 hhcurveto
          -41 -5 -33 -10 -17 9 -23 27 8 9 5 5 7 hvcurveto
          40 -34 150 -288 -94 vvcurveto
          hintmask 01011000
          -50 581 rmoveto
          -31 20 -24 25 25 21 24 31 31 -21 25 -25 -25 -20 -25 -31 vhcurveto
          137 hmoveto
          -31 20 -24 25 25 21 24 31 31 -21 25 -25 -25 -20 -25 -31 vhcurveto
          endchar
        </CharString>
        <CharString name="Z">
          201 8 100 -87 -21 33 62 544 62 -62 128 hstemhm
          hintmask 01110000
          49 767 rmoveto
          -30 -9 -20 -17 hvcurveto
          -71 7 89 -20 120 hhcurveto
          92 102 12 11 70 hvcurveto
          -116 -163 -243 -338 -120 -106 rrcurveto
          -7 -6 -4 -8 -9 vvcurveto
          -19 16 -13 16 vhcurveto
          15 141 33 159 hhcurveto
          68 69 -6 -17 58 hvcurveto
          hintmask 10010000
          -1 5 12 -1 5 hhcurveto
          36 24 29 28 26 -22 17 -33 -24 -30 -7 -14 -41 hvcurveto
          hintmask 01110000
          4 -43 -46 4 -46 hhcurveto
          -81 -79 -8 -9 -58 hvcurveto
          142 159 210 295 90 126 4 6 4 5 4 5 12 18 1 6 1 6 rrcurveto
          5 vlineto
          17 -10 10 -16 -3 -7 -1 0 vhcurveto
          -17 -94 -136 -17 -104 hhcurveto
          -69 -62 20 1 hvcurveto
          hintmask 10001000
          18 -15 27 -24 vhcurveto
          endchar
        </CharString>
        <CharString name="Zcaron">
          201 8 100 -87 -21 33 62 544 62 -62 128 31 -21 148 -20 hstemhm
          hintmask 01110000
          49 767 rmoveto
          -30 -9 -20 -17 hvcurveto
          -71 7 89 -20 120 hhcurveto
          92 102 12 11 70 hvcurveto
          -116 -163 -243 -338 -120 -106 rrcurveto
          -7 -6 -4 -8 -9 vvcurveto
          -19 16 -13 16 vhcurveto
          15 141 33 159 hhcurveto
          68 69 -6 -17 58 hvcurveto
          hintmask 10010000
          -1 5 12 -1 5 hhcurveto
          36 24 29 28 26 -22 17 -33 -24 -30 -7 -14 -41 hvcurveto
          hintmask 01110000
          4 -43 -46 4 -46 hhcurveto
          -81 -79 -8 -9 -58 hvcurveto
          142 159 210 295 90 126 4 6 4 5 4 5 12 18 1 6 1 6 rrcurveto
          5 vlineto
          17 -10 10 -16 -3 -7 -1 0 vhcurveto
          -17 -94 -136 -17 -104 hhcurveto
          -69 -62 20 1 hvcurveto
          hintmask 10001000
          18 -15 27 -24 vhcurveto
          hintmask 00000110
          371 154 rmoveto
          -35 -26 -35 -27 -33 -27 rrcurveto
          25 -24 -47 57 -25 hhcurveto
          -17 -11 -10 -14 -6 3 -7 4 -4 hvcurveto
          29 -31 32 -34 30 -30 rrcurveto
          -6 7 8 -4 8 hhcurveto
          5 8 2 5 7 hvcurveto
          40 32 42 32 39 33 rrcurveto
          7 6 2 8 6 vvcurveto
          13 -12 11 -16 -4 -6 -1 -3 -6 vhcurveto
          endchar
        </CharString>
        <CharString name="a">
          17 0 63 151 63 19 149 -62 62 hstemhm
          25 63 -45 83 180 63 hintmask 11100110
          397 70 rmoveto
          -3 4 -25 29 137 vvcurveto
          51 0 154 -143 -83 -46 -38 -21 -22 vhcurveto
          -11 -10 -21 -25 -21 vvcurveto
          -23 16 -11 17 23 27 20 35 vhcurveto
          2 vlineto
          hintmask 11011010
          14 17 33 16 47 hhcurveto
          43 36 -18 -112 4 hvcurveto
          14 -25 -33 10 -41 hhcurveto
          -101 -81 -68 -84 -64 45 -61 106 62 52 33 34 36 hvcurveto
          -38 14 15 -27 26 hhcurveto
          18 20 11 26 15 -12 16 -10 hvcurveto
          -214 -7 rmoveto
          -61 -34 26 42 53 59 30 55 66 37 -34 -9 4 hvcurveto
          3 -32 rlineto
          -18 -13 -45 -58 -71 hhcurveto
          endchar
        </CharString>
        <CharString name="aacute">
          17 0 63 151 63 19 149 -62 62 77 -21 172 -20 hstemhm
          25 63 -45 83 180 63 hintmask 1110000110000000
          397 70 rmoveto
          -3 4 -25 29 137 vvcurveto
          51 0 154 -143 -83 -46 -38 -21 -22 vhcurveto
          -11 -10 -21 -25 -21 vvcurveto
          -23 16 -11 17 23 27 20 35 vhcurveto
          2 vlineto
          hintmask 1101001010000000
          14 17 33 16 47 hhcurveto
          43 36 -18 -112 4 hvcurveto
          14 -25 -33 10 -41 hhcurveto
          -101 -81 -68 -84 -64 45 -61 106 62 52 33 34 36 hvcurveto
          -38 14 15 -27 26 hhcurveto
          18 20 11 26 15 -12 16 -10 hvcurveto
          -214 -7 rmoveto
          -61 -34 26 42 53 59 30 55 66 37 -34 -9 4 hvcurveto
          3 -32 rlineto
          -18 -13 -45 -58 -71 hhcurveto
          hintmask 0000110000000000
          110 591 rmoveto
          -29 -58 -36 -29 -36 -13 rrcurveto
          -11 -4 -8 -11 -13 vvcurveto
          -18 14 -7 13 3 4 0 1 5 vhcurveto
          71 18 43 51 29 51 rrcurveto
          3 5 1 6 5 vvcurveto
          20 -18 15 -15 -12 -11 -5 -14 -10 vhcurveto
          endchar
        </CharString>
        <CharString name="acircumflex">
          17 0 63 151 63 19 149 -62 62 69 -21 148 -20 hstemhm
          25 63 -45 83 180 63 hintmask 1110000110000000
          397 70 rmoveto
          -3 4 -25 29 137 vvcurveto
          51 0 154 -143 -83 -46 -38 -21 -22 vhcurveto
          -11 -10 -21 -25 -21 vvcurveto
          -23 16 -11 17 23 27 20 35 vhcurveto
          2 vlineto
          hintmask 1101001010000000
          14 17 33 16 47 hhcurveto
          43 36 -18 -112 4 hvcurveto
          14 -25 -33 10 -41 hhcurveto
          -101 -81 -68 -84 -64 45 -61 106 62 52 33 34 36 hvcurveto
          -38 14 15 -27 26 hhcurveto
          18 20 11 26 15 -12 16 -10 hvcurveto
          -214 -7 rmoveto
          -61 -34 26 42 53 59 30 55 66 37 -34 -9 4 hvcurveto
          3 -32 rlineto
          -18 -13 -45 -58 -71 hhcurveto
          hintmask 0000110000000000
          -64 434 rmoveto
          35 26 35 27 33 27 rrcurveto
          -25 24 47 -57 25 hhcurveto
          17 11 10 14 6 -3 7 -4 4 hvcurveto
          -29 31 -32 34 -30 30 rrcurveto
          6 -7 -8 4 -8 hhcurveto
          -5 -8 -2 -5 -7 hvcurveto
          -40 -32 -42 -32 -39 -33 rrcurveto
          -7 -6 -2 -8 -6 vvcurveto
          -13 12 -11 16 4 6 1 3 6 vhcurveto
          endchar
        </CharString>
        <CharString name="acute">
          -82 520 -21 172 -20 hstem
          198 652 rmoveto
          -29 -58 -36 -29 -36 -13 rrcurveto
          -11 -4 -8 -11 -13 vvcurveto
          -18 14 -7 13 3 4 0 1 5 vhcurveto
          71 18 43 51 29 51 rrcurveto
          3 5 1 6 5 vvcurveto
          20 -18 15 -15 -12 -11 -5 -14 -10 vhcurveto
          endchar
        </CharString>
        <CharString name="adieresis">
          17 0 63 151 63 19 149 -62 62 53 111 hstemhm
          25 63 -45 83 -29 91 46 91 -19 63 hintmask 1110001001000000
          397 70 rmoveto
          -3 4 -25 29 137 vvcurveto
          51 0 154 -143 -83 -46 -38 -21 -22 vhcurveto
          -11 -10 -21 -25 -21 vvcurveto
          -23 16 -11 17 23 27 20 35 vhcurveto
          2 vlineto
          hintmask 1101010001000000
          14 17 33 16 47 hhcurveto
          43 36 -18 -112 4 hvcurveto
          14 -25 -33 10 -41 hhcurveto
          -101 -81 -68 -84 -64 45 -61 106 62 52 33 34 36 hvcurveto
          -38 14 15 -27 26 hhcurveto
          18 20 11 26 15 -12 16 -10 hvcurveto
          -214 -7 rmoveto
          -61 -34 26 42 53 59 30 55 66 37 -34 -9 4 hvcurveto
          3 -32 rlineto
          -18 -13 -45 -58 -71 hhcurveto
          hintmask 0000100110000000
          -86 490 rmoveto
          -31 20 -24 25 25 21 24 31 31 -21 25 -25 -25 -20 -25 -31 vhcurveto
          137 hmoveto
          -31 20 -24 25 25 21 24 31 31 -21 25 -25 -25 -20 -25 -31 vhcurveto
          endchar
        </CharString>
        <CharString name="ae">
          294 -19 63 -63 181 -162 63 124 63 -36 63 19 151 -64 64 hstemhm
          25 63 -45 83 454 64 hintmask 0101010101000000
          691 103 rmoveto
          4 9 2 8 6 vvcurveto
          24 -19 12 -18 -19 -25 -21 -28 vhcurveto
          -8 vlineto
          hintmask 1001010011000000
          -37 -31 -54 -24 -46 hhcurveto
          -45 -44 21 57 -18 hvcurveto
          -3 16 -3 22 -2 27 83 1 143 8 30 33 rrcurveto
          14 15 4 26 26 vvcurveto
          88 -56 63 -69 -65 -59 -42 -57 -39 vhcurveto
          50 -16 -36 47 -78 hhcurveto
          -83 -46 -38 -21 -22 hvcurveto
          -11 -10 -21 -25 -21 vvcurveto
          -23 16 -11 17 23 27 20 35 vhcurveto
          2 vlineto
          hintmask 0010101101000000
          14 17 33 16 47 hhcurveto
          43 36 -18 -112 4 hvcurveto
          14 -25 -33 10 -41 hhcurveto
          -101 -81 -68 -84 -64 45 -61 106 62 52 33 34 36 hvcurveto
          hintmask 1001010101000000
          -49 31 46 -37 82 hhcurveto
          80 94 53 69 32 hvcurveto
          hintmask 0010110101000000
          -508 -40 rmoveto
          -61 -34 26 42 53 59 30 55 58 35 -26 -13 11 hvcurveto
          -14 1 -14 2 -12 vhcurveto
          -22 -16 -44 -50 -66 hhcurveto
          336 321 rmoveto
          42 19 -48 -40 -12 -1 -9 -3 -4 hvcurveto
          hintmask 1001010101000000
          -17 -10 -107 -9 -73 -2 rrcurveto
          71 20 60 63 60 hhcurveto
          endchar
        </CharString>
        <CharString name="agrave">
          17 0 63 151 63 19 149 -62 62 75 -21 172 -20 hstemhm
          25 63 -45 83 180 63 hintmask 1110000110000000
          397 70 rmoveto
          -3 4 -25 29 137 vvcurveto
          51 0 154 -143 -83 -46 -38 -21 -22 vhcurveto
          -11 -10 -21 -25 -21 vvcurveto
          -23 16 -11 17 23 27 20 35 vhcurveto
          2 vlineto
          hintmask 1101001010000000
          14 17 33 16 47 hhcurveto
          43 36 -18 -112 4 hvcurveto
          14 -25 -33 10 -41 hhcurveto
          -101 -81 -68 -84 -64 45 -61 106 62 52 33 34 36 hvcurveto
          -38 14 15 -27 26 hhcurveto
          18 20 11 26 15 -12 16 -10 hvcurveto
          -214 -7 rmoveto
          -61 -34 26 42 53 59 30 55 66 37 -34 -9 4 hvcurveto
          3 -32 rlineto
          -18 -13 -45 -58 -71 hhcurveto
          hintmask 0000110000000000
          -39 589 rmoveto
          14 -10 -11 5 -12 hhcurveto
          -15 -18 -15 -20 -5 1 -6 3 -5 hvcurveto
          29 -51 43 -51 71 -18 rrcurveto
          -1 5 4 0 3 hhcurveto
          13 14 7 18 13 -8 11 -11 4 hvcurveto
          -36 13 -36 29 -29 58 rrcurveto
          endchar
        </CharString>
        <CharString name="ampersand">
          123 -10 -21 36 63 570 81 hstemhm
          32 63 -2 63 283 70 hintmask 11110100
          437 9 rmoveto
          -29 1 20 -11 16 hhcurveto
          28 7 33 80 hvcurveto
          86 vlineto
          70 -13 23 -24 -16 -17 -8 -34 -39 14 -15 0 vhcurveto
          -47 vlineto
          -7 -4 -10 -6 -10 -7 rrcurveto
          -17 -49 -68 -16 -69 hhcurveto
          -15 -130 2 73 82 146 115 129 28 hvcurveto
          14 3 11 14 13 vvcurveto
          25 -20 7 -18 vhcurveto
          hintmask 11101100
          -76 -125 15 80 78 110 42 67 9 hvcurveto
          -10 4 14 -6 15 hhcurveto
          22 19 18 22 25 -23 16 -28 -78 -185 -54 -141 -85 84 -39 80 -18 hvcurveto
          hintmask 11110100
          -105 -39 -120 -103 -97 vvcurveto
          -102 112 -36 96 37 96 8 23 67 vhcurveto
          -2 -7 -1 -8 -12 vvcurveto
          endchar
        </CharString>
        <CharString name="approxequal">
          156 107 175 -145 62 21 62 1 175 -145 62 21 62 26 -20 hstemhm
          hintmask 10001110
          387 313 rmoveto
          80 76 60 75 8 hvcurveto
          5 vlineto
          20 -15 11 -12 -18 -13 -10 -21 -2 vhcurveto
          -1 -14 rlineto
          -52 -25 -44 -12 -34 hhcurveto
          hintmask 10010010
          -60 -68 83 -73 hhcurveto
          -75 -84 -68 -67 -6 hvcurveto
          -4 vlineto
          -21 15 -15 12 23 7 14 21 4 vhcurveto
          3 11 rlineto
          hintmask 01101110
          53 26 40 14 34 60 61 -83 81 hhcurveto
          -176 vmoveto
          80 76 60 75 8 hvcurveto
          5 vlineto
          20 -15 11 -12 -18 -13 -10 -21 -2 vhcurveto
          -1 -14 rlineto
          -52 -25 -44 -12 -34 hhcurveto
          hintmask 10010010
          -60 -68 83 -73 hhcurveto
          -75 -84 -68 -67 -6 hvcurveto
          -4 vlineto
          -21 15 -15 12 23 7 14 21 4 vhcurveto
          3 11 rlineto
          hintmask 01110010
          53 26 40 14 34 60 61 -83 81 hhcurveto
          endchar
        </CharString>
        <CharString name="aring">
          17 0 63 151 63 19 149 -62 62 31 46 164 -20 hstemhm
          25 63 -45 83 4 191 -52 52 -15 63 hintmask 1110000100100000
          397 70 rmoveto
          -3 4 -25 29 137 vvcurveto
          51 0 154 -143 -83 -46 -38 -21 -22 vhcurveto
          -11 -10 -21 -25 -21 vvcurveto
          -23 16 -11 17 23 27 20 35 vhcurveto
          2 vlineto
          hintmask 1101001000100000
          14 17 33 16 47 hhcurveto
          43 36 -18 -112 4 hvcurveto
          14 -25 -33 10 -41 hhcurveto
          -101 -81 -68 -84 -64 45 -61 106 62 52 33 34 36 hvcurveto
          -38 14 15 -27 26 hhcurveto
          18 20 11 26 15 -12 16 -10 hvcurveto
          -214 -7 rmoveto
          -61 -34 26 42 53 59 30 55 66 37 -34 -9 4 hvcurveto
          3 -32 rlineto
          -18 -13 -45 -58 -71 hhcurveto
          hintmask 0000110010000000
          5 617 rmoveto
          -33 -21 -25 -50 -46 vvcurveto
          -58 34 -29 43 61 53 66 66 52 -31 21 -31 -8 -12 -2 -4 -10 vhcurveto
          6 -6 -7 5 -9 hhcurveto
          -6 -6 -2 -4 -7 hvcurveto
          13 -80 rmoveto
          22 17 34 23 hhcurveto
          hintmask 0000110001000000
          4 2 -9 -11 -31 -17 -61 -48 -18 -6 26 14 14 3 14 5 12 hvcurveto
          -1 4 5 -1 4 hhcurveto
          endchar
        </CharString>
        <CharString name="asciicircum">
          364 -21 370 -20 hstem
          97 354 rmoveto
          51 88 51 88 51 89 47 -85 47 -84 47 -84 rrcurveto
          -11 8 11 -4 9 hhcurveto
          16 14 13 17 6 -1 7 -4 6 hvcurveto
          -56 101 -56 100 -56 100 rrcurveto
          8 -8 -9 4 -8 hhcurveto
          -10 -10 -6 -10 -8 hvcurveto
          -59 -103 -60 -103 -60 -103 rrcurveto
          -1 -5 -1 -4 -5 vvcurveto
          -18 13 -13 17 8 9 4 7 8 vhcurveto
          endchar
        </CharString>
        <CharString name="asciitilde">
          107 472 175 -145 62 21 62 26 -20 hstemhm
          hintmask 01110000
          366 502 rmoveto
          80 76 60 75 8 hvcurveto
          5 vlineto
          20 -15 11 -12 -18 -13 -10 -21 -2 vhcurveto
          -1 -14 rlineto
          -52 -25 -44 -12 -34 hhcurveto
          hintmask 10010000
          -60 -68 83 -73 hhcurveto
          -75 -84 -68 -67 -6 hvcurveto
          -4 vlineto
          -21 15 -15 12 23 7 14 21 4 vhcurveto
          3 11 rlineto
          hintmask 01110000
          53 26 40 14 34 60 61 -83 81 hhcurveto
          endchar
        </CharString>
        <CharString name="asterisk">
          129 471 66 -58 60 hstemhm
          244 64 hintmask 01100000
          hintmask 10100000
          73 454 rmoveto
          36 1 14 11 21 2 59 6 rcurveline
          -48 -52 -48 -65 -29 vvcurveto
          -17 12 -15 22 36 16 65 14 11 vhcurveto
          40 49 rlineto
          -87 3 8 -73 41 hhcurveto
          19 12 22 21 27 -15 29 -2 12 hvcurveto
          -3 38 rlineto
          -46 49 46 -37 31 hhcurveto
          17 15 10 24 hvcurveto
          hintmask 01100000
          32 -64 20 -14 11 vhcurveto
          -22 17 -20 19 -19 18 84 -3 rcurveline
          0 35 -18 33 24 18 9 21 34 -24 16 -144 vhcurveto
          16 16 17 15 0 0 81 26 31 vvcurveto
          28 -24 13 -15 -20 -41 -31 -62 -64 vhcurveto
          2 26 6 33 0 0 18 34 33 vvcurveto
          22 -7 21 -22 -37 -17 -19 -165 -3 vhcurveto
          -18 20 -21 30 0 vvcurveto
          0 -28 74 -33 -28 -9 -20 -14 vhcurveto
          hintmask 10100000
          -21 19 -31 58 -62 vhcurveto
          -88 -7 -62 -14 -35 vvcurveto
          -18 18 -7 23 -2 vhcurveto
          endchar
        </CharString>
        <CharString name="at">
          263 -63 63 79 60 -43 63 103 63 1 128 -63 63 104 63 hstemhm
          18 63 105 63 155 62 128 63 hintmask 1011101111100000
          315 159 rmoveto
          -43 -23 17 27 38 40 21 41 47 27 -21 -7 4 hvcurveto
          1 -22 rlineto
          -15 -13 -33 -38 -48 hhcurveto
          185 -189 rmoveto
          21 5 25 18 25 vvcurveto
          22 -17 17 -22 -21 -21 -14 -21 -10 vhcurveto
          -15 -37 -38 -7 -36 hhcurveto
          -145 -118 115 157 153 100 133 167 126 120 -90 -164 hvcurveto
          hintmask 1101101111100000
          -84 -47 -81 -45 -15 -21 27 123 42 0 123 -118 -64 -33 -25 -14 -16 vhcurveto
          -11 -10 -24 -29 -17 vvcurveto
          -23 15 -10 17 20 22 18 27 3 vhcurveto
          hintmask 1011011111100000
          1 36 19 32 30 25 -9 -71 4 vhcurveto
          9 -20 -21 5 -29 hhcurveto
          -82 -66 -56 -69 -54 38 -50 85 48 37 21 25 29 hvcurveto
          hintmask 1101101111100000
          -30 5 29 -33 34 hhcurveto
          100 66 118 109 196 -150 119 -163 -198 -128 -167 -178 -203 147 -136 180 49 55 12 21 51 hvcurveto
          endchar
        </CharString>
        <CharString name="atilde">
          17 0 63 151 63 19 149 -62 62 48 124 -105 -21 128 -20 hstemhm
          25 63 -45 83 180 63 hintmask 1110000011000000
          397 70 rmoveto
          -3 4 -25 29 137 vvcurveto
          51 0 154 -143 -83 -46 -38 -21 -22 vhcurveto
          -11 -10 -21 -25 -21 vvcurveto
          -23 16 -11 17 23 27 20 35 vhcurveto
          2 vlineto
          hintmask 1101000101000000
          14 17 33 16 47 hhcurveto
          43 36 -18 -112 4 hvcurveto
          14 -25 -33 10 -41 hhcurveto
          -101 -81 -68 -84 -64 45 -61 106 62 52 33 34 36 hvcurveto
          -38 14 15 -27 26 hhcurveto
          18 20 11 26 15 -12 16 -10 hvcurveto
          -214 -7 rmoveto
          -61 -34 26 42 53 59 30 55 66 37 -34 -9 4 hvcurveto
          3 -32 rlineto
          -18 -13 -45 -58 -71 hhcurveto
          hintmask 0000100000000000
          -55 452 rmoveto
          31 12 11 9 9 hhcurveto
          -1 28 40 -61 50 hhcurveto
          34 40 21 72 18 hvcurveto
          5 vlineto
          hintmask 0000011000000000
          17 -14 11 -17 -11 -12 -8 -16 -6 vhcurveto
          -31 -12 -11 -9 -9 hhcurveto
          hintmask 0000100000000000
          1 -27 -40 61 -51 hhcurveto
          -31 -46 -21 -72 -15 hvcurveto
          -1 -6 rlineto
          hintmask 0000011000000000
          -18 17 -9 15 11 12 8 16 6 vhcurveto
          endchar
        </CharString>
        <CharString name="b">
          71 -10 63 -33 65 268 63 385 -20 hstemhm
          45 62 -62 119 242 63 hintmask 10111010
          305 416 rmoveto
          -99 -75 -111 -72 -19 hvcurveto
          -3 57 -2 58 54 vvcurveto
          108 11 118 11 57 vhcurveto
          hintmask 01110110
          7 9 28 37 31 vvcurveto
          19 -12 20 -18 -16 -15 -11 -12 -9 vhcurveto
          -30 -40 -19 -171 -164 vvcurveto
          -123 8 -132 15 -101 vhcurveto
          -17 3 13 -10 16 hhcurveto
          16 13 12 16 2 hvcurveto
          3 34 302 140 61 40 -51 -79 vhcurveto
          hintmask 10111010
          -115 -104 -55 -48 -13 -9 1 2 -7 vhcurveto
          hintmask 01111010
          18 -5 -13 11 -22 hhcurveto
          -31 -6 -26 -11 -3 0 -2 1 -3 hvcurveto
          hintmask 10111010
          -12 3 17 -38 85 hhcurveto
          86 129 85 148 114 -67 79 -97 hvcurveto
          endchar
        </CharString>
        <CharString name="backslash">
          3 -21 782 -20 hstem
          376 77 vstem
          453 21 rmoveto
          52 -83 238 -128 229 vhcurveto
          -34 61 -39 63 -42 62 rrcurveto
          19 -13 -18 19 -19 hhcurveto
          -22 -16 -19 -20 -7 2 -8 4 -8 hvcurveto
          4 -7 19 -29 26 -5 36 -53 31 -52 29 -52 99 -177 74 -199 18 -71 rrcurveto
          -3 -8 -2 -7 -8 vvcurveto
          -27 16 -25 22 14 25 5 34 vhcurveto
          endchar
        </CharString>
        <CharString name="bar">
          -84 -75 -21 918 -20 hstem
          151 62 vstem
          151 822 rmoveto
          -918 62 918 vlineto
          endchar
        </CharString>
        <CharString name="braceleft">
          -10 -111 -21 991 -20 hstemhm
          146 63 -47 47 hintmask 11100000
          164 -28 rmoveto
          -61 33 36 -43 34 hhcurveto
          15 17 15 22 34 -47 17 0 hvcurveto
          0 -43 39 50 61 18 55 67 vvcurveto
          45 -45 43 -55 36 vhcurveto
          55 32 45 51 41 67 -18 55 61 vvcurveto
          50 45 49 48 35 vhcurveto
          27 9 5 15 11 vvcurveto
          16 -12 15 -20 -10 -11 -4 -6 -9 vhcurveto
          -66 -46 -60 -70 -73 vvcurveto
          hintmask 11010000
          -74 16 -52 -61 vvcurveto
          -41 -66 -25 -39 -24 vhcurveto
          -17 -10 -10 -8 -14 vvcurveto
          -11 6 -12 16 -8 vhcurveto
          39 -20 71 -30 -39 vvcurveto
          hintmask 11100000
          -61 -16 -52 -74 vvcurveto
          -21 9 -31 9 -20 vhcurveto
          endchar
        </CharString>
        <CharString name="braceright">
          -10 -110 -21 991 -20 hstemhm
          204 47 -47 63 hintmask 11010000
          249 756 rmoveto
          61 -33 -36 43 -34 hhcurveto
          -15 -17 -15 -22 -34 47 -17 0 hvcurveto
          0 43 -39 -50 -61 -18 -55 -67 vvcurveto
          -45 45 -43 55 -36 vhcurveto
          -55 -32 -45 -51 -41 -67 18 -55 -61 vvcurveto
          -50 -45 -49 -48 -35 vhcurveto
          -27 -9 -5 -15 -11 vvcurveto
          -16 12 -15 20 10 11 4 6 9 vhcurveto
          66 46 60 70 73 vvcurveto
          hintmask 11100000
          74 -16 52 61 vvcurveto
          41 66 25 39 24 vhcurveto
          17 10 10 8 14 vvcurveto
          11 -6 12 -16 8 vhcurveto
          -39 20 -71 30 39 vvcurveto
          hintmask 11010000
          61 16 52 74 vvcurveto
          21 -9 31 -9 20 vhcurveto
          endchar
        </CharString>
        <CharString name="bracketleft">
          -67 -132 76 834 71 hstem
          39 63 vstem
          117 -66 rmoveto
          -9 26 -6 174 80 vvcurveto
          122 14 226 18 152 vhcurveto
          3 23 3 25 5 28 rrcurveto
          10 hlineto
          11 19 0 -3 9 hvcurveto
          0 14 -9 42 41 4 30 8 27 -29 6 -142 -29 -16 -19 -92 -10 vhcurveto
          -13 -127 -17 -229 -130 vvcurveto
          -213 vlineto
          -87 7 -79 41 vhcurveto
          32 24 -5 57 hhcurveto
          50 30 17 24 13 -6 22 -41 -31 -9 -16 0 hvcurveto
          -2 -2 -14 0 -47 hhcurveto
          -5 -6 2 6 -2 hvcurveto
          endchar
        </CharString>
        <CharString name="bracketright">
          -79 -131 71 834 76 hstem
          221 62 vstem
          217 784 rmoveto
          3 -9 1 -25 -32 -65 -4 -96 -53 vvcurveto
          -147 -19 -270 -15 -159 vhcurveto
          -10 hlineto
          -11 -13 0 3 -9 hvcurveto
          0 -14 9 -42 -41 -4 -30 -8 -27 33 -6 142 28 2 18 93 10 vhcurveto
          13 127 16 229 130 vvcurveto
          283 vlineto
          55 -6 41 -30 vhcurveto
          -32 -24 5 -57 hhcurveto
          -50 -30 -17 -24 -13 6 -22 41 31 9 16 0 hvcurveto
          2 2 14 0 47 hhcurveto
          5 6 -2 -6 2 hvcurveto
          endchar
        </CharString>
        <CharString name="breve">
          9 486 61 -61 169 -1 -20 hstemhm
          hintmask 01000000
          79 619 rmoveto
          -35 6 49 -98 74 hhcurveto
          68 77 85 53 23 -17 8 -14 -12 -14 -9 -17 -6 hvcurveto
          hintmask 10100000
          -27 -3 -37 -55 -42 hhcurveto
          -35 -31 69 18 -5 hvcurveto
          16 -5 -11 4 -11 hhcurveto
          -16 -15 -13 -22 hvcurveto
          endchar
        </CharString>
        <CharString name="brokenbar">
          -84 -75 -21 918 -20 hstem
          151 62 vstem
          151 822 rmoveto
          -403 62 403 vlineto
          -62 -513 rmoveto
          -405 62 405 vlineto
          endchar
        </CharString>
        <CharString name="bullet">
          -94 230 181 hstem
          237 302 rmoveto
          4 10 0 10 9 vvcurveto
          43 -27 37 -41 -41 -44 -42 -57 -45 28 -37 41 35 33 28 44 12 vhcurveto
          endchar
        </CharString>
        <CharString name="c">
          -8 -20 63 -63 156 253 62 hstemhm
          25 63 119 162 -61 61 hintmask 01110100
          258 207 rmoveto
          59 52 60 57 67 -40 60 -81 -139 -84 -142 -126 -103 66 -100 110 73 92 51 61 25 hvcurveto
          2 5 0 3 2 vvcurveto
          20 -18 14 -16 -18 -20 -12 -23 vhcurveto
          -5 vlineto
          hintmask 10110100
          -32 -26 -50 -21 -44 hhcurveto
          -82 -31 78 63 95 60 110 95 37 28 -24 -34 -25 -16 -25 -24 -9 hvcurveto
          7 -8 -10 3 -11 hhcurveto
          hintmask 10111000
          -17 -15 -13 -21 -27 22 -14 29 hvcurveto
          endchar
        </CharString>
        <CharString name="caron">
          -5 529 -21 148 -20 hstem
          309 652 rmoveto
          -35 -26 -35 -27 -33 -27 rrcurveto
          25 -24 -47 57 -25 hhcurveto
          -17 -11 -10 -14 -6 3 -7 4 -4 hvcurveto
          29 -31 32 -34 30 -30 rrcurveto
          -6 7 8 -4 8 hhcurveto
          5 8 2 5 7 hvcurveto
          40 32 42 32 39 33 rrcurveto
          7 6 2 8 6 vvcurveto
          13 -12 11 -16 -4 -6 -1 -3 -6 vhcurveto
          endchar
        </CharString>
        <CharString name="ccedilla">
          -8 -130 -21 131 63 346 62 hstem
          25 63 123 68 29 61 vstem
          258 207 rmoveto
          59 52 60 57 67 -40 60 -81 -139 -84 -142 -126 -102 64 -98 107 -3 hvcurveto
          12 -4 3 -7 -7 vvcurveto
          -21 -37 -26 -26 -6 vhcurveto
          -19 -4 -9 -15 -13 vvcurveto
          -16 13 -12 20 vhcurveto
          6 hlineto
          69 13 51 56 51 vvcurveto
          9 -1 9 -4 8 vhcurveto
          52 19 48 36 17 42 rrcurveto
          2 5 0 3 2 vvcurveto
          20 -18 14 -16 -18 -20 -12 -23 vhcurveto
          -5 vlineto
          -32 -26 -50 -21 -44 hhcurveto
          -82 -31 78 63 95 60 110 95 37 28 -24 -34 -25 -16 -25 -24 -9 hvcurveto
          7 -8 -10 3 -11 hhcurveto
          -17 -15 -13 -21 -27 22 -14 29 hvcurveto
          endchar
        </CharString>
        <CharString name="cedilla">
          -106 -134 -21 199 -20 hstem
          114 124 vstem
          142 -19 rmoveto
          24 -4 9 -8 -9 vvcurveto
          -21 -42 -26 -26 -6 vhcurveto
          -19 -4 -9 -15 -13 vvcurveto
          -16 12 -14 20 vhcurveto
          6 hlineto
          69 13 52 58 51 vvcurveto
          35 -27 42 -59 -24 -14 -13 -18 -13 9 -14 19 -5 vhcurveto
          endchar
        </CharString>
        <CharString name="cent">
          -8 -21 759 -20 hstem
          42 63 98 63 100 63 vstem
          294 730 rmoveto
          -18 -2 -15 -6 -23 -97 rrcurveto
          -124 -25 -72 -151 -119 vvcurveto
          -106 51 -120 114 -22 vhcurveto
          -10 vlineto
          -37 2 3 -64 43 hhcurveto
          23 17 18 25 8 -3 35 -20 16 hvcurveto
          -1 7 75 9 68 51 25 81 rlinecurve
          1 3 0 3 2 vvcurveto
          21 -15 12 -15 -12 -14 -8 -18 -6 vhcurveto
          -16 -50 -45 -35 -50 -8 rrcurveto
          -1 30 0 28 35 vvcurveto
          143 13 109 14 76 vhcurveto
          39 -6 34 -29 -49 vvcurveto
          -1 -3 -1 -7 -2 vvcurveto
          -21 16 -8 15 12 22 9 27 66 -44 70 -79 15 vhcurveto
          5 17 rlineto
          18 14 6 20 19 vvcurveto
          24 -20 10 -16 vhcurveto
          -194 -401 rmoveto
          86 43 106 77 34 vhcurveto
          -13 -83 -9 -111 -132 vvcurveto
          -29 0 -25 1 -26 vhcurveto
          -66 25 -33 82 73 vvcurveto
          endchar
        </CharString>
        <CharString name="circumflex">
          11 529 -21 148 -20 hstem
          125 512 rmoveto
          35 26 35 27 33 27 rrcurveto
          -25 24 47 -57 25 hhcurveto
          17 11 10 14 6 -3 7 -4 4 hvcurveto
          -29 31 -32 34 -30 30 rrcurveto
          6 -7 -8 4 -8 hhcurveto
          -5 -8 -2 -5 -7 hvcurveto
          -40 -32 -42 -32 -39 -33 rrcurveto
          -7 -6 -2 -8 -6 vvcurveto
          -13 12 -11 16 4 6 1 3 6 vhcurveto
          endchar
        </CharString>
        <CharString name="colon">
          -120 -3 108 217 108 hstem
          177 40 rmoveto
          2 6 0 6 5 vvcurveto
          26 -16 22 -24 -25 -26 -25 -34 -27 17 -22 24 21 20 17 26 7 vhcurveto
          16 325 rmoveto
          2 6 0 6 5 vvcurveto
          26 -16 22 -24 -25 -26 -25 -34 -27 17 -22 24 21 20 17 26 7 vhcurveto
          endchar
        </CharString>
        <CharString name="comma">
          -162 -80 -21 223 -20 hstem
          130 63 vstem
          123 55 rmoveto
          5 -6 2 -10 -12 vvcurveto
          -36 -14 -17 -12 -14 vhcurveto
          -8 -10 -8 -8 -11 vvcurveto
          -20 10 -12 19 16 13 8 12 10 vhcurveto
          25 29 12 53 32 vvcurveto
          45 -17 44 -34 -18 -15 -16 -18 vhcurveto
          1 -14 4 -10 9 -9 rrcurveto
          endchar
        </CharString>
        <CharString name="copyright">
          320 -82 60 51 63 -63 156 253 62 58 60 hstemhm
          19 63 92 63 119 162 -61 61 141 63 hintmask 1011111011000000
          19 263 rmoveto
          -182 5 142 -163 192 hhcurveto
          215 149 160 190 191 -148 159 -216 -192 -141 -163 -182 -6 hvcurveto
          63 -5 rmoveto
          153 129 137 157 151 140 -126 -164 -163 -139 -127 -151 -157 -130 136 154 vhcurveto
          325 -12 rmoveto
          59 52 60 57 67 -40 60 -81 -139 -84 -142 -126 -103 66 -100 110 73 92 51 61 25 hvcurveto
          2 5 0 3 2 vvcurveto
          20 -18 14 -16 -18 -20 -12 -23 vhcurveto
          -5 vlineto
          hintmask 1101111011000000
          -32 -26 -50 -21 -44 hhcurveto
          -82 -31 78 63 95 60 110 95 37 28 -24 -34 -25 -16 -25 -24 -9 hvcurveto
          7 -8 -10 3 -11 hhcurveto
          hintmask 1101111101000000
          -17 -15 -13 -21 -27 22 -14 29 hvcurveto
          endchar
        </CharString>
        <CharString name="d">
          80 5 62 -51 -21 373 63 370 -20 hstemhm
          25 63 265 61 hintmask 10111100
          452 57 rmoveto
          -23 14 -15 133 123 vvcurveto
          97 9 117 17 132 vhcurveto
          1 8 1 6 1 6 rrcurveto
          16 7 24 30 30 vvcurveto
          23 -18 18 -22 -40 -16 -41 -79 -10 vhcurveto
          -11 -85 -9 -95 -4 -93 rrcurveto
          16 -23 -30 7 -41 hhcurveto
          -103 -131 -101 -150 -105 77 -70 85 65 70 33 70 46 hvcurveto
          8 -34 10 -30 13 -25 rrcurveto
          hintmask 01111100
          -20 11 15 -4 9 hhcurveto
          19 13 9 21 2 hvcurveto
          13 -6 12 -10 7 vhcurveto
          -99 136 rmoveto
          hintmask 10111100
          -76 -28 -74 -50 -64 hhcurveto
          -50 -49 44 73 106 104 78 67 47 23 -11 -30 23 hvcurveto
          -36 0 -56 3 -33 vhcurveto
          endchar
        </CharString>
        <CharString name="dagger">
          -84 25 -21 407 83 216 -20 hstemhm
          0 187 -61 61 hintmask 11101000
          115 248 rmoveto
          -65 6 -70 5 -71 vhcurveto
          -27 2 20 -11 17 hhcurveto
          21 18 21 21 9 0 26 -17 22 hvcurveto
          -3 44 -3 43 42 vvcurveto
          102 vlineto
          9 1 39 1 32 vhcurveto
          -2 21 20 -1 6 hhcurveto
          47 62 2 41 20 -16 20 -23 -6 -14 -2 -13 -5 hvcurveto
          -5 -2 -41 0 -9 hhcurveto
          -5 -15 1 2 -17 hvcurveto
          5 52 12 65 9 27 rrcurveto
          20 5 7 23 17 vvcurveto
          23 -15 21 -24 -43 -26 -109 -116 -10 vhcurveto
          -89 18 rlineto
          hintmask 11110000
          -17 -15 -13 -18 -34 31 -5 87 -13 hvcurveto
          endchar
        </CharString>
        <CharString name="daggerdbl">
          -76 25 -21 197 83 127 83 216 -20 hstemhm
          8 181 -55 55 hintmask 11110100
          118 210 rmoveto
          1 2 -1 2 hhcurveto
          2 -54 5 -56 4 -57 rrcurveto
          -27 2 20 -11 17 hhcurveto
          21 18 21 21 9 0 26 -17 22 hvcurveto
          -3 34 -2 34 -1 33 rrcurveto
          -2 21 17 -1 3 hhcurveto
          47 62 2 41 20 -16 20 -23 -6 -14 -2 -13 -5 hvcurveto
          -5 -2 -41 0 -9 hhcurveto
          -2 -15 1 2 -17 hvcurveto
          67 vlineto
          9 1 39 1 32 vhcurveto
          -2 21 20 -1 6 hhcurveto
          47 62 2 41 20 -16 20 -23 -6 -14 -2 -13 -5 hvcurveto
          -5 -2 -41 0 -9 hhcurveto
          -5 -15 1 2 -17 hvcurveto
          5 52 12 65 9 27 rrcurveto
          20 5 7 23 17 vvcurveto
          23 -15 21 -24 -43 -26 -109 -116 -10 vhcurveto
          -89 18 rlineto
          hintmask 11111000
          -17 -15 -13 -18 -34 31 -5 87 -13 hvcurveto
          -3 -31 -1 -29 -30 vvcurveto
          -18 0 -20 1 -18 vhcurveto
          -1 -1 1 0 hvcurveto
          -89 18 rlineto
          -17 -15 -13 -18 -34 31 -5 87 -13 hvcurveto
          endchar
        </CharString>
        <CharString name="degree">
          6 412 63 184 61 7 -20 hstemhm
          100 62 152 63 hintmask 11011000
          184 718 rmoveto
          -48 -30 -36 -73 -67 vvcurveto
          -84 48 -52 63 88 78 106 96 75 -45 31 -45 -11 -18 -3 -6 -14 vhcurveto
          hintmask 10111000
          9 -9 -10 7 -13 hhcurveto
          -9 -9 -3 -6 -10 hvcurveto
          15 -110 rmoveto
          hintmask 11011000
          38 26 51 40 hhcurveto
          7 4 -15 -20 -54 -38 -95 -65 -31 -18 43 24 24 1 26 8 20 hvcurveto
          -1 7 14 -3 7 hhcurveto
          endchar
        </CharString>
        <CharString name="dieresis">
          -20 498 111 hstem
          97 91 46 91 vstem
          97 553 rmoveto
          -31 20 -24 25 25 21 24 31 31 -21 25 -25 -25 -20 -25 -31 vhcurveto
          137 hmoveto
          -31 20 -24 25 25 21 24 31 31 -21 25 -25 -25 -20 -25 -31 vhcurveto
          endchar
        </CharString>
        <CharString name="divide">
          46 108 50 80 -61 61 63 108 hstemhm
          hintmask 10110000
          288 89 rmoveto
          2 6 0 6 5 vvcurveto
          26 -16 22 -24 -25 -26 -25 -34 -27 17 -22 24 21 20 17 26 7 vhcurveto
          19 301 rmoveto
          2 6 0 6 5 vvcurveto
          26 -16 22 -24 -25 -26 -25 -34 -27 17 -22 24 21 20 17 26 7 vhcurveto
          -217 -196 rmoveto
          35 3 12 14 23 4 rrcurveto
          6 34 48 2 41 hhcurveto
          27 23 -1 -3 9 hvcurveto
          hintmask 11010000
          0 22 -15 37 43 6 21 10 25 -12 24 -124 vhcurveto
          -104 hlineto
          -86 -5 -75 -13 -40 vvcurveto
          -16 16 -16 25 vhcurveto
          endchar
        </CharString>
        <CharString name="dollar">
          -9 -21 672 60 72 -20 hstem
          8 63 22 83 30 65 80 63 3 63 vstem
          302 774 rmoveto
          -9 -1 -7 -5 -7 -7 -8 -8 -10 -25 -10 -40 rrcurveto
          -119 -38 -124 -108 -95 vvcurveto
          -104 105 -25 93 -22 vhcurveto
          -46 vlineto
          -49 2 -52 3 -52 vhcurveto
          -31 5 -19 19 -5 24 rrcurveto
          12 7 8 15 16 vvcurveto
          25 -17 14 -22 2 vhcurveto
          -33 -11 -28 -31 -93 61 -36 63 -3 hvcurveto
          -1 vlineto
          -30 3 8 -32 32 hhcurveto
          23 17 18 25 5 -1 14 -5 14 hvcurveto
          69 27 51 66 68 vvcurveto
          80 -68 33 -75 22 vhcurveto
          5 127 17 102 14 68 rrcurveto
          2 12 12 1 12 hhcurveto
          53 21 -34 -38 -28 -14 -40 -19 -18 hvcurveto
          4 -5 -7 3 -7 hhcurveto
          -24 -1 -10 -19 -18 vvcurveto
          -22 16 -19 27 79 27 129 35 81 -58 45 -90 vhcurveto
          8 11 3 14 13 vvcurveto
          24 -20 10 -16 vhcurveto
          -236 -328 rmoveto
          61 78 73 87 37 vhcurveto
          -13 -67 -10 -89 -5 -102 rrcurveto
          -73 19 -64 17 51 vvcurveto
          280 -240 rmoveto
          -47 -35 -38 -42 -16 vhcurveto
          -4 52 -1 51 49 vvcurveto
          23 vlineto
          47 -14 35 -20 -40 vvcurveto
          endchar
        </CharString>
        <CharString name="dotaccent">
          -174 500 108 hstem
          168 543 rmoveto
          2 6 0 6 5 vvcurveto
          26 -16 22 -24 -25 -26 -25 -34 -27 17 -22 24 21 20 17 26 7 vhcurveto
          endchar
        </CharString>
        <CharString name="dotlessi">
          -238 21 -21 443 -20 hstemhm
          56 62 -62 94 hintmask 11100000
          140 40 rmoveto
          35 -20 14 -2 22 vhcurveto
          -5 71 0 37 42 vvcurveto
          24 8 49 0 vhcurveto
          hintmask 11010000
          0 29 27 39 vvcurveto
          41 -32 2 -10 -17 -31 -7 -99 -4 vhcurveto
          -2 -49 -1 -17 -16 vvcurveto
          -92 vlineto
          -88 8 -75 42 16 20 16 24 1 vhcurveto
          endchar
        </CharString>
        <CharString name="e">
          39 -19 63 -63 181 25 63 134 63 hstemhm
          20 94 -63 63 211 64 hintmask 01111010
          436 103 rmoveto
          4 9 2 8 6 vvcurveto
          24 -19 12 -18 -19 -25 -21 -28 vhcurveto
          -8 vlineto
          hintmask 10111010
          -37 -31 -54 -24 -46 hhcurveto
          -58 -58 36 107 hvcurveto
          83 1 144 8 30 33 rrcurveto
          14 15 4 26 26 vvcurveto
          88 -56 63 -69 -98 -84 -94 -102 -23 vhcurveto
          -21 -18 -9 -23 hvcurveto
          hintmask 10110110
          -16 14 -15 17 vhcurveto
          -9 vlineto
          -134 79 -64 100 80 94 53 69 32 vhcurveto
          -172 281 rmoveto
          42 19 -48 -40 -12 -1 -9 -3 -4 hvcurveto
          -17 -10 -107 -9 -73 -2 rrcurveto
          71 20 60 63 60 hhcurveto
          endchar
        </CharString>
        <CharString name="eacute">
          39 -19 63 -63 181 25 63 134 63 76 -21 172 -20 hstemhm
          20 94 -63 63 211 64 hintmask 0111001010000000
          436 103 rmoveto
          4 9 2 8 6 vvcurveto
          24 -19 12 -18 -19 -25 -21 -28 vhcurveto
          -8 vlineto
          hintmask 1011001010000000
          -37 -31 -54 -24 -46 hhcurveto
          -58 -58 36 107 hvcurveto
          83 1 144 8 30 33 rrcurveto
          14 15 4 26 26 vvcurveto
          88 -56 63 -69 -98 -84 -94 -102 -23 vhcurveto
          -21 -18 -9 -23 hvcurveto
          hintmask 1011000110000000
          -16 14 -15 17 vhcurveto
          -9 vlineto
          -134 79 -64 100 80 94 53 69 32 vhcurveto
          -172 281 rmoveto
          42 19 -48 -40 -12 -1 -9 -3 -4 hvcurveto
          -17 -10 -107 -9 -73 -2 rrcurveto
          71 20 60 63 60 hhcurveto
          hintmask 0000110000000000
          64 271 rmoveto
          -29 -58 -36 -29 -36 -13 rrcurveto
          -11 -4 -8 -11 -13 vvcurveto
          -18 14 -7 13 3 4 0 1 5 vhcurveto
          71 18 43 51 29 51 rrcurveto
          3 5 1 6 5 vvcurveto
          20 -18 15 -15 -12 -11 -5 -14 -10 vhcurveto
          endchar
        </CharString>
        <CharString name="ecircumflex">
          39 -19 63 -63 181 25 63 134 63 65 -21 148 -20 hstemhm
          20 94 -63 63 211 64 hintmask 0111001010000000
          436 103 rmoveto
          4 9 2 8 6 vvcurveto
          24 -19 12 -18 -19 -25 -21 -28 vhcurveto
          -8 vlineto
          hintmask 1011001010000000
          -37 -31 -54 -24 -46 hhcurveto
          -58 -58 36 107 hvcurveto
          83 1 144 8 30 33 rrcurveto
          14 15 4 26 26 vvcurveto
          88 -56 63 -69 -98 -84 -94 -102 -23 vhcurveto
          -21 -18 -9 -23 hvcurveto
          hintmask 1011000110000000
          -16 14 -15 17 vhcurveto
          -9 vlineto
          -134 79 -64 100 80 94 53 69 32 vhcurveto
          -172 281 rmoveto
          42 19 -48 -40 -12 -1 -9 -3 -4 hvcurveto
          -17 -10 -107 -9 -73 -2 rrcurveto
          71 20 60 63 60 hhcurveto
          hintmask 0000110000000000
          -112 111 rmoveto
          35 26 35 27 33 27 rrcurveto
          -25 24 47 -57 25 hhcurveto
          17 11 10 14 6 -3 7 -4 4 hvcurveto
          -29 31 -32 34 -30 30 rrcurveto
          6 -7 -8 4 -8 hhcurveto
          -5 -8 -2 -5 -7 hvcurveto
          -40 -32 -42 -32 -39 -33 rrcurveto
          -7 -6 -2 -8 -6 vvcurveto
          -13 12 -11 16 4 6 1 3 6 vhcurveto
          endchar
        </CharString>
        <CharString name="edieresis">
          39 -19 63 -63 181 25 63 134 63 59 111 hstemhm
          20 94 -63 63 24 91 46 91 -41 64 hintmask 0111010001000000
          436 103 rmoveto
          4 9 2 8 6 vvcurveto
          24 -19 12 -18 -19 -25 -21 -28 vhcurveto
          -8 vlineto
          hintmask 1011010001000000
          -37 -31 -54 -24 -46 hhcurveto
          -58 -58 36 107 hvcurveto
          83 1 144 8 30 33 rrcurveto
          14 15 4 26 26 vvcurveto
          88 -56 63 -69 -98 -84 -94 -102 -23 vhcurveto
          -21 -18 -9 -23 hvcurveto
          hintmask 1011001001000000
          -16 14 -15 17 vhcurveto
          -9 vlineto
          -134 79 -64 100 80 94 53 69 32 vhcurveto
          -172 281 rmoveto
          42 19 -48 -40 -12 -1 -9 -3 -4 hvcurveto
          -17 -10 -107 -9 -73 -2 rrcurveto
          71 20 60 63 60 hhcurveto
          hintmask 0000100110000000
          -126 177 rmoveto
          -31 20 -24 25 25 21 24 31 31 -21 25 -25 -25 -20 -25 -31 vhcurveto
          137 hmoveto
          -31 20 -24 25 25 21 24 31 31 -21 25 -25 -25 -20 -25 -31 vhcurveto
          endchar
        </CharString>
        <CharString name="egrave">
          39 -19 63 -63 181 25 63 134 63 75 -21 172 -20 hstemhm
          20 94 -63 63 211 64 hintmask 0111001010000000
          436 103 rmoveto
          4 9 2 8 6 vvcurveto
          24 -19 12 -18 -19 -25 -21 -28 vhcurveto
          -8 vlineto
          hintmask 1011001010000000
          -37 -31 -54 -24 -46 hhcurveto
          -58 -58 36 107 hvcurveto
          83 1 144 8 30 33 rrcurveto
          14 15 4 26 26 vvcurveto
          88 -56 63 -69 -98 -84 -94 -102 -23 vhcurveto
          -21 -18 -9 -23 hvcurveto
          hintmask 1011000110000000
          -16 14 -15 17 vhcurveto
          -9 vlineto
          -134 79 -64 100 80 94 53 69 32 vhcurveto
          -172 281 rmoveto
          42 19 -48 -40 -12 -1 -9 -3 -4 hvcurveto
          -17 -10 -107 -9 -73 -2 rrcurveto
          71 20 60 63 60 hhcurveto
          hintmask 0000110000000000
          -78 270 rmoveto
          14 -10 -11 5 -12 hhcurveto
          -15 -18 -15 -20 -5 1 -6 3 -5 hvcurveto
          29 -51 43 -51 71 -18 rrcurveto
          -1 5 4 0 3 hhcurveto
          13 14 7 18 13 -8 11 -11 4 hvcurveto
          -36 13 -36 29 -29 58 rrcurveto
          endchar
        </CharString>
        <CharString name="eight">
          138 -10 63 513 158 -63 63 hstemhm
          35 63 -41 63 256 63 19 83 hintmask 10110110
          541 630 rmoveto
          71 -86 23 -66 -175 -171 -74 -132 -8 vhcurveto
          -85 92 -56 83 -48 vhcurveto
          hintmask 11001110
          -50 -39 -103 -79 -89 vvcurveto
          -88 81 -44 80 100 121 72 109 72 -54 51 -61 40 vhcurveto
          45 30 7 6 28 20 rrcurveto
          35 25 97 60 35 vvcurveto
          20 -14 12 -16 -11 -13 -5 -15 -7 vhcurveto
          -32 -28 -32 -26 -37 -23 -49 -31 -11 -12 -48 -33 rrcurveto
          hintmask 10110110
          -23 10 -145 62 75 vvcurveto
          107 197 38 87 34 58 -7 -25 4 vhcurveto
          -11 -3 -9 -14 -15 vvcurveto
          hintmask 11001110
          -16 14 -15 21 23 25 26 38 vhcurveto
          -251 -351 rmoveto
          35 -26 51 -31 -51 vvcurveto
          -70 -86 -48 -73 -48 -47 19 49 -2 vhcurveto
          1 55 75 67 70 52 9 -6 8 -5 7 -5 rrcurveto
          endchar
        </CharString>
        <CharString name="ellipsis">
          396 -3 108 hstem
          177 40 rmoveto
          2 6 0 6 5 vvcurveto
          26 -16 22 -24 -25 -26 -25 -34 -27 17 -22 24 21 20 17 26 7 vhcurveto
          276 hmoveto
          2 6 0 6 5 vvcurveto
          26 -16 22 -24 -25 -26 -25 -34 -27 17 -22 24 21 20 17 26 7 vhcurveto
          277 hmoveto
          2 6 0 6 5 vvcurveto
          26 -16 22 -24 -25 -26 -25 -34 -27 17 -22 24 21 20 17 26 7 vhcurveto
          endchar
        </CharString>
        <CharString name="emdash">
          517 196 86 -70 -21 24 67 hstemhm
          hintmask 01100000
          819 191 rmoveto
          24 18 16 16 19 -7 26 -35 4 hvcurveto
          hintmask 10000000
          6 -50 -83 4 -104 -111 -134 -4 -143 hhcurveto
          -83 -30 -16 -35 -11 11 -20 35 19 20 12 0 hvcurveto
          hintmask 01100000
          3 10 99 4 305 hhcurveto
          86 71 -1 -2 13 hvcurveto
          22 -4 12 -14 35 -3 rrcurveto
          endchar
        </CharString>
        <CharString name="endash">
          277 194 80 -69 -21 29 61 hstemhm
          hintmask 01100000
          579 184 rmoveto
          24 18 16 16 hvcurveto
          hintmask 10000000
          53 -67 5 -359 -125 0 -23 -27 -11 12 -19 34 35 15 14 0 vhcurveto
          hintmask 01100000
          3 9 23 2 27 hhcurveto
          40 219 -2 -6 34 hvcurveto
          22 -4 4 -14 35 -3 rrcurveto
          endchar
        </CharString>
        <CharString name="equal">
          106 112 80 -69 -21 29 61 64 80 -61 61 hstemhm
          hintmask 10001000
          101 246 rmoveto
          35 3 12 14 22 4 rrcurveto
          6 34 50 2 40 hhcurveto
          27 23 -2 -3 9 hvcurveto
          hintmask 01110000
          0 20 -14 35 47 5 19 11 26 -11 24 -125 vhcurveto
          -104 hlineto
          -86 -5 -75 -13 -40 vvcurveto
          -16 18 -16 24 vhcurveto
          -1 -144 rmoveto
          35 3 12 14 23 4 rrcurveto
          6 34 48 2 41 hhcurveto
          27 23 -1 -3 9 hvcurveto
          hintmask 10010000
          0 22 -15 37 43 6 21 10 25 -12 24 -124 vhcurveto
          -104 hlineto
          -86 -5 -75 -13 -40 vvcurveto
          hintmask 01110000
          -16 16 -16 25 vhcurveto
          endchar
        </CharString>
        <CharString name="eth">
          -9 63 392 62 255 -20 hstem
          49 63 311 63 vstem
          190 523 rmoveto
          28 21 3 18 17 15 11 10 12 10 12 10 33 -30 29 -32 23 -37 rrcurveto
          -146 -5 -163 -87 -181 vvcurveto
          -127 78 -117 141 156 62 140 144 153 -60 123 -99 92 vhcurveto
          11 18 15 6 7 hhcurveto
          -4 90 12 45 18 -15 13 -21 -25 -41 -16 -48 -72 hvcurveto
          -37 28 -42 25 -45 22 rrcurveto
          3 -6 -5 1 -6 hhcurveto
          -18 -12 -14 -16 -10 5 -11 12 -8 hvcurveto
          35 -17 34 -20 30 -21 rrcurveto
          -51 -37 -39 -36 -29 vvcurveto
          -15 10 -14 20 8 9 3 5 9 vhcurveto
          233 -250 rmoveto
          -101 -37 -118 -112 -105 -57 87 91 151 142 63 117 7 6 2 3 4 vhcurveto
          23 -53 12 -59 -66 vvcurveto
          endchar
        </CharString>
        <CharString name="exclam">
          -122 -3 108 696 -20 hstemhm
          126 60 -60 82 -58 97 hintmask 11100000
          195 224 rmoveto
          18 -5 14 -7 12 vhcurveto
          3 82 6 147 10 111 14 61 rlinecurve
          hintmask 11001000
          13 21 18 32 39 vvcurveto
          24 -17 16 -26 -17 -30 -10 -94 -7 vhcurveto
          -5 vlineto
          hintmask 11010000
          -1 -19 -23 -259 -11 vvcurveto
          -5 -165 1 -2 -1 -2 rrcurveto
          -31 6 -31 28 22 18 18 34 vhcurveto
          -29 -227 rmoveto
          29 13 26 26 28 -15 28 -29 -23 -21 -25 -30 -31 20 -22 26 hvcurveto
          endchar
        </CharString>
        <CharString name="exclamdown">
          -140 -212 -21 696 108 hstemhm
          54 97 -58 82 -60 60 hintmask 11001000
          106 344 rmoveto
          -18 5 -14 7 -12 vhcurveto
          -3 -82 -6 -147 -10 -111 -14 -61 rlinecurve
          hintmask 11100000
          -13 -21 -18 -32 -39 vvcurveto
          -24 17 -16 26 17 30 10 94 7 vhcurveto
          5 vlineto
          hintmask 11010000
          1 19 23 259 11 vvcurveto
          5 165 -1 2 1 2 rrcurveto
          31 -6 31 -28 -22 -18 -18 -34 vhcurveto
          29 227 rmoveto
          -29 -13 -26 -26 -28 15 -28 29 23 21 25 30 31 -20 22 -26 hvcurveto
          endchar
        </CharString>
        <CharString name="f">
          -69 -4 -21 761 63 hstemhm
          -10 177 -63 93 129 63 hintmask 11101000
          180 451 rmoveto
          160 18 46 125 40 hhcurveto
          34 8 -62 -37 hvcurveto
          -8 -8 -3 -10 -16 vvcurveto
          -20 13 -24 25 36 0 42 31 105 -39 62 -66 -89 -56 -135 -218 -23 vhcurveto
          -44 -6 -38 -8 -17 -5 rrcurveto
          -17 -5 -10 -12 -17 vvcurveto
          -18 15 -13 17 vhcurveto
          87 18 rlineto
          hintmask 11011000
          -1 -40 -4 -113 -43 vvcurveto
          -78 5 -54 8 -34 vhcurveto
          -38 9 21 -5 10 hhcurveto
          25 15 26 30 18 -4 25 -18 9 hvcurveto
          hintmask 11101000
          -5 21 -3 27 57 vvcurveto
          46 4 114 3 41 vhcurveto
          1 13 13 1 13 hhcurveto
          9 41 0 -5 2 hvcurveto
          -13 5 14 -2 6 hhcurveto
          23 16 20 20 17 -11 14 -26 5 hvcurveto
          4 -24 -25 1 -23 hhcurveto
          endchar
        </CharString>
        <CharString name="fi">
          127 -4 -21 46 -21 539 108 -88 88 89 63 hstemhm
          -10 177 -63 93 129 63 16 62 -62 94 hintmask 1101110110000000
          180 451 rmoveto
          160 18 46 125 40 hhcurveto
          34 8 -62 -37 hvcurveto
          -8 -8 -3 -10 -16 vvcurveto
          -20 13 -24 25 36 0 42 31 105 -39 62 -66 -89 -56 -135 -218 -23 vhcurveto
          -44 -6 -38 -8 -17 -5 rrcurveto
          -17 -5 -10 -12 -17 vvcurveto
          -18 15 -13 17 vhcurveto
          87 18 rlineto
          hintmask 1110101110000000
          -1 -40 -4 -113 -43 vvcurveto
          -78 5 -54 8 -34 vhcurveto
          -38 9 21 -5 10 hhcurveto
          25 15 26 30 18 -4 25 -18 9 hvcurveto
          hintmask 1110110110000000
          -5 21 -3 27 57 vvcurveto
          46 4 114 3 41 vhcurveto
          1 13 13 1 13 hhcurveto
          9 41 0 -5 2 hvcurveto
          -13 5 14 -2 6 hhcurveto
          23 16 20 20 17 -11 14 -26 5 hvcurveto
          4 -24 -25 1 -23 hhcurveto
          293 130 rmoveto
          2 6 0 6 5 vvcurveto
          26 -16 22 -24 -25 -26 -25 -34 -27 17 -22 24 21 20 17 26 7 vhcurveto
          -24 -542 rmoveto
          35 -20 14 -2 22 vhcurveto
          -5 71 0 37 42 vvcurveto
          24 8 49 0 vhcurveto
          hintmask 1110110101000000
          0 29 27 39 vvcurveto
          41 -32 2 -10 -17 -31 -7 -99 -4 vhcurveto
          -2 -49 -1 -17 -16 vvcurveto
          -92 vlineto
          -88 8 -75 42 16 20 16 24 1 vhcurveto
          endchar
        </CharString>
        <CharString name="five">
          93 -35 63 367 63 200 75 -63 63 hstemhm
          72 73 249 63 hintmask 11011100
          430 670 rmoveto
          hintmask 11101100
          -8 11 11 -4 16 hhcurveto
          28 20 19 20 18 -20 18 -27 -42 -230 -24 -25 -13 hvcurveto
          -25 -49 -3 -35 -32 -71 -30 -67 -24 -40 -34 -34 rrcurveto
          -4 -6 -2 -5 -7 vvcurveto
          -19 15 -15 15 7 9 3 4 5 vhcurveto
          30 38 73 22 63 hhcurveto
          77 62 -35 -103 -101 -79 -128 -101 -55 -14 40 36 -7 hvcurveto
          5 6 2 20 8 vvcurveto
          24 -11 20 -21 -23 -18 -16 -30 -85 42 -86 97 143 103 159 139 140 -90 55 -105 -36 -33 -3 -13 -39 vhcurveto
          42 53 16 85 30 63 rrcurveto
          hintmask 11011100
          70 16 49 9 69 2 rrcurveto
          endchar
        </CharString>
        <CharString name="fl">
          151 -4 -21 37 -21 745 63 -4 -20 hstemhm
          -10 177 -63 93 129 63 34 63 -63 137 hintmask 1010101100000000
          180 451 rmoveto
          160 18 46 125 40 hhcurveto
          34 8 -62 -37 hvcurveto
          -8 -8 -3 -10 -16 vvcurveto
          -20 13 -24 25 36 0 42 31 105 -39 62 -66 -89 -56 -135 -218 -23 vhcurveto
          -44 -6 -38 -8 -17 -5 rrcurveto
          -17 -5 -10 -12 -17 vvcurveto
          -18 15 -13 17 vhcurveto
          87 18 rlineto
          hintmask 1010011100000000
          -1 -40 -4 -113 -43 vvcurveto
          -78 5 -54 8 -34 vhcurveto
          -38 9 21 -5 10 hhcurveto
          25 15 26 30 18 -4 25 -18 9 hvcurveto
          hintmask 0101101100000000
          -5 21 -3 27 57 vvcurveto
          46 4 114 3 41 vhcurveto
          1 13 13 1 13 hhcurveto
          9 41 0 -5 2 hvcurveto
          -13 5 14 -2 6 hhcurveto
          23 16 20 20 17 -11 14 -26 5 hvcurveto
          4 -24 -25 1 -23 hhcurveto
          299 343 rmoveto
          -9 -1 -7 -5 -7 -7 rrcurveto
          -24 -24 -49 -206 -281 vvcurveto
          -69 4 -74 7 -75 vhcurveto
          -30 3 8 -32 32 hhcurveto
          23 17 18 25 8 -3 35 -20 16 hvcurveto
          -6 64 -2 62 59 vvcurveto
          203 31 156 19 71 vhcurveto
          hintmask 1001101010000000
          18 14 6 20 19 vvcurveto
          24 -20 10 -16 vhcurveto
          endchar
        </CharString>
        <CharString name="florin">
          -101 63 732 63 hstem
          -7 63 389 63 vstem
          213 272 rmoveto
          -160 -18 -57 -150 -40 hhcurveto
          -34 -8 62 37 hvcurveto
          8 8 3 10 16 vvcurveto
          20 -13 24 -25 -36 0 -42 -31 -105 39 -62 66 89 68 170 218 23 vhcurveto
          1 13 13 1 13 hhcurveto
          9 41 0 -5 2 hvcurveto
          -13 5 14 -2 6 hhcurveto
          23 16 20 20 17 -11 14 -26 5 hvcurveto
          4 -24 -25 1 -23 hhcurveto
          -14 -26 -1 0 hvcurveto
          160 18 46 185 55 hhcurveto
          34 8 -62 -37 hvcurveto
          -8 -8 -3 -10 -16 vvcurveto
          -20 13 -24 25 36 0 42 31 105 -39 62 -66 -101 -59 -195 -218 -23 vhcurveto
          -44 -6 -38 -8 -17 -5 rrcurveto
          -17 -5 -10 -12 -17 vvcurveto
          -18 15 -13 17 vhcurveto
          87 18 rlineto
          endchar
        </CharString>
        <CharString name="four">
          67 9 -21 240 62 -62 84 427 -20 hstemhm
          277 63 hintmask 10111000
          222 555 rmoveto
          14 7 10 18 19 vvcurveto
          19 -14 13 -16 -43 -42 -80 -47 -24 vhcurveto
          -3 -5 rlineto
          -23 -44 -46 -106 -28 vvcurveto
          -90 177 -3 65 vhcurveto
          2 -57 1 -62 6 -59 rrcurveto
          -30 3 8 -32 32 hhcurveto
          23 17 18 25 8 -3 35 -20 16 hvcurveto
          -5 47 0 49 -1 44 19 2 20 3 25 4 7 1 rcurveline
          0 19 -2 8 19 23 8 27 19 -15 20 -26 -12 -15 -4 -5 -9 vhcurveto
          -25 -4 -20 -4 -18 -2 1 192 14 98 19 69 rrcurveto
          18 14 6 20 19 vvcurveto
          24 -20 10 -16 vhcurveto
          -5 hlineto
          -9 -1 -7 -5 -7 -7 rrcurveto
          hintmask 11011000
          -24 -24 -32 -144 -1 -268 -55 1 -109 9 -11 23 5 46 60 130 40 45 rrcurveto
          1 7 6 8 4 vhcurveto
          endchar
        </CharString>
        <CharString name="fraction">
          153 10 -21 729 -20 hstem
          41 32 rmoveto
          -1 -4 0 -3 -3 vvcurveto
          -28 25 -5 10 22 20 25 25 6 -1 5 -1 6 vhcurveto
          30 68 107 184 129 158 34 42 48 64 49 52 rrcurveto
          24 23 23 8 7 hvcurveto
          7 10 3 10 6 vvcurveto
          16 -11 21 -18 -17 -25 -14 -14 -13 vhcurveto
          -53 -54 -55 -73 -44 -54 -161 -201 -130 -225 -8 -51 rrcurveto
          endchar
        </CharString>
        <CharString name="g">
          62 -297 63 234 63 320 29 -29 63 hstemhm
          25 63 272 64 hintmask 11101100
          -20 -90 rmoveto
          -34 32 -173 149 177 86 210 226 vhcurveto
          97 6 141 2 vvcurveto
          17 -11 16 -22 -19 -5 -12 -23 -10 vhcurveto
          hintmask 11011100
          43 -20 -38 26 -47 hhcurveto
          -99 -134 -180 -165 -66 30 -35 61 92 104 119 87 47 hvcurveto
          -1 1 -64 -22 vvcurveto
          -231 -98 -122 -101 -76 -33 73 43 -6 vhcurveto
          7 7 1 14 10 vvcurveto
          27 -3 -12 11 -21 hhcurveto
          -18 -20 -14 -27 hvcurveto
          136 153 rmoveto
          -11 -17 10 28 142 115 140 55 49 8 -52 -17 -16 8 -10 11 -1 hvcurveto
          -75 -27 -110 -149 -81 hhcurveto
          endchar
        </CharString>
        <CharString name="germandbls">
          186 -65 95 -32 63 -63 162 -139 -21 705 63 hstemhm
          251 92 -23 70 26 63 17 63 hintmask 0001110110000000
          479 633 rmoveto
          100 -75 35 -74 -124 -59 -100 -133 -8 vhcurveto
          -5 -80 -5 -105 -96 vvcurveto
          -111 -8 -63 -4 -31 vhcurveto
          -11 -2 -5 -38 -12 hhcurveto
          hintmask 1000101110000000
          19 -1 -14 11 -15 hhcurveto
          -17 -17 -15 -20 -29 28 -31 35 60 18 66 43 5 hvcurveto
          18 162 -13 137 17 197 rrcurveto
          67 6 31 98 90 hhcurveto
          44 43 -20 -52 hvcurveto
          -60 -96 -78 -47 -62 176 -79 -124 vvcurveto
          hintmask 0100110110000000
          -53 -36 -69 -67 -20 -29 7 18 -18 vhcurveto
          10 5 7 10 15 vvcurveto
          hintmask 0010110110000000
          29 -24 15 -20 -23 -25 -17 -31 -72 78 -42 62 105 63 96 94 vhcurveto
          hintmask 1000101110000000
          123 -169 111 24 38 89 75 74 vvcurveto
          endchar
        </CharString>
        <CharString name="grave">
          -82 520 -21 172 -20 hstem
          144 652 rmoveto
          14 -10 -11 5 -12 hhcurveto
          -15 -18 -15 -20 -5 1 -6 3 -5 hvcurveto
          29 -51 43 -51 71 -18 rrcurveto
          -1 5 4 0 3 hhcurveto
          13 14 7 18 13 -8 11 -11 4 hvcurveto
          -36 13 -36 29 -29 58 rrcurveto
          endchar
        </CharString>
        <CharString name="greater">
          208 84 -21 448 -20 hstem
          598 286 rmoveto
          10 -7 15 -17 8 vhcurveto
          -116 38 -101 35 -101 38 -55 21 -70 17 -47 36 rrcurveto
          5 -7 -8 2 -6 hhcurveto
          -17 -13 -14 -16 -49 146 -41 56 -21 hvcurveto
          78 -29 79 -27 79 -27 -79 -27 -79 -27 -78 -29 rrcurveto
          -56 -21 -146 -41 -49 vvcurveto
          -16 13 -14 17 6 8 2 5 7 vhcurveto
          47 36 70 17 55 21 101 38 101 34 116 39 rrcurveto
          18 6 6 15 10 vvcurveto
          endchar
        </CharString>
        <CharString name="greaterequal">
          211 7 80 -69 -21 29 61 465 -20 hstemhm
          hintmask 01110000
          602 327 rmoveto
          10 -7 15 -17 8 vhcurveto
          -116 38 -101 35 -101 38 -55 21 -70 17 -47 36 rrcurveto
          5 -7 -8 2 -6 hhcurveto
          -17 -13 -14 -16 -49 146 -41 56 -21 hvcurveto
          78 -29 79 -27 79 -27 -79 -27 -79 -27 -78 -29 rrcurveto
          -56 -21 -146 -41 -49 vvcurveto
          -16 13 -14 17 6 8 2 5 7 vhcurveto
          47 36 70 17 55 21 101 38 101 34 116 39 rrcurveto
          18 6 6 15 10 vvcurveto
          -42 -330 rmoveto
          24 18 16 16 hvcurveto
          hintmask 10010000
          53 -75 5 -359 -125 -11 -23 -27 -11 5 -19 47 35 20 14 0 vhcurveto
          hintmask 01110000
          3 9 23 2 27 hhcurveto
          40 219 -2 -6 34 hvcurveto
          22 -4 12 -14 35 -3 rrcurveto
          endchar
        </CharString>
        <CharString name="guillemotleft">
          34 -21 469 -20 hstem
          253 433 rmoveto
          19 vlineto
          17 -2 -16 13 -22 hhcurveto
          -28 -13 -38 -21 -11 hvcurveto
          -21 -39 -24 -37 -25 -36 -16 -24 -25 -26 -8 -28 rrcurveto
          -12 2 -6 7 -10 vhcurveto
          109 -103 rlineto
          -57 59 3 -32 23 hhcurveto
          12 20 11 22 10 -10 19 -8 10 hvcurveto
          -38 58 -58 46 -51 44 36 55 38 49 33 63 14 1 17 13 3 19 rrcurveto
          190 hmoveto
          19 vlineto
          17 -2 -16 13 -22 hhcurveto
          -28 -13 -38 -21 -11 hvcurveto
          -21 -39 -24 -37 -25 -36 -16 -24 -25 -26 -8 -28 rrcurveto
          -12 2 -6 7 -10 vhcurveto
          109 -103 rlineto
          -60 64 -2 -29 23 hhcurveto
          12 20 11 22 10 -10 19 -8 10 hvcurveto
          -38 58 -58 46 -51 44 36 55 38 49 33 63 14 1 17 13 3 19 rrcurveto
          endchar
        </CharString>
        <CharString name="guillemotright">
          34 -21 469 -20 hstem
          257 433 rmoveto
          3 -19 17 -13 14 -1 33 -63 38 -49 36 -55 -51 -44 -58 -46 -38 -58 rrcurveto
          -8 -10 -10 -19 -10 vvcurveto
          -22 20 -11 12 23 3 32 57 59 vhcurveto
          109 103 rlineto
          7 10 2 6 12 vvcurveto
          -8 28 -25 26 -16 24 -25 36 -24 37 -21 39 rrcurveto
          21 -11 -13 38 -28 hhcurveto
          -22 -16 -13 -17 -2 hvcurveto
          -19 vlineto
          -190 hmoveto
          3 -19 17 -13 14 -1 33 -63 38 -49 36 -55 -51 -44 -58 -46 -38 -58 rrcurveto
          -8 -10 -10 -19 -10 vvcurveto
          -22 20 -11 12 23 -2 29 60 64 vhcurveto
          109 103 rlineto
          7 10 2 6 12 vvcurveto
          -8 28 -25 26 -16 24 -25 36 -24 37 -21 39 rrcurveto
          21 -11 -13 38 -28 hhcurveto
          -22 -16 -13 -17 -2 hvcurveto
          -19 vlineto
          endchar
        </CharString>
        <CharString name="guilsinglleft">
          -80 34 -21 469 -20 hstem
          255 433 rmoveto
          19 vlineto
          17 -2 -16 13 -22 hhcurveto
          -28 -13 -38 -21 -11 hvcurveto
          -21 -39 -24 -37 -25 -36 -16 -24 -25 -26 -8 -28 rrcurveto
          -12 2 -6 7 -10 vhcurveto
          109 -103 rlineto
          -60 64 -2 -29 23 hhcurveto
          12 20 11 22 10 -10 19 -8 10 hvcurveto
          -38 58 -58 46 -51 44 36 55 38 49 33 63 14 1 17 13 3 19 rrcurveto
          endchar
        </CharString>
        <CharString name="guilsinglright">
          -102 34 -21 469 -20 hstem
          67 433 rmoveto
          3 -19 17 -13 14 -1 33 -63 38 -49 36 -55 -51 -44 -58 -46 -38 -58 rrcurveto
          -8 -10 -10 -19 -10 vvcurveto
          -22 20 -11 12 23 -2 29 60 64 vhcurveto
          109 103 rlineto
          7 10 2 6 12 vvcurveto
          -8 28 -25 26 -16 24 -25 36 -24 37 -21 39 rrcurveto
          21 -11 -13 38 -28 hhcurveto
          -22 -16 -13 -17 -2 hvcurveto
          -19 vlineto
          endchar
        </CharString>
        <CharString name="h">
          94 21 -21 375 63 391 -20 hstemhm
          47 63 284 78 -60 60 hintmask 11110100
          183 790 rmoveto
          26 -13 13 -17 -80 -26 -185 -342 -86 4 -93 10 -94 vhcurveto
          -14 2 12 -15 15 hhcurveto
          14 14 11 16 3 hvcurveto
          92 19 73 256 109 hhcurveto
          75 15 -136 -101 -18 -3 -25 0 hvcurveto
          hintmask 11111000
          -9 -13 -6 -23 -14 vvcurveto
          -21 12 -22 23 15 16 7 25 6 vhcurveto
          2 16 4 40 49 vvcurveto
          122 -16 177 -134 -105 -65 -117 -103 -40 vhcurveto
          5 vlineto
          -1 37 -1 38 34 vvcurveto
          218 12 69 22 87 vhcurveto
          25 22 14 47 15 vvcurveto
          endchar
        </CharString>
        <CharString name="hungarumlaut">
          33 511 -21 191 -20 hstem
          224 493 rmoveto
          49 38 60 46 54 43 rrcurveto
          9 7 5 11 9 vvcurveto
          17 -13 17 -22 -6 -7 -3 -4 -5 vhcurveto
          -146 -153 rlineto
          -4 -4 -3 -7 -3 vvcurveto
          -9 8 -8 10 4 3 1 2 4 vhcurveto
          -155 hmoveto
          49 38 60 46 54 43 rrcurveto
          9 7 5 11 9 vvcurveto
          17 -13 17 -22 -6 -7 -3 -4 -5 vhcurveto
          -146 -153 rlineto
          -4 -4 -3 -7 -3 vvcurveto
          -9 8 -8 10 4 3 1 2 4 vhcurveto
          endchar
        </CharString>
        <CharString name="hyphen">
          106 203 80 -69 -21 29 61 hstemhm
          hintmask 01100000
          101 193 rmoveto
          35 3 12 14 22 4 rrcurveto
          6 34 30 2 40 hhcurveto
          27 23 -2 -3 9 hvcurveto
          hintmask 10000000
          0 20 -14 35 47 5 19 11 26 -11 24 -125 vhcurveto
          -84 hlineto
          -86 -5 -75 -13 -40 vvcurveto
          hintmask 01100000
          -16 18 -16 24 vhcurveto
          endchar
        </CharString>
        <CharString name="i">
          -222 21 -21 539 108 hstemhm
          56 62 -62 94 hintmask 11100000
          164 582 rmoveto
          2 6 0 6 5 vvcurveto
          26 -16 22 -24 -25 -26 -25 -34 -27 17 -22 24 21 20 17 26 7 vhcurveto
          -24 -542 rmoveto
          35 -20 14 -2 22 vhcurveto
          -5 71 0 37 42 vvcurveto
          24 8 49 0 vhcurveto
          hintmask 11010000
          0 29 27 39 vvcurveto
          41 -32 2 -10 -17 -31 -7 -99 -4 vhcurveto
          -2 -49 -1 -17 -16 vvcurveto
          -92 vlineto
          -88 8 -75 42 16 20 16 24 1 vhcurveto
          endchar
        </CharString>
        <CharString name="iacute">
          -238 21 -21 443 -20 99 -21 172 -20 hstemhm
          56 62 -62 94 hintmask 11001000
          140 40 rmoveto
          35 -20 14 -2 22 vhcurveto
          -5 71 0 37 42 vvcurveto
          24 8 49 0 vhcurveto
          hintmask 11000100
          0 29 27 39 vvcurveto
          41 -32 2 -10 -17 -31 -7 -99 -4 vhcurveto
          -2 -49 -1 -17 -16 vvcurveto
          -92 vlineto
          -88 8 -75 42 16 20 16 24 1 vhcurveto
          hintmask 00110000
          58 614 rmoveto
          -29 -58 -36 -29 -36 -13 rrcurveto
          -11 -4 -8 -11 -13 vvcurveto
          -18 14 -7 13 3 4 0 1 5 vhcurveto
          71 18 43 51 29 51 rrcurveto
          3 5 1 6 5 vvcurveto
          20 -18 15 -15 -12 -11 -5 -14 -10 vhcurveto
          endchar
        </CharString>
        <CharString name="icircumflex">
          -238 21 -21 443 -20 96 -21 148 -20 hstemhm
          56 62 -62 94 hintmask 11001000
          140 40 rmoveto
          35 -20 14 -2 22 vhcurveto
          -5 71 0 37 42 vvcurveto
          24 8 49 0 vhcurveto
          hintmask 11000100
          0 29 27 39 vvcurveto
          41 -32 2 -10 -17 -31 -7 -99 -4 vhcurveto
          -2 -49 -1 -17 -16 vvcurveto
          -92 vlineto
          -88 8 -75 42 16 20 16 24 1 vhcurveto
          hintmask 00110000
          -124 462 rmoveto
          35 26 35 27 33 27 rrcurveto
          -25 24 47 -57 25 hhcurveto
          17 11 10 14 6 -3 7 -4 4 hvcurveto
          -29 31 -32 34 -30 30 rrcurveto
          6 -7 -8 4 -8 hhcurveto
          -5 -8 -2 -5 -7 hvcurveto
          -40 -32 -42 -32 -39 -33 rrcurveto
          -7 -6 -2 -8 -6 vvcurveto
          -13 12 -11 16 4 6 1 3 6 vhcurveto
          endchar
        </CharString>
        <CharString name="idieresis">
          -238 21 -21 443 -20 77 111 hstemhm
          -3 91 -32 62 -62 94 -16 91 hintmask 11001000
          140 40 rmoveto
          35 -20 14 -2 22 vhcurveto
          -5 71 0 37 42 vvcurveto
          24 8 49 0 vhcurveto
          hintmask 11000100
          0 29 27 39 vvcurveto
          41 -32 2 -10 -17 -31 -7 -99 -4 vhcurveto
          -2 -49 -1 -17 -16 vvcurveto
          -92 vlineto
          -88 8 -75 42 16 20 16 24 1 vhcurveto
          hintmask 00110010
          -143 515 rmoveto
          -31 20 -24 25 25 21 24 31 31 -21 25 -25 -25 -20 -25 -31 vhcurveto
          137 hmoveto
          -31 20 -24 25 25 21 24 31 31 -21 25 -25 -25 -20 -25 -31 vhcurveto
          endchar
        </CharString>
        <CharString name="igrave">
          -238 21 -21 443 -20 101 -21 172 -20 hstemhm
          56 62 -62 94 hintmask 11001000
          140 40 rmoveto
          35 -20 14 -2 22 vhcurveto
          -5 71 0 37 42 vvcurveto
          24 8 49 0 vhcurveto
          hintmask 11000100
          0 29 27 39 vvcurveto
          41 -32 2 -10 -17 -31 -7 -99 -4 vhcurveto
          -2 -49 -1 -17 -16 vvcurveto
          -92 vlineto
          -88 8 -75 42 16 20 16 24 1 vhcurveto
          hintmask 00110000
          -115 616 rmoveto
          14 -10 -11 5 -12 hhcurveto
          -15 -18 -15 -20 -5 1 -6 3 -5 hvcurveto
          29 -51 43 -51 71 -18 rrcurveto
          -1 5 4 0 3 hhcurveto
          13 14 7 18 13 -8 11 -11 4 hvcurveto
          -36 13 -36 29 -29 58 rrcurveto
          endchar
        </CharString>
        <CharString name="infinity">
          341 115 64 -48 63 204 63 -41 64 hstemhm
          39 65 247 61 250 62 hintmask 01011110
          235 484 rmoveto
          -116 -80 -73 -109 -111 78 -60 91 52 57 18 54 48 hvcurveto
          hintmask 10101110
          -58 40 47 -30 74 hhcurveto
          120 78 66 109 111 -83 60 -85 -53 -55 -18 -55 -51 hvcurveto
          hintmask 01011110
          60 -38 -50 36 -74 hhcurveto
          4 -64 rmoveto
          49 42 -34 -49 21 hvcurveto
          -81 -75 -62 -70 -47 -55 35 69 65 47 57 88 vhcurveto
          hintmask 10101110
          289 -241 rmoveto
          -51 -38 26 50 -27 hvcurveto
          74 1 71 69 69 hhcurveto
          48 61 -33 -69 -65 -40 -52 -94 hvcurveto
          endchar
        </CharString>
        <CharString name="integral">
          -59 63 795 -20 hstem
          -7 63 vstem
          381 726 rmoveto
          -2 4 6 0 2 hhcurveto
          18 34 12 29 27 -19 7 -18 -105 -59 -187 -226 -24 hvcurveto
          -232 -25 -57 -150 -40 hhcurveto
          -34 -8 62 37 hvcurveto
          8 8 3 10 16 vvcurveto
          20 -13 24 -25 -36 0 -42 -31 -105 39 -62 66 89 62 155 233 29 vhcurveto
          17 135 33 213 53 49 rrcurveto
          endchar
        </CharString>
        <CharString name="j">
          -199 -295 63 771 108 hstem
          101 63 vstem
          85 411 rmoveto
          4 -20 12 -134 -136 vvcurveto
          -250 -100 -103 -101 -76 -33 73 43 -6 vhcurveto
          7 7 1 14 10 vvcurveto
          27 -3 -12 11 -21 hhcurveto
          -18 -20 -14 -27 -34 32 -173 149 177 87 194 240 hvcurveto
          97 -13 173 2 vvcurveto
          17 -13 18 -22 -18 -13 -12 -19 vhcurveto
          -40 167 rmoveto
          -26 7 20 -17 21 hhcurveto
          24 17 22 27 34 -26 25 -25 -24 -16 -22 -26 -5 0 -6 2 -6 hvcurveto
          endchar
        </CharString>
        <CharString name="k">
          12 12 -21 810 -20 hstem
          48 66 vstem
          143 801 rmoveto
          -9 -1 -7 -5 -7 -7 rrcurveto
          -24 -24 -48 -212 -281 vvcurveto
          -69 4 -74 7 -75 vhcurveto
          -30 3 8 -32 32 hhcurveto
          23 17 18 25 8 -3 35 -20 16 hvcurveto
          -6 58 -1 17 54 vvcurveto
          -55 43 156 -165 88 hhcurveto
          24 22 15 23 24 -20 15 -20 -10 -9 -3 -6 -6 hvcurveto
          -4 2 -92 50 -85 88 -57 74 rlinecurve
          75 23 86 57 67 70 rrcurveto
          10 10 12 21 14 vvcurveto
          23 -18 16 -19 -28 -18 -19 -25 -4 2 -7 0 vhcurveto
          0 -2 -3 -2 -2 vhcurveto
          -50 -50 -47 -32 -96 -36 6 174 21 134 19 66 rrcurveto
          18 14 6 20 19 vvcurveto
          24 -20 10 -16 vhcurveto
          endchar
        </CharString>
        <CharString name="l">
          -216 12 -21 804 -20 hstemhm
          60 63 -63 137 hintmask 11100000
          156 795 rmoveto
          -9 -1 -7 -5 -7 -7 rrcurveto
          -24 -24 -49 -206 -281 vvcurveto
          -69 4 -74 7 -75 vhcurveto
          -30 3 8 -32 32 hhcurveto
          23 17 18 25 8 -3 35 -20 16 hvcurveto
          -6 64 -2 62 59 vvcurveto
          203 31 156 19 71 vhcurveto
          hintmask 11010000
          18 14 6 20 19 vvcurveto
          24 -20 10 -16 vhcurveto
          endchar
        </CharString>
        <CharString name="less">
          231 84 -21 448 -20 hstem
          32 286 rmoveto
          -10 6 -15 18 -6 vhcurveto
          116 -39 101 -34 101 -38 55 -21 70 -17 47 -36 rrcurveto
          -5 7 8 -2 6 hhcurveto
          17 13 14 16 49 -146 41 -56 21 hvcurveto
          -78 29 -79 27 -79 27 79 27 79 27 78 29 rrcurveto
          56 21 146 41 49 vvcurveto
          16 -13 14 -17 -6 -8 -2 -5 -7 vhcurveto
          -47 -36 -70 -17 -55 -21 -101 -38 -101 -35 -116 -38 rrcurveto
          -17 -8 -7 -15 -10 vvcurveto
          endchar
        </CharString>
        <CharString name="lessequal">
          211 7 80 -69 -21 29 61 465 -20 hstemhm
          hintmask 01110000
          32 327 rmoveto
          -10 6 -15 18 -6 vhcurveto
          116 -39 101 -34 101 -38 55 -21 70 -17 47 -36 rrcurveto
          -5 7 8 -2 6 hhcurveto
          17 13 14 16 49 -146 41 -56 21 hvcurveto
          -78 29 -79 27 -79 27 79 27 79 27 78 29 rrcurveto
          56 21 146 41 49 vvcurveto
          16 -13 14 -17 -6 -8 -2 -5 -7 vhcurveto
          -47 -36 -70 -17 -55 -21 -101 -38 -101 -35 -116 -38 rrcurveto
          -17 -8 -7 -15 -10 vvcurveto
          42 -330 rmoveto
          35 3 12 14 22 4 rrcurveto
          6 34 219 2 40 hhcurveto
          27 23 -2 -3 9 hvcurveto
          hintmask 10010000
          0 20 -14 35 47 5 19 11 27 -11 23 -125 -359 -75 -5 -53 vhcurveto
          hintmask 01110000
          -16 18 -16 24 vhcurveto
          endchar
        </CharString>
        <CharString name="logicalnot">
          166 180 -21 178 87 -65 65 hstemhm
          483 53 hintmask 11010000
          86 337 rmoveto
          hintmask 10110000
          35 14 20 2 22 hvcurveto
          5 71 96 0 42 hhcurveto
          43 52 -5 -6 22 hvcurveto
          -12 vlineto
          -38 -10 -84 -34 vvcurveto
          -22 3 17 -4 12 hhcurveto
          14 17 8 21 hvcurveto
          2 vlineto
          1 15 rlineto
          2 49 9 78 49 vvcurveto
          -3 28 -19 8 -15 1 rrcurveto
          1 -21 -48 5 -82 hhcurveto
          -151 hlineto
          -88 -75 -8 -42 hvcurveto
          hintmask 11010000
          -16 16 -20 24 -1 vhcurveto
          endchar
        </CharString>
        <CharString name="lozenge">
          46 -21 573 -20 hstem
          219 40 rmoveto
          -10 8 10 -5 10 hhcurveto
          8 9 3 8 8 hvcurveto
          59 82 59 83 59 83 rrcurveto
          4 7 2 6 6 vvcurveto
          6 -2 6 -4 7 vhcurveto
          -177 264 rlineto
          8 -8 -9 4 -8 hhcurveto
          -9 -12 -5 -11 -7 hvcurveto
          -59 -87 -57 -89 -60 -88 rrcurveto
          -3 -5 -1 -6 -5 vvcurveto
          -5 1 -4 3 -5 vhcurveto
          204 223 rmoveto
          46 -70 47 -69 46 -69 -46 -64 -47 -65 -46 -65 -138 194 rcurveline
          46 69 46 69 46 70 rrcurveto
          endchar
        </CharString>
        <CharString name="lslash">
          -103 12 -21 443 77 284 -20 hstemhm
          0 148 -63 63 hintmask 11110000
          181 795 rmoveto
          -9 -1 -7 -5 -7 -7 -19 -19 -33 -126 -15 -186 rrcurveto
          -79 -39 -12 -25 -20 vvcurveto
          -17 11 -12 22 6 6 1 2 7 vhcurveto
          17 7 9 9 9 9 rrcurveto
          hintmask 11101000
          -1 -31 -1 -31 -33 vvcurveto
          -69 4 -74 7 -75 vhcurveto
          -30 3 8 -32 32 hhcurveto
          23 17 18 25 8 -3 35 -20 16 hvcurveto
          -6 64 -2 62 59 vvcurveto
          44 1 42 3 39 vhcurveto
          34 17 36 15 10 1 rrcurveto
          0 7 -2 12 32 37 19 24 16 -11 18 -31 -33 -42 -14 -18 -45 vhcurveto
          11 104 17 80 12 45 rrcurveto
          18 14 6 20 19 vvcurveto
          24 -20 10 -16 vhcurveto
          endchar
        </CharString>
        <CharString name="m">
          349 21 -21 22 -21 359 63 -45 63 24 -20 hstemhm
          45 64 -64 96 510 96 -62 62 hintmask 1010110100000000
          614 423 rmoveto
          -91 -61 -78 -87 -42 hvcurveto
          hintmask 1001110100000000
          101 -15 -34 82 -78 hhcurveto
          -82 -64 -111 -102 -38 hvcurveto
          74 6 49 5 30 vhcurveto
          hintmask 1001101100000000
          14 7 7 21 19 vvcurveto
          21 -17 16 -21 -9 -8 -4 -6 -6 vhcurveto
          -18 -16 -17 -102 -126 vvcurveto
          -57 4 -77 9 -51 vhcurveto
          -16 3 16 -10 14 hhcurveto
          15 12 11 13 2 hvcurveto
          156 19 82 198 72 hhcurveto
          54 16 -123 -102 hvcurveto
          -36 -5 -45 -25 vvcurveto
          -16 14 -16 18 14 14 11 15 2 vhcurveto
          hintmask 1010110010000000
          89 13 59 230 122 hhcurveto
          57 14 -87 -79 -37 -2 -34 -3 -27 hvcurveto
          hintmask 0110110100000000
          -21 -10 -8 -27 -18 vvcurveto
          -22 21 -18 21 15 13 12 15 8 vhcurveto
          5 11 13 75 80 vvcurveto
          115 -29 114 -104 vhcurveto
          endchar
        </CharString>
        <CharString name="macron">
          25 503 57 -57 80 3 -20 hstemhm
          hintmask 10100000
          368 586 rmoveto
          -16 -16 -4 -10 -14 hvcurveto
          -8 -13 -45 -4 -37 hhcurveto
          -22 -19 2 3 -7 hvcurveto
          hintmask 01000000
          0 -33 18 -29 -28 -10 -21 -10 -38 30 -11 65 vhcurveto
          98 hlineto
          74 58 14 36 hvcurveto
          hintmask 10100000
          14 -14 18 -22 1 vhcurveto
          endchar
        </CharString>
        <CharString name="minus">
          193 80 -69 -21 29 61 hstemhm
          hintmask 01100000
          73 183 rmoveto
          35 3 12 14 22 4 rrcurveto
          6 34 50 2 40 hhcurveto
          27 23 -2 -3 9 hvcurveto
          hintmask 10000000
          0 20 -14 35 47 5 19 11 26 -11 24 -125 vhcurveto
          -104 hlineto
          -86 -5 -75 -13 -40 vvcurveto
          hintmask 01100000
          -16 18 -16 24 vhcurveto
          endchar
        </CharString>
        <CharString name="mu">
          91 -132 200 -63 63 -51 -21 438 -20 hstemhm
          hintmask 10010000
          40 162 rmoveto
          -1 -67 -4 -125 -33 -38 rrcurveto
          -15 hlineto
          -19 -5 -9 -13 -13 vvcurveto
          -20 15 -13 33 54 23 71 76 11 vhcurveto
          hintmask 01010000
          -6 11 14 -4 16 hhcurveto
          77 82 99 115 50 hvcurveto
          hintmask 00110000
          -101 18 37 -122 49 hhcurveto
          18 17 16 20 9 -11 34 -25 11 hvcurveto
          -35 83 -18 155 -3 56 1 11 rcurveline
          21 -5 22 -28 -23 -9 -18 -20 vhcurveto
          -7 1 -5 -2 vvcurveto
          hintmask 10010000
          -92 -15 -95 -222 -81 hhcurveto
          -25 -10 43 49 hvcurveto
          12 vlineto
          1 51 9 57 9 42 rrcurveto
          23 18 7 36 14 vvcurveto
          27 -17 14 -21 -19 -13 -17 -22 -8 vhcurveto
          -3 -9 -25 -97 -5 -93 rrcurveto
          endchar
        </CharString>
        <CharString name="multiply">
          57 -21 395 -20 hstem
          145 48 rmoveto
          24 26 -4 24 13 17 16 19 37 47 10 12 37 -36 rcurveline
          -48 50 47 -39 32 hhcurveto
          17 15 11 24 46 -64 5 -14 11 hvcurveto
          -28 23 -26 25 -25 22 7 7 rcurveline
          18 19 52 48 0 0 81 7 50 vvcurveto
          28 -24 13 -15 -23 -54 -43 -88 -85 vhcurveto
          -15 15 rlineto
          -19 19 -28 39 0 vvcurveto
          0 -7 80 -51 -28 -12 -26 -14 -24 26 -38 81 -83 vhcurveto
          11 -11 rlineto
          -53 -54 -63 -80 -33 vvcurveto
          -17 12 -15 22 10 11 4 8 9 vhcurveto
          endchar
        </CharString>
        <CharString name="n">
          79 3 -21 386 63 -63 95 hstemhm
          45 76 245 91 -63 63 hintmask 10110100
          137 426 rmoveto
          24 -18 13 -19 -39 -7 -67 -32 -3 vhcurveto
          -4 -45 -2 -47 -47 vvcurveto
          -65 4 -66 9 -66 vhcurveto
          -18 3 16 -7 12 hhcurveto
          15 17 13 23 81 71 248 109 76 17 -127 -76 -31 -1 -31 -3 -28 hvcurveto
          hintmask 11011000
          -16 -13 -8 -27 -12 vvcurveto
          -25 19 -16 20 42 10 56 102 143 -36 148 -117 -103 -58 -98 -91 -36 vhcurveto
          39 0 47 7 46 vhcurveto
          13 11 10 22 19 vvcurveto
          endchar
        </CharString>
        <CharString name="nine">
          76 12 -21 275 63 343 63 hstem
          10 63 237 65 vstem
          464 528 rmoveto
          13 -6 10 -8 6 vhcurveto
          4 5 3 5 7 vvcurveto
          13 -9 12 -3 13 vhcurveto
          99 -22 -41 24 -54 hhcurveto
          -147 -171 -194 -156 -83 43 -36 61 93 114 84 53 49 hvcurveto
          -19 -110 -41 -124 -118 vvcurveto
          -20 9 -40 31 17 14 14 17 vhcurveto
          11 -6 6 15 vvcurveto
          79 6 7 10 53 vhcurveto
          7 38 39 181 8 37 rrcurveto
          5 22 14 32 25 vvcurveto
          -139 144 rmoveto
          68 -18 -95 -24 34 hvcurveto
          -3 -3 -2 -2 -2 -4 rrcurveto
          -84 -50 -118 -131 -117 hhcurveto
          -26 -18 23 36 158 187 126 65 hvcurveto
          endchar
        </CharString>
        <CharString name="notequal">
          86 3 -21 185 80 -64 64 91 80 183 -20 hstemhm
          109 77 hintmask 10111100
          41 157 rmoveto
          35 3 12 14 23 4 13 2 14 2 16 1 rrcurveto
          -28 -70 -17 -60 -32 vvcurveto
          -34 25 -5 14 22 16 25 27 8 -2 7 -3 8 vhcurveto
          7 38 14 45 18 46 rrcurveto
          14 hlineto
          27 23 -1 -3 9 hvcurveto
          hintmask 11011100
          0 22 -15 37 43 6 21 10 25 -12 24 -124 vhcurveto
          -19 hlineto
          17 37 19 37 19 36 rrcurveto
          15 hlineto
          27 23 -2 -3 9 hvcurveto
          0 20 -14 35 47 5 19 11 26 -11 24 -125 vhcurveto
          -9 hlineto
          17 28 18 28 17 24 26 5 19 29 4 7 rrcurveto
          4 8 2 8 7 vvcurveto
          20 -16 19 -22 -41 -59 -105 -78 -40 vhcurveto
          -24 hlineto
          -86 -5 -75 -13 -40 vvcurveto
          -16 18 -16 24 vhcurveto
          35 3 12 14 22 4 12 2 14 2 14 1 -18 -36 -17 -36 -16 -35 rrcurveto
          -20 hlineto
          -86 -5 -75 -13 -40 vvcurveto
          -16 16 -16 25 vhcurveto
          endchar
        </CharString>
        <CharString name="ntilde">
          79 3 -21 386 63 -63 95 34 124 -105 -21 128 -20 hstemhm
          45 76 245 91 -63 63 hintmask 1010001010000000
          137 426 rmoveto
          24 -18 13 -19 -39 -7 -67 -32 -3 vhcurveto
          -4 -45 -2 -47 -47 vvcurveto
          -65 4 -66 9 -66 vhcurveto
          -18 3 16 -7 12 hhcurveto
          15 17 13 23 81 71 248 109 76 17 -127 -76 -31 -1 -31 -3 -28 hvcurveto
          hintmask 1100001100000000
          -16 -13 -8 -27 -12 vvcurveto
          -25 19 -16 20 42 10 56 102 143 -36 148 -117 -103 -58 -98 -91 -36 vhcurveto
          39 0 47 7 46 vhcurveto
          13 11 10 22 19 vvcurveto
          hintmask 0001000000000000
          37 93 rmoveto
          31 12 11 9 9 hhcurveto
          -1 28 40 -61 50 hhcurveto
          34 40 21 72 18 hvcurveto
          5 vlineto
          hintmask 0000110000000000
          17 -14 11 -17 -11 -12 -8 -16 -6 vhcurveto
          -31 -12 -11 -9 -9 hhcurveto
          hintmask 0001000000000000
          1 -27 -40 61 -51 hhcurveto
          -31 -46 -21 -72 -15 hvcurveto
          -1 -6 rlineto
          hintmask 0000110000000000
          -18 17 -9 15 11 12 8 16 6 vhcurveto
          endchar
        </CharString>
        <CharString name="numbersign">
          235 12 -21 243 91 -64 64 145 65 260 -20 hstemhm
          179 63 149 63 hintmask 10111110
          649 279 rmoveto
          20 -29 26 -165 vhcurveto
          1 53 4 48 5 44 43 -1 33 -4 32 -4 rrcurveto
          -13 13 17 -4 16 hhcurveto
          27 12 15 19 26 -25 31 -160 hvcurveto
          10 68 13 71 9 34 rrcurveto
          18 14 6 20 19 vvcurveto
          24 -20 10 -16 -28 -33 -64 -198 -24 vhcurveto
          -43 -2 -49 -3 -57 -6 10 74 14 76 10 36 rrcurveto
          18 14 6 20 19 vvcurveto
          24 -20 10 -16 -29 -34 -69 -211 -25 vhcurveto
          -57 -7 -4 -2 -69 -16 rrcurveto
          -27 -6 -29 -13 -27 vvcurveto
          -23 17 -17 23 14 31 7 24 19 vhcurveto
          46 11 5 1 25 3 -4 -46 -3 -49 -1 -53 -50 -6 -7 -1 -66 -15 rrcurveto
          -28 -6 -28 -12 -27 vvcurveto
          -29 22 -11 26 vhcurveto
          8 1 34 8 13 21 47 11 5 1 24 3 rrcurveto
          -66 5 -51 7 -70 vhcurveto
          -30 3 8 -32 32 hhcurveto
          23 17 18 25 8 -3 35 -20 16 hvcurveto
          -6 59 -3 40 56 vvcurveto
          60 7 48 4 41 1 rrcurveto
          -7 vlineto
          -69 5 -56 7 -75 vhcurveto
          -30 3 8 -32 32 hhcurveto
          23 17 18 25 8 -3 35 -20 16 hvcurveto
          -6 64 -3 44 59 vvcurveto
          1 vlineto
          45 -1 33 -5 33 -4 rrcurveto
          hintmask 11011110
          -13 14 16 -4 16 hhcurveto
          26 12 18 27 hvcurveto
          -397 179 rmoveto
          60 7 48 3 41 2 -5 -45 -3 -49 -1 -53 -44 -2 -49 -4 -57 -7 2 54 3 49 5 45 rrcurveto
          endchar
        </CharString>
        <CharString name="o">
          33 -5 59 323 63 17 -20 hstemhm
          25 63 280 63 hintmask 11011000
          25 176 rmoveto
          -128 5 70 -53 81 hhcurveto
          115 135 126 161 109 -45 49 -82 -31 -25 -10 -13 -22 hvcurveto
          2 2 2 3 vvcurveto
          hintmask 10111000
          20 -18 13 -19 -8 -8 -2 -3 -6 vhcurveto
          -78 -40 -66 -130 -106 vvcurveto
          128 177 rmoveto
          -3 -5 -1 -7 -6 vvcurveto
          -15 14 -15 19 12 7 5 10 8 vhcurveto
          hintmask 11011000
          7 5 37 50 53 hhcurveto
          59 5 -60 -28 -139 -105 -96 -82 -51 -42 36 87 62 29 69 36 45 hvcurveto
          endchar
        </CharString>
        <CharString name="oacute">
          33 -5 59 323 63 17 -20 89 -21 172 -20 hstemhm
          25 63 280 63 hintmask 11000110
          25 176 rmoveto
          -128 5 70 -53 81 hhcurveto
          115 135 126 161 109 -45 49 -82 -31 -25 -10 -13 -22 hvcurveto
          2 2 2 3 vvcurveto
          hintmask 10100110
          20 -18 13 -19 -8 -8 -2 -3 -6 vhcurveto
          -78 -40 -66 -130 -106 vvcurveto
          128 177 rmoveto
          -3 -5 -1 -7 -6 vvcurveto
          -15 14 -15 19 12 7 5 10 8 vhcurveto
          hintmask 11000110
          7 5 37 50 53 hhcurveto
          59 5 -60 -28 -139 -105 -96 -82 -51 -42 36 87 62 29 69 36 45 hvcurveto
          hintmask 00011000
          204 305 rmoveto
          -29 -58 -36 -29 -36 -13 rrcurveto
          -11 -4 -8 -11 -13 vvcurveto
          -18 14 -7 13 3 4 0 1 5 vhcurveto
          71 18 43 51 29 51 rrcurveto
          3 5 1 6 5 vvcurveto
          20 -18 15 -15 -12 -11 -5 -14 -10 vhcurveto
          endchar
        </CharString>
        <CharString name="ocircumflex">
          33 -5 59 323 63 17 -20 72 -21 148 -20 hstemhm
          25 63 280 63 hintmask 11000110
          25 176 rmoveto
          -128 5 70 -53 81 hhcurveto
          115 135 126 161 109 -45 49 -82 -31 -25 -10 -13 -22 hvcurveto
          2 2 2 3 vvcurveto
          hintmask 10100110
          20 -18 13 -19 -8 -8 -2 -3 -6 vhcurveto
          -78 -40 -66 -130 -106 vvcurveto
          128 177 rmoveto
          -3 -5 -1 -7 -6 vvcurveto
          -15 14 -15 19 12 7 5 10 8 vhcurveto
          hintmask 11000110
          7 5 37 50 53 hhcurveto
          59 5 -60 -28 -139 -105 -96 -82 -51 -42 36 87 62 29 69 36 45 hvcurveto
          hintmask 00011000
          18 139 rmoveto
          35 26 35 27 33 27 rrcurveto
          -25 24 47 -57 25 hhcurveto
          17 11 10 14 6 -3 7 -4 4 hvcurveto
          -29 31 -32 34 -30 30 rrcurveto
          6 -7 -8 4 -8 hhcurveto
          -5 -8 -2 -5 -7 hvcurveto
          -40 -32 -42 -32 -39 -33 rrcurveto
          -7 -6 -2 -8 -6 vvcurveto
          -13 12 -11 16 4 6 1 3 6 vhcurveto
          endchar
        </CharString>
        <CharString name="odieresis">
          33 -5 59 323 63 17 -20 61 111 hstemhm
          25 63 73 91 46 91 -21 63 hintmask 11001001
          25 176 rmoveto
          -128 5 70 -53 81 hhcurveto
          115 135 126 161 109 -45 49 -82 -31 -25 -10 -13 -22 hvcurveto
          2 2 2 3 vvcurveto
          hintmask 10101001
          20 -18 13 -19 -8 -8 -2 -3 -6 vhcurveto
          -78 -40 -66 -130 -106 vvcurveto
          128 177 rmoveto
          -3 -5 -1 -7 -6 vvcurveto
          -15 14 -15 19 12 7 5 10 8 vhcurveto
          hintmask 11001001
          7 5 37 50 53 hhcurveto
          59 5 -60 -28 -139 -105 -96 -82 -51 -42 36 87 62 29 69 36 45 hvcurveto
          hintmask 00010110
          8 200 rmoveto
          -31 20 -24 25 25 21 24 31 31 -21 25 -25 -25 -20 -25 -31 vhcurveto
          137 hmoveto
          -31 20 -24 25 25 21 24 31 31 -21 25 -25 -25 -20 -25 -31 vhcurveto
          endchar
        </CharString>
        <CharString name="oe">
          347 -19 63 -63 181 -167 49 143 63 55 142 -70 70 10 -20 hstemhm
          25 63 280 54 211 64 hintmask 0101100111000000
          744 103 rmoveto
          4 9 2 8 6 vvcurveto
          24 -19 12 -18 -19 -25 -21 -28 vhcurveto
          -8 vlineto
          hintmask 0011100111000000
          -37 -31 -54 -24 -46 hhcurveto
          -58 -58 36 107 hvcurveto
          83 1 144 8 30 33 rrcurveto
          14 15 4 26 26 vvcurveto
          88 -56 63 -69 -60 -54 -35 -50 -39 vhcurveto
          53 -18 -39 25 -58 hhcurveto
          -31 -25 -10 -13 -22 hvcurveto
          2 2 2 3 vvcurveto
          hintmask 0011001111000000
          20 -18 13 -19 -8 -8 -2 -3 -6 vhcurveto
          -78 -40 -66 -130 -106 vvcurveto
          -128 75 -53 81 66 72 41 66 50 vhcurveto
          hintmask 1001100111000000
          -82 25 65 -39 79 hhcurveto
          80 94 53 69 32 hvcurveto
          -591 250 rmoveto
          -3 -5 -1 -7 -6 vvcurveto
          -15 14 -15 19 12 7 5 10 8 vhcurveto
          hintmask 1001010111000000
          7 5 37 50 53 hhcurveto
          59 5 -60 -28 -139 -105 -96 -82 -51 -42 36 87 62 29 69 36 45 hvcurveto
          419 31 rmoveto
          42 19 -48 -40 -12 -1 -9 -3 -4 hvcurveto
          -17 -10 -107 -9 -73 -2 rrcurveto
          71 20 60 63 60 hhcurveto
          endchar
        </CharString>
        <CharString name="ogonek">
          -107 -150 -21 243 -20 hstem
          79 61 vstem
          204 72 rmoveto
          -70 -12 -55 -65 -67 vvcurveto
          -34 13 -40 37 -22 vhcurveto
          -1 4 4 -2 3 hhcurveto
          19 13 15 16 12 -6 6 -10 10 hvcurveto
          -11 11 -5 18 13 vvcurveto
          59 59 18 15 3 vhcurveto
          16 7 7 12 12 vvcurveto
          13 -8 18 -20 vhcurveto
          endchar
        </CharString>
        <CharString name="ograve">
          33 -5 59 323 63 17 -20 87 -21 172 -20 hstemhm
          25 63 280 63 hintmask 11000110
          25 176 rmoveto
          -128 5 70 -53 81 hhcurveto
          115 135 126 161 109 -45 49 -82 -31 -25 -10 -13 -22 hvcurveto
          2 2 2 3 vvcurveto
          hintmask 10100110
          20 -18 13 -19 -8 -8 -2 -3 -6 vhcurveto
          -78 -40 -66 -130 -106 vvcurveto
          128 177 rmoveto
          -3 -5 -1 -7 -6 vvcurveto
          -15 14 -15 19 12 7 5 10 8 vhcurveto
          hintmask 11000110
          7 5 37 50 53 hhcurveto
          59 5 -60 -28 -139 -105 -96 -82 -51 -42 36 87 62 29 69 36 45 hvcurveto
          hintmask 00011000
          46 303 rmoveto
          14 -10 -11 5 -12 hhcurveto
          -15 -18 -15 -20 -5 1 -6 3 -5 hvcurveto
          29 -51 43 -51 71 -18 rrcurveto
          -1 5 4 0 3 hhcurveto
          13 14 7 18 13 -8 11 -11 4 hvcurveto
          -36 13 -36 29 -29 58 rrcurveto
          endchar
        </CharString>
        <CharString name="one">
          -105 21 -21 720 -20 hstemhm
          75 121 -62 62 -62 77 -77 94 hintmask 11000100
          191 hmoveto
          15 22 16 24 hvcurveto
          35 -22 16 1 vvcurveto
          hintmask 11100000
          -4 63 -6 76 110 vvcurveto
          hintmask 11001000
          120 7 124 8 100 vhcurveto
          19 -12 16 -20 -13 -11 -8 -13 -5 vhcurveto
          hintmask 11100000
          -18 -52 -57 -25 -28 vvcurveto
          -19 18 -12 15 11 8 7 15 17 vhcurveto
          hintmask 11010000
          -5 -66 -5 -72 -72 vvcurveto
          -90 1 -53 4 -106 vhcurveto
          -57 2 5 -69 45 hhcurveto
          endchar
        </CharString>
        <CharString name="onehalf">
          306 -11 93 -67 -21 25 63 284 106 -63 63 248 -20 hstemhm
          54 100 -63 63 -63 82 438 63 hintmask 1001010011000000
          138 244 rmoveto
          14 21 14 24 16 -7 13 -5 6 hvcurveto
          hintmask 1001011001000000
          -6 41 -1 44 68 vvcurveto
          75 4 78 5 62 vhcurveto
          20 -10 15 -20 -27 -11 -38 -19 -19 vhcurveto
          -15 -15 -7 -7 -12 vvcurveto
          -27 28 -6 13 vhcurveto
          -7 vlineto
          hintmask 1000110101000000
          -2 -32 -2 -31 -35 vvcurveto
          -53 2 -45 2 -58 vhcurveto
          -38 2 6 -53 35 hhcurveto
          -52 -212 rmoveto
          -1 -4 0 -3 -3 vvcurveto
          -28 25 -5 10 22 20 25 25 6 -1 5 -1 6 vhcurveto
          30 68 107 184 129 158 34 42 48 64 49 52 rrcurveto
          24 23 23 8 7 hvcurveto
          7 10 3 10 6 vvcurveto
          16 -11 21 -18 -17 -25 -14 -14 -13 vhcurveto
          -53 -54 -55 -73 -44 -54 -161 -201 -130 -225 -8 -51 rrcurveto
          479 377 rmoveto
          25 21 -21 -35 -80 -97 -152 -83 -59 hvcurveto
          -13 -9 -11 -8 -14 vvcurveto
          -22 16 -7 13 -2 vhcurveto
          hintmask 0111011001000000
          1 23 36 18 70 51 24 -25 13 hhcurveto
          39 1 28 9 31 -66 20 -53 -13 -8 0 -1 -11 hvcurveto
          60 66 72 123 85 vvcurveto
          65 -34 52 -72 -65 -71 -39 -36 -17 17 -14 19 15 19 10 18 8 vhcurveto
          hintmask 1000111001000000
          9 18 19 6 18 hhcurveto
          endchar
        </CharString>
        <CharString name="onequarter">
          304 10 -21 24 -21 151 75 502 -20 hstemhm
          54 100 -63 63 -63 82 361 63 -63 99 -99 151 hintmask 1011001100000000
          138 244 rmoveto
          14 21 14 24 16 -7 13 -5 6 hvcurveto
          hintmask 1011100100000000
          -6 41 -1 44 68 vvcurveto
          75 4 78 5 62 vhcurveto
          20 -10 15 -20 -27 -11 -38 -19 -19 vhcurveto
          -15 -15 -7 -7 -12 vvcurveto
          -27 28 -6 13 vhcurveto
          -7 vlineto
          hintmask 1011010100000000
          -2 -32 -2 -31 -35 vvcurveto
          -53 2 -45 2 -58 vhcurveto
          -38 2 6 -53 35 hhcurveto
          -52 -212 rmoveto
          -1 -4 0 -3 -3 vvcurveto
          -28 25 -5 10 22 20 25 25 6 -1 5 -1 6 vhcurveto
          30 68 107 184 129 158 34 42 48 64 49 52 rrcurveto
          24 23 23 8 7 hvcurveto
          7 10 3 10 6 vvcurveto
          16 -11 21 -18 -17 -25 -14 -14 -13 vhcurveto
          -53 -54 -55 -73 -44 -54 -161 -201 -130 -225 -8 -51 rrcurveto
          431 318 rmoveto
          13 7 8 14 16 vvcurveto
          19 -15 13 -15 -33 -31 -56 -33 -17 vhcurveto
          -13 -23 -32 -76 -19 vvcurveto
          -64 105 -5 48 vhcurveto
          hintmask 0111100001000000
          -56 7 -18 -95 54 hhcurveto
          22 15 15 24 5 -3 23 -12 14 hvcurveto
          -2 22 1 18 -1 21 rrcurveto
          11 vlineto
          2 8 37 2 4 hhcurveto
          16 22 7 26 18 -13 18 -24 hvcurveto
          hintmask 1011100100000000
          -17 -21 -9 -13 hhcurveto
          2 102 8 62 10 41 rrcurveto
          hintmask 1011100010000000
          13 11 3 15 14 vvcurveto
          22 -19 11 -14 vhcurveto
          -6 hlineto
          -20 -3 -37 -31 -3 -248 -30 2 -46 4 -10 5 5 30 37 78 25 25 rrcurveto
          endchar
        </CharString>
        <CharString name="onesuperior">
          -120 265 -21 476 -20 hstemhm
          87 100 -63 63 -63 82 hintmask 11001000
          171 244 rmoveto
          14 21 14 24 16 -7 13 -5 6 hvcurveto
          hintmask 11100000
          -6 41 -1 44 68 vvcurveto
          75 4 78 5 62 vhcurveto
          20 -10 15 -20 -27 -11 -38 -19 -19 vhcurveto
          -15 -15 -7 -7 -12 vvcurveto
          -27 28 -6 13 vhcurveto
          -7 vlineto
          hintmask 11010000
          -2 -32 -2 -31 -35 vvcurveto
          -53 2 -45 2 -58 vhcurveto
          -38 2 6 -53 35 hhcurveto
          endchar
        </CharString>
        <CharString name="ordfeminine">
          -60 399 59 -37 -21 134 59 -8 114 -58 58 hstemhm
          35 59 hintmask 10010100
          272 560 rmoveto
          34 0 105 -100 -57 -31 -25 -15 -15 vhcurveto
          -8 -8 -15 -18 -16 vvcurveto
          -21 15 -11 16 18 22 15 26 1 vhcurveto
          hintmask 10101100
          8 10 17 7 25 hhcurveto
          hintmask 10010100
          21 16 -4 -52 5 hvcurveto
          hintmask 10101100
          6 -15 -17 2 -21 hhcurveto
          -69 -55 -47 -59 -45 31 -43 74 37 30 15 21 24 hvcurveto
          hintmask 01101100
          -24 10 9 -11 19 hhcurveto
          17 17 9 24 11 -10 14 -8 4 hvcurveto
          -4 6 -9 21 71 vvcurveto
          hintmask 10101100
          -127 -102 rmoveto
          -33 -18 13 20 28 32 15 30 54 7 -23 -12 hvcurveto
          -13 -11 -26 -28 -35 hhcurveto
          endchar
        </CharString>
        <CharString name="ordmasculine">
          -77 386 57 184 60 10 -20 hstemhm
          35 59 158 59 hintmask 11011000
          35 510 rmoveto
          -88 4 49 -36 55 hhcurveto
          78 90 84 107 76 -31 34 -59 hvcurveto
          hintmask 10111000
          -15 -13 -4 -6 -12 hvcurveto
          13 -5 -14 7 -12 hhcurveto
          -6 -7 -1 -3 -5 hvcurveto
          -52 -27 -45 -86 -70 vvcurveto
          109 72 rmoveto
          12 5 6 8 9 hvcurveto
          hintmask 11011000
          4 3 20 27 28 hhcurveto
          29 2 -31 -14 -82 -60 -57 -49 -27 -22 20 48 28 10 30 15 25 hvcurveto
          -7 4 10 -5 11 hhcurveto
          endchar
        </CharString>
        <CharString name="oslash">
          78 -5 59 -55 -21 399 63 54 -20 hstemhm
          43 63 280 63 hintmask 01111100
          43 176 rmoveto
          1 -44 10 -35 14 -27 -17 -7 -14 -12 -5 -5 rrcurveto
          -8 -9 -4 -11 -10 vvcurveto
          -19 18 -19 19 17 19 13 14 15 vhcurveto
          4 3 3 4 4 4 rrcurveto
          hintmask 10111100
          -15 24 27 -6 29 hhcurveto
          115 135 126 161 38 -6 30 -10 24 hvcurveto
          28 40 17 28 1 9 rrcurveto
          2 4 0 3 4 vvcurveto
          17 -15 15 -23 -21 -25 -29 -27 vhcurveto
          -5 vlineto
          -7 -9 rlineto
          10 -19 -23 6 -26 hhcurveto
          -31 -25 -10 -13 -22 hvcurveto
          2 2 2 3 vvcurveto
          20 -18 13 -19 -8 -8 -2 -3 -6 vhcurveto
          -78 -40 -66 -130 -106 vvcurveto
          174 32 rmoveto
          -30 -35 -33 -34 -35 -35 rrcurveto
          -8 19 -5 24 30 vvcurveto
          62 29 69 36 45 vhcurveto
          -3 -5 -1 -7 -6 vvcurveto
          -15 14 -15 19 12 7 5 10 8 vhcurveto
          7 5 37 50 53 hhcurveto
          11 10 -2 -4 7 hvcurveto
          -17 -23 -20 -26 -23 -27 rrcurveto
          96 -6 rmoveto
          -139 -105 -96 -82 -12 -12 2 4 -10 vhcurveto
          33 33 32 34 30 34 95 109 19 27 11 12 rrcurveto
          1 -8 0 -7 -5 vvcurveto
          endchar
        </CharString>
        <CharString name="otilde">
          33 -5 59 323 63 17 -20 56 124 -105 -21 128 -20 hstemhm
          25 63 280 63 hintmask 11000011
          25 176 rmoveto
          -128 5 70 -53 81 hhcurveto
          115 135 126 161 109 -45 49 -82 -31 -25 -10 -13 -22 hvcurveto
          2 2 2 3 vvcurveto
          hintmask 10100011
          20 -18 13 -19 -8 -8 -2 -3 -6 vhcurveto
          -78 -40 -66 -130 -106 vvcurveto
          128 177 rmoveto
          -3 -5 -1 -7 -6 vvcurveto
          -15 14 -15 19 12 7 5 10 8 vhcurveto
          hintmask 11000011
          7 5 37 50 53 hhcurveto
          59 5 -60 -28 -139 -105 -96 -82 -51 -42 36 87 62 29 69 36 45 hvcurveto
          hintmask 00010000
          34 162 rmoveto
          31 12 11 9 9 hhcurveto
          -1 28 40 -61 50 hhcurveto
          34 40 21 72 18 hvcurveto
          5 vlineto
          hintmask 00001100
          17 -14 11 -17 -11 -12 -8 -16 -6 vhcurveto
          -31 -12 -11 -9 -9 hhcurveto
          hintmask 00010000
          1 -27 -40 61 -51 hhcurveto
          -31 -46 -21 -72 -15 hvcurveto
          -1 -6 rlineto
          hintmask 00001100
          -18 17 -9 15 11 12 8 16 6 vhcurveto
          endchar
        </CharString>
        <CharString name="p">
          57 -279 -21 310 63 301 62 20 -20 hstemhm
          66 61 265 63 hintmask 11011100
          28 394 rmoveto
          23 -14 15 -133 -123 vvcurveto
          -97 -6 -67 -17 -132 vhcurveto
          -1 -8 -1 -6 -1 -6 rrcurveto
          -16 -7 -24 -30 -30 vvcurveto
          -23 18 -18 22 40 16 41 79 10 vhcurveto
          11 85 6 35 4 93 rrcurveto
          -16 23 30 -7 41 hhcurveto
          103 131 101 150 105 -77 70 -85 -65 -70 -33 -70 -46 hvcurveto
          -8 34 -10 40 -13 25 rrcurveto
          20 -11 -15 4 -9 hhcurveto
          -19 -13 -9 -21 -2 hvcurveto
          -13 6 -12 10 -7 vhcurveto
          99 -146 rmoveto
          hintmask 11101100
          76 28 74 50 64 hhcurveto
          50 49 -44 -73 -106 -104 -78 -67 -47 -23 11 30 -23 hvcurveto
          36 0 56 -3 33 vhcurveto
          endchar
        </CharString>
        <CharString name="paragraph">
          153 -117 -21 808 60 -60 76 hstemhm
          266 63 80 63 -49 82 hintmask 11011000
          409 180 rmoveto
          hintmask 11010100
          -69 10 -115 4 -72 vhcurveto
          -30 1 12 -32 29 hhcurveto
          23 17 18 25 8 -3 35 -20 16 hvcurveto
          hintmask 10111000
          -6 64 -4 111 59 vvcurveto
          90 2 39 1 11 vhcurveto
          8 149 23 114 16 58 rrcurveto
          18 14 6 20 19 vvcurveto
          24 -20 10 -16 -18 -11 -9 -23 -10 vhcurveto
          -21 7 -32 4 -18 1 rrcurveto
          13 -7 -14 7 -12 hhcurveto
          -13 -8 -6 -7 -7 hvcurveto
          hintmask 11011000
          -3 -3 rlineto
          -125 -5 -211 -85 -161 vvcurveto
          -151 132 -61 134 -15 vhcurveto
          -61 vlineto
          -69 6 -123 7 -75 vhcurveto
          -30 3 8 -32 32 hhcurveto
          23 17 18 25 8 -3 35 -20 16 hvcurveto
          -4 58 -6 101 59 vvcurveto
          291 33 125 17 61 vhcurveto
          4 3 4 5 3 3 rrcurveto
          55 6 -13 0 hvcurveto
          -29 -105 -13 -232 -140 vvcurveto
          endchar
        </CharString>
        <CharString name="parenleft">
          -88 -129 -21 1014 -20 hstem
          28 63 vstem
          173 -95 rmoveto
          -31 6 25 -24 25 hhcurveto
          22 16 14 21 25 -26 28 -36 26 hvcurveto
          -82 113 -32 123 129 vvcurveto
          154 42 110 79 121 vhcurveto
          0 19 11 24 25 vhcurveto
          24 25 7 24 20 vvcurveto
          26 -16 19 -22 -15 -9 -12 -4 -3 vhcurveto
          -114 -165 -79 -169 -186 vvcurveto
          -149 43 -157 102 -117 vhcurveto
          endchar
        </CharString>
        <CharString name="parenright">
          -110 -129 -21 1014 -20 hstem
          223 63 vstem
          141 809 rmoveto
          31 -6 -25 24 -25 hhcurveto
          -22 -16 -14 -21 -25 26 -28 36 -26 hvcurveto
          82 -113 32 -123 -129 vvcurveto
          -154 -42 -110 -79 -121 vhcurveto
          0 -19 -11 -24 -25 vhcurveto
          -24 -25 -7 -24 -20 vvcurveto
          -26 16 -19 22 15 9 12 4 3 vhcurveto
          114 165 79 169 186 vvcurveto
          149 -43 157 -102 117 vhcurveto
          endchar
        </CharString>
        <CharString name="partialdiff">
          -15 63 579 65 hstem
          33 63 309 65 vstem
          170 620 rmoveto
          2 16 18 5 17 hhcurveto
          88 50 -105 -70 23 hvcurveto
          15 -46 8 -45 -43 vvcurveto
          -138 -70 -132 -125 -66 -48 57 70 106 120 129 103 18 vhcurveto
          16 7 7 12 12 vvcurveto
          14 -12 15 -21 2 vhcurveto
          -145 -25 -131 -159 -147 vvcurveto
          -99 87 -75 94 163 93 157 189 125 -86 236 -163 -37 -52 -12 -30 -18 14 -12 24 vhcurveto
          endchar
        </CharString>
        <CharString name="percent">
          395 -45 63 -50 -21 301 124 -104 63 230 149 -77 62 -44 44 -44 59 1 -20 hstemhm
          50 63 172 63 -42 65 123 63 -63 198 37 63 hintmask 0110000011010110
          306 9 rmoveto
          -30 3 8 -32 32 hhcurveto
          23 17 18 25 8 -3 34 -15 15 hvcurveto
          94 49 109 36 64 vhcurveto
          72 128 68 103 90 116 rrcurveto
          4 7 2 7 6 vvcurveto
          16 -13 14 -21 vhcurveto
          hintmask 1010010001101010
          -22 -43 -16 -73 hhcurveto
          hintmask 1001000101101010
          -27 -85 15 -88 hhcurveto
          -61 -62 -7 -25 -43 hvcurveto
          -70 -35 -34 -93 -86 vvcurveto
          -80 37 -116 104 103 54 109 99 vhcurveto
          hintmask 1010010001101010
          69 -27 69 -74 19 vhcurveto
          4 5 2 3 3 3 rrcurveto
          hintmask 1010001001101010
          5 14 18 2 13 hhcurveto
          hintmask 1010010001011010
          84 85 -18 68 hhcurveto
          16 17 1 1 17 hvcurveto
          -74 -98 -55 -85 -59 -109 rrcurveto
          -48 -89 -46 -103 -142 vvcurveto
          -110 588 rmoveto
          hintmask 1001100001101010
          -10 5 -26 23 10 7 1 4 8 vhcurveto
          31 -12 5 -55 -24 vvcurveto
          -54 -29 -90 -61 -61 -21 73 60 85 25 59 54 13 vhcurveto
          3 -2 4 -2 4 -1 -4 -5 -2 -4 -1 -10 rrcurveto
          504 -258 rmoveto
          hintmask 1010100001101010
          24 -16 9 -27 -107 -56 -115 -106 -80 37 -116 104 103 54 109 99 69 -27 69 -74 19 vhcurveto
          0 9 10 9 vvcurveto
          -60 -55 rmoveto
          -10 5 -26 23 10 7 1 4 8 vhcurveto
          31 -12 5 -55 -24 vvcurveto
          -54 -29 -90 -61 -61 -21 73 60 77 25 67 54 13 vhcurveto
          3 -2 4 -2 4 -1 -4 -5 -2 -4 -1 -10 rrcurveto
          endchar
        </CharString>
        <CharString name="period">
          -176 -3 108 hstem
          177 40 rmoveto
          2 6 0 6 5 vvcurveto
          26 -16 22 -24 -25 -26 -25 -34 -27 17 -22 24 21 20 17 26 7 vhcurveto
          endchar
        </CharString>
        <CharString name="periodcentered">
          -167 270 108 hstem
          177 313 rmoveto
          2 6 0 6 5 vvcurveto
          26 -16 22 -24 -25 -26 -25 -34 -27 17 -22 24 21 20 17 26 7 vhcurveto
          endchar
        </CharString>
        <CharString name="perthousand">
          730 -45 63 -50 -21 301 124 -104 63 230 149 -77 62 -44 44 -44 59 1 -20 hstemhm
          50 63 172 63 -42 65 123 63 -63 198 37 63 35 63 172 63 hintmask 011000001101011110000000
          306 9 rmoveto
          -30 3 8 -32 32 hhcurveto
          23 17 18 25 8 -3 34 -15 15 hvcurveto
          94 49 109 36 64 vhcurveto
          72 128 68 103 90 116 rrcurveto
          4 7 2 7 6 vvcurveto
          16 -13 14 -21 vhcurveto
          hintmask 101001000110101110000000
          -22 -43 -16 -73 hhcurveto
          hintmask 100100010110101110000000
          -27 -85 15 -88 hhcurveto
          -61 -62 -7 -25 -43 hvcurveto
          -70 -35 -34 -93 -86 vvcurveto
          -80 37 -116 104 103 54 109 99 vhcurveto
          hintmask 101001000110101110000000
          69 -27 69 -74 19 vhcurveto
          4 5 2 3 3 3 rrcurveto
          hintmask 101000100110101110000000
          5 14 18 2 13 hhcurveto
          hintmask 101001000101101110000000
          84 85 -18 68 hhcurveto
          16 17 1 1 17 hvcurveto
          -74 -98 -55 -85 -59 -109 rrcurveto
          -48 -89 -46 -103 -142 vvcurveto
          -110 588 rmoveto
          hintmask 100110000110101110000000
          -10 5 -26 23 10 7 1 4 8 vhcurveto
          31 -12 5 -55 -24 vvcurveto
          -54 -29 -90 -61 -61 -21 73 60 85 25 59 54 13 vhcurveto
          3 -2 4 -2 4 -1 -4 -5 -2 -4 -1 -10 rrcurveto
          504 -258 rmoveto
          hintmask 101010000110101110000000
          24 -16 9 -27 -107 -56 -115 -106 -80 37 -116 104 103 54 109 99 69 -27 69 -74 19 vhcurveto
          0 9 10 9 vvcurveto
          -60 -55 rmoveto
          -10 5 -26 23 10 7 1 4 8 vhcurveto
          31 -12 5 -55 -24 vvcurveto
          -54 -29 -90 -61 -61 -21 73 60 77 25 67 54 13 vhcurveto
          3 -2 4 -2 4 -1 -4 -5 -2 -4 -1 -10 rrcurveto
          393 55 rmoveto
          24 -16 9 -27 -107 -56 -115 -106 -80 37 -116 104 103 54 109 99 69 -27 69 -74 19 vhcurveto
          0 9 10 9 vvcurveto
          -60 -55 rmoveto
          -10 5 -26 23 10 7 1 4 8 vhcurveto
          31 -12 5 -55 -24 vvcurveto
          -54 -29 -90 -61 -61 -21 73 60 77 25 67 54 13 vhcurveto
          3 -2 4 -2 4 -1 -4 -5 -2 -4 -1 -10 rrcurveto
          endchar
        </CharString>
        <CharString name="pi">
          196 -9 66 -48 -21 491 -20 hstemhm
          176 62 105 63 hintmask 01111000
          64 299 rmoveto
          6 14 -3 27 8 12 22 33 40 9 34 2 rrcurveto
          -2 1 -4 1 -4 vhcurveto
          3 -12 0 -11 -11 vvcurveto
          -70 -52 -63 -26 -63 vhcurveto
          -17 -42 -5 -46 -45 vvcurveto
          -18 12 -17 15 30 5 21 9 1 vhcurveto
          3 vlineto
          33 1 32 10 31 vhcurveto
          27 84 61 68 85 vvcurveto
          12 -1 15 -4 13 vhcurveto
          35 -5 37 -7 40 -1 rrcurveto
          -2 -29 0 -29 -29 vvcurveto
          hintmask 10111000
          -77 9 -226 114 84 48 106 66 11 vhcurveto
          1 3 0 2 3 vvcurveto
          20 -15 12 -16 -12 -13 -8 -17 -6 vhcurveto
          -57 -10 -26 -64 -45 hhcurveto
          -39 -22 149 94 35 2 31 1 18 hvcurveto
          47 6 48 13 45 15 rrcurveto
          16 6 6 13 11 vvcurveto
          16 -12 15 -19 -3 -4 -1 -1 -4 vhcurveto
          -18 -56 -59 -16 -59 -62 -55 17 -59 hhcurveto
          -90 -85 -52 -99 -18 14 -12 16 11 11 6 14 8 hvcurveto
          endchar
        </CharString>
        <CharString name="plus">
          21 -21 179 97 -65 65 203 -20 hstemhm
          211 61 -61 87 hintmask 10111000
          81 189 rmoveto
          35 14 20 2 22 hvcurveto
          25 2 19 1 15 1 rrcurveto
          -52 vlineto
          -88 8 -75 42 vhcurveto
          hintmask 11010100
          15 22 16 24 35 -20 14 -2 22 hvcurveto
          hintmask 11011000
          -3 36 0 36 -1 33 rrcurveto
          9 hlineto
          24 49 -8 0 0 27 -29 39 41 2 32 10 26 -15 29 -173 hvcurveto
          -4 21 hlineto
          24 8 49 0 vhcurveto
          0 29 27 39 vvcurveto
          41 -32 2 -10 -26 -29 -15 -173 vhcurveto
          -15 -7 vlineto
          -88 -75 -8 -42 -16 16 -20 24 -1 hvcurveto
          endchar
        </CharString>
        <CharString name="plusminus">
          6 80 -69 -21 29 61 214 97 -65 65 203 -20 hstemhm
          211 61 -61 87 hintmask 10001110
          81 310 rmoveto
          35 14 20 2 22 hvcurveto
          25 2 19 1 15 1 rrcurveto
          -52 vlineto
          -88 8 -75 42 vhcurveto
          hintmask 10010101
          15 22 16 24 35 -20 14 -2 22 hvcurveto
          hintmask 01110110
          -3 36 0 36 -1 33 rrcurveto
          9 hlineto
          24 49 -8 0 0 27 -29 39 41 2 32 10 26 -15 29 -173 hvcurveto
          -4 21 hlineto
          24 8 49 0 vhcurveto
          0 29 27 39 vvcurveto
          41 -32 2 -10 -26 -29 -15 -173 vhcurveto
          -15 -7 vlineto
          -88 -75 -8 -42 -16 16 -20 24 -1 hvcurveto
          20 -314 rmoveto
          35 3 12 14 22 4 rrcurveto
          6 34 50 2 40 hhcurveto
          27 23 -2 -3 9 hvcurveto
          hintmask 10010110
          0 20 -14 35 47 5 19 11 26 -11 24 -125 vhcurveto
          -104 hlineto
          -86 -5 -75 -13 -40 vvcurveto
          hintmask 01110110
          -16 18 -16 24 vhcurveto
          endchar
        </CharString>
        <CharString name="product">
          210 -107 -21 713 107 -64 64 hstemhm
          65 63 317 63 hintmask 10111000
          737 629 rmoveto
          -2 9 -5 6 -8 7 rrcurveto
          17 -20 -130 24 -188 hhcurveto
          -55 -59 -2 -5 -63 hvcurveto
          -69 -5 -73 -10 -74 -13 rrcurveto
          -32 -5 -27 -11 -32 vvcurveto
          -22 2 17 -14 22 hhcurveto
          5 hlineto
          8 35 6 21 14 hvcurveto
          27 5 27 3 27 4 rrcurveto
          -24 -82 -27 -168 -210 vvcurveto
          -69 4 -74 7 -75 vhcurveto
          -30 3 8 -32 32 hhcurveto
          23 17 18 25 8 -3 35 -20 16 hvcurveto
          -6 64 -2 62 59 vvcurveto
          203 31 156 19 71 vhcurveto
          4 16 2 8 3 6 32 3 rcurveline
          4 55 51 2 47 hhcurveto
          47 43 -2 -3 38 hvcurveto
          -25 -76 -30 -174 -221 vvcurveto
          -69 4 -74 7 -75 vhcurveto
          -30 3 8 -32 32 hhcurveto
          23 17 18 25 8 -3 35 -20 16 hvcurveto
          -6 64 -2 62 59 vvcurveto
          203 31 156 19 71 vhcurveto
          8 30 33 -4 32 -6 20 -4 rlinecurve
          hintmask 11011000
          -15 15 18 -5 17 hhcurveto
          29 7 22 17 hvcurveto
          endchar
        </CharString>
        <CharString name="q">
          27 -279 -21 102 75 126 63 306 63 21 -20 hstemhm
          25 63 211 60 -39 39 -39 129 hintmask 1111111000000000
          299 -180 rmoveto
          -79 3 10 -41 41 hhcurveto
          31 -21 20 62 89 hvcurveto
          7 10 26 16 8 hhcurveto
          0 8 -3 4 21 11 19 18 19 -13 19 -21 -26 -42 -29 -15 -22 vhcurveto
          -18 -12 -33 -26 0 vvcurveto
          -5 35 -1 89 42 vvcurveto
          149 30 261 41 23 vhcurveto
          hintmask 1111110010000000
          10 7 9 12 13 vvcurveto
          21 -12 9 -19 -27 -19 -20 -43 -20 vhcurveto
          29 -22 -33 13 -39 hhcurveto
          -111 -122 -128 -154 -87 58 -63 74 49 51 27 44 41 hvcurveto
          -1 -41 -1 -41 -42 vvcurveto
          hintmask 1111111000000000
          -42 1 -43 2 -45 vhcurveto
          hintmask 1111110100000000
          21 458 rmoveto
          -110 -85 -102 -78 -36 -33 37 50 112 97 107 69 35 31 -27 -67 vhcurveto
          endchar
        </CharString>
        <CharString name="question">
          -3 108 542 148 -63 63 hstemhm
          159 87 157 63 hintmask 11011000
          228 284 rmoveto
          35 111 203 148 132 vvcurveto
          85 -85 35 -83 -99 -107 -42 -66 -21 11 -19 28 22 11 18 14 5 -1 5 -3 4 vhcurveto
          hintmask 10111000
          26 29 63 13 49 hhcurveto
          36 66 -12 -47 hvcurveto
          -112 -244 -171 -141 vvcurveto
          -31 19 -46 28 22 18 15 34 25 -16 18 -2 20 vhcurveto
          -27 -244 rmoveto
          -26 7 20 -17 21 hhcurveto
          24 17 22 27 34 -26 25 -25 -24 -16 -22 -26 -5 0 -6 2 -6 hvcurveto
          endchar
        </CharString>
        <CharString name="questiondown">
          -215 63 -63 148 542 108 hstemhm
          34 63 157 87 hintmask 01111000
          272 296 rmoveto
          -35 -111 -203 -148 -132 vvcurveto
          -85 85 -35 83 99 107 42 66 21 -11 19 -28 -22 -11 -18 -14 -5 1 -5 3 -4 vhcurveto
          hintmask 10111000
          -26 -29 -63 -13 -49 hhcurveto
          -36 -66 12 47 hvcurveto
          112 244 171 141 vvcurveto
          31 -19 46 -28 -22 -18 -15 -34 -25 16 -18 2 -20 vhcurveto
          27 244 rmoveto
          26 -7 -20 17 -21 hhcurveto
          -24 -17 -22 -27 -34 26 -25 25 24 16 22 26 5 0 6 -2 6 hvcurveto
          endchar
        </CharString>
        <CharString name="quotedbl">
          5 494 -21 296 -20 hstem
          108 500 rmoveto
          -19 2 14 -8 9 hhcurveto
          14 8 8 14 5 hvcurveto
          11 85 14 50 12 83 rrcurveto
          37 -21 19 -26 -23 -23 -19 -30 -1 vhcurveto
          163 -220 rmoveto
          -19 2 14 -8 9 hhcurveto
          14 8 8 14 5 hvcurveto
          11 85 14 50 12 83 rrcurveto
          37 -21 19 -26 -23 -23 -19 -30 -1 vhcurveto
          endchar
        </CharString>
        <CharString name="quotedblbase">
          -33 -91 190 hstemhm
          88 93 -63 63 28 93 -63 63 hintmask 11010000
          227 -31 rmoveto
          -12 -8 -6 -11 -11 vvcurveto
          -15 13 -15 18 40 22 62 38 34 -18 56 -39 -17 -13 -13 -17 vhcurveto
          hintmask 11001000
          -19 24 -12 -36 vvcurveto
          -14 -3 -13 -9 -6 vhcurveto
          -121 hmoveto
          -12 -8 -6 -11 -11 vvcurveto
          -15 13 -15 18 40 22 62 38 34 -18 56 -39 -17 -13 -13 -17 vhcurveto
          hintmask 10110000
          -19 24 -12 -36 vvcurveto
          -14 -3 -13 -9 -6 vhcurveto
          endchar
        </CharString>
        <CharString name="quotedblleft">
          -33 471 190 hstemhm
          88 63 -63 93 28 63 -63 93 hintmask 10110000
          163 601 rmoveto
          12 8 6 11 11 vvcurveto
          15 -13 15 -18 -40 -22 -62 -38 -34 18 -56 39 17 13 13 17 vhcurveto
          hintmask 11001000
          19 -24 12 36 vvcurveto
          14 3 13 9 6 vhcurveto
          121 hmoveto
          12 8 6 11 11 vvcurveto
          15 -13 15 -18 -40 -22 -62 -38 -34 18 -56 39 17 13 13 17 vhcurveto
          hintmask 11010000
          19 -24 12 36 vvcurveto
          14 3 13 9 6 vhcurveto
          endchar
        </CharString>
        <CharString name="quotedblright">
          -33 471 190 hstemhm
          88 93 -63 63 28 93 -63 63 hintmask 11010000
          227 531 rmoveto
          -12 -8 -6 -11 -11 vvcurveto
          -15 13 -15 18 40 22 62 38 34 -18 56 -39 -17 -13 -13 -17 vhcurveto
          hintmask 11001000
          -19 24 -12 -36 vvcurveto
          -14 -3 -13 -9 -6 vhcurveto
          -121 hmoveto
          -12 -8 -6 -11 -11 vvcurveto
          -15 13 -15 18 40 22 62 38 34 -18 56 -39 -17 -13 -13 -17 vhcurveto
          hintmask 10110000
          -19 24 -12 -36 vvcurveto
          -14 -3 -13 -9 -6 vhcurveto
          endchar
        </CharString>
        <CharString name="quoteleft">
          -154 492 -21 190 -20 hstemhm
          88 63 -63 93 hintmask 11010000
          163 601 rmoveto
          12 8 6 11 11 vvcurveto
          15 -13 15 -18 -40 -22 -62 -38 -34 18 -56 39 17 13 13 17 vhcurveto
          hintmask 11100000
          19 -24 12 36 vvcurveto
          14 3 13 9 6 vhcurveto
          endchar
        </CharString>
        <CharString name="quoteright">
          -154 492 -21 190 -20 hstemhm
          88 93 -63 63 hintmask 11100000
          106 531 rmoveto
          -12 -8 -6 -11 -11 vvcurveto
          -15 13 -15 18 40 22 62 38 34 -18 56 -39 -17 -13 -13 -17 vhcurveto
          hintmask 11010000
          -19 24 -12 -36 vvcurveto
          -14 -3 -13 -9 -6 vhcurveto
          endchar
        </CharString>
        <CharString name="quotesinglbase">
          -154 -68 -21 190 -20 hstemhm
          88 93 -63 63 hintmask 11100000
          106 -29 rmoveto
          -12 -8 -6 -11 -11 vvcurveto
          -15 13 -15 18 40 22 62 38 34 -18 56 -39 -17 -13 -13 -17 vhcurveto
          hintmask 11010000
          -19 24 -12 -36 vvcurveto
          -14 -3 -13 -9 -6 vhcurveto
          endchar
        </CharString>
        <CharString name="quotesingle">
          -153 494 -21 296 -20 hstem
          93 500 rmoveto
          -19 2 14 -8 9 hhcurveto
          14 8 8 14 5 hvcurveto
          11 85 14 50 12 83 rrcurveto
          37 -21 19 -26 -23 -23 -19 -30 -1 vhcurveto
          endchar
        </CharString>
        <CharString name="r">
          2 22 -21 360 63 -63 89 hstemhm
          45 94 209 77 hintmask 11011000
          66 424 rmoveto
          -13 -55 -8 -149 -115 vvcurveto
          -57 1 -47 34 15 13 11 15 3 vhcurveto
          94 19 71 240 116 hhcurveto
          10 15 -7 -13 8 hvcurveto
          -1 -6 -1 -10 -10 vvcurveto
          -32 26 -7 11 5 35 1 43 48 -46 56 -62 -100 -68 -98 -97 -42 vhcurveto
          1 51 6 52 5 34 rrcurveto
          9 5 11 13 23 vvcurveto
          hintmask 10111000
          25 -16 18 -22 vhcurveto
          hintmask 11011000
          -16 -15 -10 -16 -4 hvcurveto
          endchar
        </CharString>
        <CharString name="radical">
          203 23 -21 764 -20 hstem
          568 679 rmoveto
          0 5 -2 8 24 21 23 22 29 -19 15 -18 -5 -6 -1 -2 -3 vhcurveto
          -132 -80 -81 -266 -27 -123 -9 -43 -8 -33 -8 -43 -34 72 -21 37 -45 60 rrcurveto
          21 -15 -60 64 -17 hhcurveto
          -11 -12 -8 -11 -10 hvcurveto
          -34 -36 -5 -13 -45 -36 rrcurveto
          -6 -8 -2 -8 -7 vvcurveto
          -16 13 -14 17 6 5 2 2 6 vhcurveto
          38 31 12 16 22 25 13 -12 13 -11 11 -13 71 -81 49 -100 26 -102 rrcurveto
          -20 5 11 -7 16 hhcurveto
          19 15 11 18 hvcurveto
          2 vlineto
          1 -4 19 -2 10 vhcurveto
          24 154 34 182 74 154 18 38 28 53 35 35 rrcurveto
          endchar
        </CharString>
        <CharString name="registered">
          335 101 62 448 61 65 62 hstem
          40 62 136 70 213 63 90 63 vstem
          40 445 rmoveto
          -186 158 -158 187 184 168 149 200 200 -168 149 -184 -187 -158 -158 -186 vhcurveto
          542 -164 rmoveto
          -5 -14 -3 -10 -9 hvcurveto
          -50 38 -37 44 -23 19 rrcurveto
          104 46 36 57 56 vvcurveto
          102 -123 32 -87 -117 -68 -36 -29 -16 15 -18 22 8 7 1 3 5 vhcurveto
          -8 -88 0 -107 -67 vvcurveto
          -33 vlineto
          -28 2 -33 31 21 16 17 21 14 -4 13 -5 8 vhcurveto
          57 vlineto
          -1 2 1 0 2 hhcurveto
          30 19 5 4 15 hvcurveto
          69 -35 56 -97 59 -10 rrcurveto
          -34 -48 -58 -20 -60 hhcurveto
          -155 -129 134 153 153 129 134 155 150 138 -124 -163 -68 -24 -61 -39 -48 hvcurveto
          10 -5 -11 8 -13 hhcurveto
          -274 150 rmoveto
          -4 -2 0 -1 -4 hvcurveto
          0 4 119 9 45 vhcurveto
          4 18 26 3 19 hhcurveto
          57 90 -13 -59 -62 -79 -41 -70 -13 hvcurveto
          -2 1 rlineto
          6 -12 -27 11 -23 hhcurveto
          endchar
        </CharString>
        <CharString name="ring">
          -74 464 46 164 -20 hstemhm
          79 191 -52 52 hintmask 11100000
          137 668 rmoveto
          -33 -21 -25 -50 -46 vvcurveto
          -58 34 -29 43 61 53 66 66 52 -31 21 -31 -8 -12 -2 -4 -10 vhcurveto
          6 -6 -7 5 -9 hhcurveto
          -6 -6 -2 -4 -7 hvcurveto
          13 -80 rmoveto
          22 17 34 23 hhcurveto
          hintmask 11010000
          4 2 -9 -11 -31 -17 -61 -48 -18 -6 26 14 14 3 14 5 12 hvcurveto
          -1 4 5 -1 4 hhcurveto
          endchar
        </CharString>
        <CharString name="s">
          3 -22 63 -63 152 187 146 -60 60 hstemhm
          40 53 -53 68 202 62 -62 86 hintmask 10101010
          40 283 rmoveto
          -137 270 77 -77 vvcurveto
          -50 -91 -55 -64 -37 -25 13 18 vhcurveto
          11 8 6 10 vvcurveto
          hintmask 01010110
          16 -13 15 -19 -28 -11 -34 -24 -18 4 -76 121 100 117 82 86 vhcurveto
          151 -264 -68 59 vvcurveto
          61 135 54 55 22 13 -10 -14 vhcurveto
          -7 -19 -8 -15 vvcurveto
          hintmask 10101001
          -18 14 -14 17 30 21 27 37 39 -30 43 -68 -87 -171 -73 -107 vhcurveto
          endchar
        </CharString>
        <CharString name="scaron">
          -7 -22 63 -63 152 187 146 -60 60 66 -21 148 -20 hstemhm
          30 53 -53 68 202 62 -62 86 hintmask 1010001010000000
          30 283 rmoveto
          -137 270 77 -77 vvcurveto
          -50 -91 -55 -64 -37 -25 13 18 vhcurveto
          11 8 6 10 vvcurveto
          hintmask 0101000110000000
          16 -13 15 -19 -28 -11 -34 -24 -18 4 -76 121 100 117 82 86 vhcurveto
          151 -264 -68 59 vvcurveto
          61 135 54 55 22 13 -10 -14 vhcurveto
          -7 -19 -8 -15 vvcurveto
          hintmask 1010001001000000
          -18 14 -14 17 30 21 27 37 39 -30 43 -68 -87 -171 -73 -107 vhcurveto
          hintmask 0000110000000000
          325 369 rmoveto
          -35 -26 -35 -27 -33 -27 rrcurveto
          25 -24 -47 57 -25 hhcurveto
          -17 -11 -10 -14 -6 3 -7 4 -4 hvcurveto
          29 -31 32 -34 30 -30 rrcurveto
          -6 7 8 -4 8 hhcurveto
          5 8 2 5 7 hvcurveto
          40 32 42 32 39 33 rrcurveto
          7 6 2 8 6 vvcurveto
          13 -12 11 -16 -4 -6 -1 -3 -6 vhcurveto
          endchar
        </CharString>
        <CharString name="section">
          -114 63 -63 152 403 146 -60 60 hstemhm
          80 53 -41 56 -56 68 190 62 -46 58 -58 82 hintmask 1010100100000000
          80 191 rmoveto
          -66 54 -16 64 -8 vhcurveto
          73 -9 79 4 -42 vvcurveto
          -50 -91 -55 -64 -37 -25 13 18 vhcurveto
          11 8 6 10 vvcurveto
          hintmask 0110100100000000
          16 -13 15 -19 -28 -11 -34 -24 -18 4 -76 121 100 117 82 86 51 -31 26 -40 14 vhcurveto
          hintmask 1001001010000000
          48 32 35 46 47 151 -264 -68 59 vvcurveto
          hintmask 1001100100000000
          61 135 54 55 22 13 -10 -14 vhcurveto
          hintmask 1010100001000000
          -7 -19 -8 -15 vvcurveto
          -18 14 -14 17 30 21 27 37 vhcurveto
          hintmask 1010010100000000
          39 -30 43 -68 -87 -171 -73 -107 -54 42 -21 50 -10 vhcurveto
          hintmask 1010100100000000
          -55 -28 -49 -45 -58 vvcurveto
          282 79 rmoveto
          -46 -78 -51 -62 -7 vhcurveto
          hintmask 1010010100000000
          -42 4 -32 5 21 vvcurveto
          51 101 55 57 5 vhcurveto
          32 -6 24 -9 -22 vvcurveto
          endchar
        </CharString>
        <CharString name="semicolon">
          -151 -82 -21 425 108 hstemhm
          74 105 -75 75 -63 63 hintmask 11010000
          193 365 rmoveto
          2 6 0 6 5 vvcurveto
          26 -16 22 -24 -25 -26 -25 -34 -27 17 -22 24 21 20 17 26 7 vhcurveto
          -84 -310 rmoveto
          hintmask 11001000
          5 -6 2 -10 -12 vvcurveto
          -36 -14 -17 -12 -14 vhcurveto
          hintmask 11100000
          -8 -10 -8 -8 -11 vvcurveto
          -20 13 -14 19 55 18 91 45 45 -17 44 -34 -18 -15 -16 -18 vhcurveto
          1 -14 4 -10 9 -9 rrcurveto
          endchar
        </CharString>
        <CharString name="seven">
          72 0 -21 316 90 -58 58 199 127 -78 62 -45 45 hstemhm
          hintmask 11010000
          74 326 rmoveto
          -8 2 -23 41 42 24 20 0 vhcurveto
          5 2 10 2 13 2 rrcurveto
          -44 -83 -42 -89 -108 vvcurveto
          -30 3 8 -32 32 hhcurveto
          23 17 18 25 8 -3 34 -15 15 hvcurveto
          5 85 48 86 36 64 2 4 2 4 3 4 rrcurveto
          hintmask 10110000
          1 11 11 0 11 hhcurveto
          16 17 0 -1 13 hvcurveto
          -3 23 13 -12 35 hhcurveto
          23 2 16 15 15 vvcurveto
          36 -52 10 -68 vhcurveto
          -33 hlineto
          57 95 58 84 72 93 rrcurveto
          4 7 2 7 6 vvcurveto
          16 -13 14 -21 vhcurveto
          hintmask 11000100
          -22 -43 -16 -73 hhcurveto
          hintmask 11010000
          -52 -23 16 -58 hhcurveto
          -60 -108 -11 -75 -24 17 -17 23 28 15 23 14 5 -2 5 -2 4 hvcurveto
          hintmask 11000100
          11 27 33 4 35 hhcurveto
          hintmask 11001000
          59 37 -17 49 hhcurveto
          16 17 1 1 17 hvcurveto
          -64 -85 -50 -75 -51 -90 rrcurveto
          -156 -7 -16 -26 -26 vvcurveto
          endchar
        </CharString>
        <CharString name="six">
          101 -21 63 309 63 234 79 hstem
          440 63 vstem
          97 250 rmoveto
          29 17 94 72 77 hhcurveto
          104 51 -77 -76 -78 -54 -78 -103 -113 -64 106 102 -9 hvcurveto
          301 477 rmoveto
          -201 -166 -242 -189 -1 hvcurveto
          -169 85 -148 167 140 81 110 113 106 -72 106 -150 -64 -72 -33 -47 -49 vhcurveto
          22 139 113 172 143 16 rrcurveto
          -5 6 13 -8 11 hhcurveto
          32 22 20 22 22 -20 15 -40 hvcurveto
          endchar
        </CharString>
        <CharString name="slash">
          41 3 -21 782 -20 hstem
          50 77 vstem
          50 21 rmoveto
          -34 25 -5 14 22 16 25 27 8 -2 7 -3 8 vhcurveto
          18 71 74 199 99 177 29 52 31 52 36 53 26 5 19 29 4 7 rrcurveto
          4 8 2 8 7 vvcurveto
          20 -16 19 -22 -19 -18 -19 -19 -13 vhcurveto
          -42 -62 -39 -63 -34 -61 rrcurveto
          -128 -229 -83 -238 -52 vvcurveto
          endchar
        </CharString>
        <CharString name="space">
          -123 endchar
        </CharString>
        <CharString name="sterling">
          46 -29 139 -107 -21 65 63 184 80 -57 57 348 63 hstemhm
          0 131 -63 63 240 63 hintmask 0111011010000000
          31 291 rmoveto
          11 12 2 5 11 hvcurveto
          -28 vlineto
          -72 11 -88 7 -43 vhcurveto
          -36 -14 -47 -25 -25 vvcurveto
          hintmask 1001011010000000
          -19 13 -13 15 10 14 7 6 12 vhcurveto
          23 13 6 3 4 2 rrcurveto
          hintmask 0110111010000000
          -13 5 8 -7 16 hhcurveto
          19 13 16 17 hvcurveto
          -1 9 rlineto
          14 45 52 9 52 hhcurveto
          56 25 -13 -11 12 hvcurveto
          -1 -2 0 -4 -4 vvcurveto
          -18 13 -19 22 15 21 11 28 8 -2 10 -5 9 vhcurveto
          20 -10 -37 48 -109 hhcurveto
          -59 -58 -9 -12 -48 hvcurveto
          -8 41 -5 76 64 vvcurveto
          45 vlineto
          1 14 16 1 14 hhcurveto
          22 19 -2 -3 7 hvcurveto
          hintmask 1001010110000000
          0 33 -18 29 28 10 21 10 38 -30 11 -65 vhcurveto
          -94 hlineto
          224 17 69 124 85 hhcurveto
          57 12 -73 -57 -57 -11 -15 -8 -11 hvcurveto
          -8 -10 -4 -10 -12 vvcurveto
          -18 15 -12 20 26 33 25 120 83 -24 110 -108 -132 -84 -162 -253 -18 vhcurveto
          -44 -6 -29 -15 -25 vvcurveto
          -14 14 -18 22 -1 vhcurveto
          endchar
        </CharString>
        <CharString name="summation">
          343 -125 63 -47 62 768 62 16 -20 hstemhm
          593 99 -62 62 hintmask 10101000
          611 -62 rmoveto
          hintmask 01100100
          -95 5 -238 8 -150 2 74 121 74 122 74 122 rrcurveto
          4 7 2 6 6 vvcurveto
          6 -2 6 -4 7 vhcurveto
          -74 122 -74 122 -74 121 193 4 95 -7 195 17 rrcurveto
          12 -25 7 -36 -32 vvcurveto
          -3 -2 vlineto
          hintmask 10011000
          -18 -17 -15 -35 -29 22 -22 28 36 13 50 52 54 -15 64 -23 29 hvcurveto
          -8 10 -8 0 -12 2 rrcurveto
          hintmask 01101000
          -5 -68 -399 -11 -89 hhcurveto
          -18 -4 -10 -12 -15 vvcurveto
          -5 1 -5 2 -5 vhcurveto
          243 -400 -243 -400 rlineto
          -2 -5 -1 -5 -5 vvcurveto
          -12 7 -11 13 -5 vhcurveto
          -3 9 10 0 10 hhcurveto
          hintmask 10100100
          126 -1 345 -10 64 -5 12 1 9 2 7 9 rrcurveto
          23 29 15 64 54 vvcurveto
          53 -12 50 -39 -29 -18 -22 -33 -33 17 -14 17 vhcurveto
          2 -4 hlineto
          -32 -7 -35 -12 -26 vhcurveto
          endchar
        </CharString>
        <CharString name="t">
          -92 25 -21 706 -20 hstemhm
          0 188 -69 69 -69 121 hintmask 11010000
          119 380 rmoveto
          -132 vlineto
          -66 3 -69 5 -71 vhcurveto
          -27 2 20 -11 17 hhcurveto
          21 18 21 21 9 0 26 -17 22 hvcurveto
          -3 44 -3 43 42 vvcurveto
          102 vlineto
          14 0 14 2 27 vhcurveto
          1 13 13 1 13 hhcurveto
          9 41 0 -5 2 hvcurveto
          -13 5 14 -2 6 hhcurveto
          23 16 20 20 17 -11 16 -26 5 hvcurveto
          4 -24 -25 1 -23 hhcurveto
          -13 -13 0 -1 -13 hvcurveto
          1 54 11 83 10 31 rrcurveto
          hintmask 11001000
          20 5 7 23 17 vvcurveto
          23 -15 21 -24 -47 -22 -135 -129 -6 vhcurveto
          -44 -6 -38 -8 -17 -5 rrcurveto
          hintmask 11100000
          -17 -5 -10 -12 -17 vvcurveto
          -18 15 -13 17 vhcurveto
          endchar
        </CharString>
        <CharString name="thorn">
          71 -237 -21 268 63 301 62 136 -20 hstemhm
          40 90 -56 56 276 63 hintmask 11110110
          141 34 rmoveto
          -16 23 30 -8 41 hhcurveto
          103 131 101 150 105 -77 70 -85 -65 -70 -33 -70 -46 hvcurveto
          -6 -9 -16 132 -25 88 -15 15 rlinecurve
          -7 7 -7 5 -9 1 rrcurveto
          -5 hlineto
          -16 -20 -10 -24 -19 6 -20 18 -14 hvcurveto
          19 -71 31 -156 -203 vvcurveto
          -59 -5 -88 -6 -64 vhcurveto
          hintmask 11111010
          -20 -16 -3 -35 -8 vvcurveto
          -25 17 -18 23 32 9 32 30 2 vhcurveto
          14 233 rlineto
          1 -1 3 -2 0 vvcurveto
          214 vmoveto
          76 28 74 50 64 hhcurveto
          50 49 -44 -73 -106 -104 -78 -67 -47 -23 11 30 -23 hvcurveto
          36 0 56 -3 33 vhcurveto
          endchar
        </CharString>
        <CharString name="three">
          67 5 81 570 63 hstemhm
          355 63 -2 63 hintmask 11010000
          479 581 rmoveto
          102 -112 36 -96 -60 -211 -21 -68 -17 15 -14 17 12 18 8 16 23 vhcurveto
          17 49 68 16 69 hhcurveto
          15 130 -2 -73 -81 -146 -117 -129 -27 hvcurveto
          -14 -4 -11 -12 -14 vvcurveto
          -25 20 -7 18 vhcurveto
          hintmask 11100000
          76 125 -15 -80 -78 -110 -42 -67 -9 hvcurveto
          10 -4 -14 6 -15 hhcurveto
          -22 -19 -18 -22 -25 23 -16 28 78 185 54 141 85 -84 39 -80 18 hvcurveto
          hintmask 11010000
          105 39 120 103 97 vvcurveto
          endchar
        </CharString>
</ttFont>
